<svg xmlns="http://www.w3.org/2000/svg" width="512" height="512" viewBox="0 0 512 512" xml:lang="en"><title>FrameGraph — Logo</title><rect width="100%" height="100%" fill="white"/><rect x="0" y="0" width="512" height="512" fill="#15181E"/><line x1="85.333" y1="85.333" x2="174.08" y2="85.333" stroke="#FBFAF6" stroke-width="4.437"/><line x1="85.333" y1="85.333" x2="85.333" y2="174.08" stroke="#FBFAF6" stroke-width="4.437"/><line x1="85.333" y1="426.667" x2="174.08" y2="426.667" stroke="#FBFAF6" stroke-width="4.437"/><line x1="85.333" y1="426.667" x2="85.333" y2="337.92" stroke="#FBFAF6" stroke-width="4.437"/><line x1="426.667" y1="85.333" x2="337.92" y2="85.333" stroke="#FBFAF6" stroke-width="4.437"/><line x1="426.667" y1="85.333" x2="426.667" y2="174.08" stroke="#FBFAF6" stroke-width="4.437"/><line x1="426.667" y1="426.667" x2="337.92" y2="426.667" stroke="#FBFAF6" stroke-width="4.437"/><line x1="426.667" y1="426.667" x2="426.667" y2="337.92" stroke="#FBFAF6" stroke-width="4.437"/><line x1="180.907" y1="256" x2="316.884" y2="177.493" stroke="#FBFAF6" stroke-width="3.413"/><line x1="180.907" y1="256" x2="337.92" y2="256" stroke="#FBFAF6" stroke-width="3.413"/><line x1="180.907" y1="256" x2="316.884" y2="334.507" stroke="#FBFAF6" stroke-width="3.413"/><ellipse cx="316.884" cy="177.493" rx="17.749" ry="17.749" fill="#15181E" stroke="#FBFAF6" stroke-width="4.437"/><ellipse cx="337.92" cy="256" rx="17.749" ry="17.749" fill="#15181E" stroke="#FBFAF6" stroke-width="4.437"/><ellipse cx="316.884" cy="334.507" rx="17.749" ry="17.749" fill="#15181E" stroke="#FBFAF6" stroke-width="4.437"/><ellipse cx="180.907" cy="256" rx="25.6" ry="25.6" fill="#FBFAF6" stroke="#FBFAF6" stroke-width="4.437"/></svg>
