<svg xmlns="http://www.w3.org/2000/svg" width="64" height="64" viewBox="0 0 64 64" xml:lang="en"><title>FrameGraph — Logo</title><line x1="4" y1="4" x2="18.56" y2="4" stroke="#15181E" stroke-width="1.1"/><line x1="4" y1="4" x2="4" y2="18.56" stroke="#15181E" stroke-width="1.1"/><line x1="4" y1="60" x2="18.56" y2="60" stroke="#15181E" stroke-width="1.1"/><line x1="4" y1="60" x2="4" y2="45.44" stroke="#15181E" stroke-width="1.1"/><line x1="60" y1="4" x2="45.44" y2="4" stroke="#15181E" stroke-width="1.1"/><line x1="60" y1="4" x2="60" y2="18.56" stroke="#15181E" stroke-width="1.1"/><line x1="60" y1="60" x2="45.44" y2="60" stroke="#15181E" stroke-width="1.1"/><line x1="60" y1="60" x2="60" y2="45.44" stroke="#15181E" stroke-width="1.1"/><line x1="19.68" y1="32" x2="41.989" y2="19.12" stroke="#1F4FD8" stroke-width="0.9"/><line x1="19.68" y1="32" x2="45.44" y2="32" stroke="#1F4FD8" stroke-width="0.9"/><line x1="19.68" y1="32" x2="41.989" y2="44.88" stroke="#1F4FD8" stroke-width="0.9"/><ellipse cx="41.989" cy="19.12" rx="2.912" ry="2.912" fill="#FFFFFF" stroke="#1F4FD8" stroke-width="1"/><ellipse cx="45.44" cy="32" rx="2.912" ry="2.912" fill="#FFFFFF" stroke="#1F4FD8" stroke-width="1"/><ellipse cx="41.989" cy="44.88" rx="2.912" ry="2.912" fill="#FFFFFF" stroke="#1F4FD8" stroke-width="1"/><ellipse cx="19.68" cy="32" rx="4.2" ry="4.2" fill="#1F4FD8" stroke="#1F4FD8" stroke-width="1"/></svg>
