<svg xmlns="http://www.w3.org/2000/svg" width="1043" height="264" viewBox="0 0 1043 264" xml:lang="en"><title>FrameGraph — Logo</title><line x1="44" y1="44" x2="89.76" y2="44" stroke="#15181E" stroke-width="2.288"/><line x1="44" y1="44" x2="44" y2="89.76" stroke="#15181E" stroke-width="2.288"/><line x1="44" y1="220" x2="89.76" y2="220" stroke="#15181E" stroke-width="2.288"/><line x1="44" y1="220" x2="44" y2="174.24" stroke="#15181E" stroke-width="2.288"/><line x1="220" y1="44" x2="174.24" y2="44" stroke="#15181E" stroke-width="2.288"/><line x1="220" y1="44" x2="220" y2="89.76" stroke="#15181E" stroke-width="2.288"/><line x1="220" y1="220" x2="174.24" y2="220" stroke="#15181E" stroke-width="2.288"/><line x1="220" y1="220" x2="220" y2="174.24" stroke="#15181E" stroke-width="2.288"/><line x1="93.28" y1="132" x2="163.393" y2="91.52" stroke="#1F4FD8" stroke-width="1.76"/><line x1="93.28" y1="132" x2="174.24" y2="132" stroke="#1F4FD8" stroke-width="1.76"/><line x1="93.28" y1="132" x2="163.393" y2="172.48" stroke="#1F4FD8" stroke-width="1.76"/><ellipse cx="163.393" cy="91.52" rx="9.152" ry="9.152" fill="#FFFFFF" stroke="#1F4FD8" stroke-width="2.288"/><ellipse cx="174.24" cy="132" rx="9.152" ry="9.152" fill="#FFFFFF" stroke="#1F4FD8" stroke-width="2.288"/><ellipse cx="163.393" cy="172.48" rx="9.152" ry="9.152" fill="#FFFFFF" stroke="#1F4FD8" stroke-width="2.288"/><ellipse cx="93.28" cy="132" rx="13.2" ry="13.2" fill="#1F4FD8" stroke="#1F4FD8" stroke-width="2.288"/><text y="155.48" text-anchor="start" style="font-family:IBM Plex Sans, DejaVu Sans, Helvetica, Arial, sans-serif;font-size:128px;fill:#1c1c1c;font-weight:700;letter-spacing:-1.5px"><tspan x="258.72" style="font-family:sans-serif;font-size:128px;fill:#15181E">Frame</tspan><tspan style="font-family:sans-serif;font-size:128px;fill:#1F4FD8">Graph</tspan></text></svg>
