<svg xmlns="http://www.w3.org/2000/svg" width="452" height="678" viewBox="0 0 452 678"><title>The Understory — cover reconstruction</title><rect width="100%" height="100%" fill="white"/><rect x="0" y="0" width="452" height="678" fill="#7B6D64"/><polygon points="0,0 226,0 113,169.5" fill="#055336"/><polygon points="0,0 113,169.5 0,339" fill="#7B6D64"/><polygon points="226,0 226,339 113,169.5" fill="#F6BB6F"/><polygon points="113,169.5 226,339 0,339" fill="#EE5E1D"/><polygon points="226,0 452,0 339,169.5" fill="#3C3732"/><polygon points="226,0 339,169.5 226,339" fill="#0A4D33"/><polygon points="452,0 452,339 339,169.5" fill="#7B6D64"/><polygon points="339,169.5 452,339 226,339" fill="#F8C67A"/><polygon points="226,339 113,508.5 0,339" fill="#0B4B31"/><polygon points="0,678 0,339 113,508.5" fill="#095034"/><polygon points="226,339 226,678 113,508.5" fill="#E77A21"/><polygon points="226,678 0,678 113,508.5" fill="#1A160F"/><polygon points="452,339 339,508.5 226,339" fill="#E46B1E"/><polygon points="226,339 339,508.5 226,678" fill="#0C5436"/><polygon points="452,339 452,678 339,508.5" fill="#EF5E1D"/><polygon points="339,508.5 452,678 226,678" fill="#171715"/><g transform="translate(114.503217 0) scale(0.8602 1) translate(-114.503217 0)"><text y="291.5" text-anchor="middle" dominant-baseline="central" style="font-family:PT Sans Narrow, sans-serif;font-size:14.29px;fill:#732805;letter-spacing:1.17px"><tspan x="114.503">TRANSLATED BY</tspan></text></g><g transform="translate(108.431262 0) scale(0.7372 1) translate(-108.431262 0)"><text y="315" text-anchor="middle" dominant-baseline="central" style="font-family:PT Sans Narrow, sans-serif;font-size:21.43px;fill:#732805;letter-spacing:1.17px"><tspan x="108.431">MUI POOPOKSAKUL</tspan></text></g><g transform="translate(226.419778 0) scale(0.6378 1) translate(-226.419778 0)"><text y="446" text-anchor="middle" dominant-baseline="central" style="font-family:PT Sans Narrow, sans-serif;font-size:32.92px;fill:#F9E2BE;letter-spacing:6.02px"><tspan x="226.42">THE</tspan></text></g><g transform="translate(230.14176 0) scale(0.7396 1) translate(-230.14176 0)"><text y="506.5" text-anchor="middle" dominant-baseline="central" style="font-family:PT Sans Narrow, sans-serif;font-size:74.76px;fill:#F9E2BE;letter-spacing:11.2px"><tspan x="230.142">UNDERSTORY</tspan></text></g><g transform="translate(224.894485 0) scale(0.7149 1) translate(-224.894485 0)"><text y="592" text-anchor="middle" dominant-baseline="central" style="font-family:PT Sans Narrow, sans-serif;font-size:38.57px;fill:#F9E2BE;letter-spacing:5.3px"><tspan x="224.894">SANEH SANGSUK</tspan></text></g></svg>
