<svg xmlns="http://www.w3.org/2000/svg" width="595" height="842" viewBox="0 0 595 842" xml:lang="en-US"><title>The Guide to Wireframing — first 20 pages (FrameGraph replica)</title><desc>Structural replica of pp. 1–20 of UXPin&#x27;s “The Guide to Wireframing” (Chris Bank). Body text is the real extracted copy; the book&#x27;s photographic/sketch figures are the authors&#x27; copyrighted illustrations, shown as labelled image-placeholders. The cover&#x27;s wireframe mock is rebuilt from primitives. Layout is representative, not pixel-exact.</desc><rect width="100%" height="100%" fill="white"/><rect x="0" y="0" width="595" height="842" fill="#ffffff"/><line x1="60" y1="470" x2="60" y2="770" stroke="#EFF1F2" stroke-width="1"/><line x1="86" y1="470" x2="86" y2="770" stroke="#EFF1F2" stroke-width="1"/><line x1="112" y1="470" x2="112" y2="770" stroke="#EFF1F2" stroke-width="1"/><line x1="138" y1="470" x2="138" y2="770" stroke="#EFF1F2" stroke-width="1"/><line x1="164" y1="470" x2="164" y2="770" stroke="#EFF1F2" stroke-width="1"/><line x1="190" y1="470" x2="190" y2="770" stroke="#EFF1F2" stroke-width="1"/><line x1="216" y1="470" x2="216" y2="770" stroke="#EFF1F2" stroke-width="1"/><line x1="242" y1="470" x2="242" y2="770" stroke="#EFF1F2" stroke-width="1"/><line x1="268" y1="470" x2="268" y2="770" stroke="#EFF1F2" stroke-width="1"/><line x1="294" y1="470" x2="294" y2="770" stroke="#EFF1F2" stroke-width="1"/><line x1="320" y1="470" x2="320" y2="770" stroke="#EFF1F2" stroke-width="1"/><line x1="346" y1="470" x2="346" y2="770" stroke="#EFF1F2" stroke-width="1"/><line x1="372" y1="470" x2="372" y2="770" stroke="#EFF1F2" stroke-width="1"/><line x1="398" y1="470" x2="398" y2="770" stroke="#EFF1F2" stroke-width="1"/><line x1="424" y1="470" x2="424" y2="770" stroke="#EFF1F2" stroke-width="1"/><line x1="450" y1="470" x2="450" y2="770" stroke="#EFF1F2" stroke-width="1"/><line x1="476" y1="470" x2="476" y2="770" stroke="#EFF1F2" stroke-width="1"/><line x1="502" y1="470" x2="502" y2="770" stroke="#EFF1F2" stroke-width="1"/><line x1="528" y1="470" x2="528" y2="770" stroke="#EFF1F2" stroke-width="1"/><line x1="554" y1="470" x2="554" y2="770" stroke="#EFF1F2" stroke-width="1"/><rect x="271.5" y="70" width="52" height="40" rx="2" fill="none" stroke="#C9CDD1" stroke-width="1.2"/><text y="93.145" text-anchor="middle" style="font-family:milo, sans-serif;font-size:11px;fill:#8C8C8C;font-weight:700;letter-spacing:0.02em"><tspan x="297.5">UXPin</tspan></text><text y="165.315" text-anchor="start" style="font-family:milo, sans-serif;font-size:17px;fill:#2BB0C4;font-weight:700;letter-spacing:0.16em"><tspan x="50">THE GUIDE TO</tspan></text><text y="231.84" text-anchor="start" style="font-family:milo, sans-serif;font-size:62px;fill:#2BB0C4;font-weight:800;letter-spacing:0.01em"><tspan x="46">WIREFRAMING</tspan></text><text y="271.925" text-anchor="start" style="font-family:serif;font-size:15px;fill:#8C8C8C;font-style:italic"><tspan x="50">For Designers, PMs, Engineers and Anyone Who Touches Product</tspan></text><rect x="60" y="360" width="110" height="26" fill="#E6E8EA"/><rect x="180" y="360" width="230" height="26" fill="#E6E8EA"/><rect x="420" y="360" width="115" height="26" fill="#E6E8EA"/><ellipse cx="505" cy="373" rx="6" ry="6" fill="none" stroke="#C9CDD1" stroke-width="1.4"/><line x1="509" y1="377" x2="514" y2="382" stroke="#C9CDD1" stroke-width="1.4"/><rect x="400" y="400" width="135" height="120" fill="none" stroke="#2BB0C4" stroke-width="1.3" stroke-dasharray="5 4"/><rect x="60" y="400" width="330" height="120" fill="#E6E8EA"/><rect x="206.8" y="446.168" width="36.4" height="27.664" rx="2" fill="none" stroke="#C9CDD1" stroke-width="1.4"/><ellipse cx="216.992" cy="454.904" rx="3.64" ry="3.64" fill="#C9CDD1"/><path d="M 209.712 470.92 L 222.088 459.272 L 229.368 465.824 L 235.92 457.816 L 240.288 470.92 Z" fill="#C9CDD1"/><rect x="56.5" y="396.5" width="7" height="7" fill="#2BB0C4"/><rect x="221.5" y="396.5" width="7" height="7" fill="#2BB0C4"/><rect x="386.5" y="396.5" width="7" height="7" fill="#2BB0C4"/><rect x="56.5" y="456.5" width="7" height="7" fill="#2BB0C4"/><rect x="386.5" y="456.5" width="7" height="7" fill="#2BB0C4"/><rect x="56.5" y="516.5" width="7" height="7" fill="#2BB0C4"/><rect x="221.5" y="516.5" width="7" height="7" fill="#2BB0C4"/><rect x="386.5" y="516.5" width="7" height="7" fill="#2BB0C4"/><path d="M 396 524 L 410 538 M 396 524 L 396 532 M 396 524 L 404 524 M 410 538 L 410 530 M 410 538 L 402 538" fill="none" stroke="#2BB0C4" stroke-width="1.6"/><path d="M 52 600 q -10 0 -10 12 q 0 12 12 12" fill="none" stroke="#3F3F3F" stroke-width="1.4"/><path d="M 54 596 L 52 601 L 58 602 Z" fill="#3F3F3F"/><rect x="66" y="590" width="22" height="22" rx="2" fill="none" stroke="#2BB0C4" stroke-width="1.4"/><path d="M 70 601 L 75 606 L 84 595" fill="none" stroke="#2BB0C4" stroke-width="2"/><ellipse cx="77" cy="632" rx="12" ry="12" fill="none" stroke="#C9CDD1" stroke-width="1.2" stroke-dasharray="3 3"/><ellipse cx="77" cy="660" rx="12" ry="12" fill="none" stroke="#C9CDD1" stroke-width="1.2" stroke-dasharray="3 3"/><rect x="96" y="590" width="130" height="8" fill="#E6E8EA"/><rect x="96" y="604" width="100" height="8" fill="#E6E8EA"/><rect x="235" y="588" width="110" height="78" fill="#E6E8EA"/><rect x="275.7" y="616.132" width="28.6" height="21.736" rx="2" fill="none" stroke="#C9CDD1" stroke-width="1.4"/><ellipse cx="283.708" cy="622.996" rx="2.86" ry="2.86" fill="#C9CDD1"/><path d="M 277.988 635.58 L 287.712 626.428 L 293.432 631.576 L 298.58 625.284 L 302.012 635.58 Z" fill="#C9CDD1"/><rect x="235" y="690" width="110" height="30" fill="none" stroke="#C9CDD1" stroke-width="1.2"/><text y="707.755" text-anchor="middle" style="font-family:milo, sans-serif;font-size:9px;fill:#8C8C8C;font-weight:700;letter-spacing:0.08em"><tspan x="290">CALL TO ACTION</tspan></text><rect x="235" y="690" width="110" height="30" fill="none" stroke="#2BB0C4" stroke-width="1.3" stroke-dasharray="5 4"/><rect x="231.5" y="686.5" width="7" height="7" fill="#2BB0C4"/><rect x="286.5" y="686.5" width="7" height="7" fill="#2BB0C4"/><rect x="341.5" y="686.5" width="7" height="7" fill="#2BB0C4"/><rect x="231.5" y="701.5" width="7" height="7" fill="#2BB0C4"/><rect x="341.5" y="701.5" width="7" height="7" fill="#2BB0C4"/><rect x="231.5" y="716.5" width="7" height="7" fill="#2BB0C4"/><rect x="286.5" y="716.5" width="7" height="7" fill="#2BB0C4"/><rect x="341.5" y="716.5" width="7" height="7" fill="#2BB0C4"/><path d="M 290 726 L 290 740 M 290 726 L 286 731 M 290 726 L 294 731 M 290 740 L 286 735 M 290 740 L 294 735" fill="none" stroke="#2BB0C4" stroke-width="1.5"/><rect x="400" y="588" width="135" height="132" fill="#E6E8EA"/><path d="M 467 628 q -16 0 -16 16 q 0 14 16 30 q 16 -16 16 -30 q 0 -16 -16 -16 Z" fill="#C9CDD1"/><ellipse cx="467" cy="644" rx="5.5" ry="5.5" fill="#ffffff"/><rect x="60" y="740" width="475" height="18" fill="#EFF1F2"/><text y="822.365" text-anchor="start" style="font-family:milo, sans-serif;font-size:7px;fill:#8C8C8C;font-style:italic"><tspan x="50">(cover — wireframe mock rebuilt from FrameGraph primitives; UXPin logo is a placeholder)</tspan></text></svg>
