<svg xmlns="http://www.w3.org/2000/svg" width="960" height="540" viewBox="0 0 960 540" xml:lang="en-US"><title>France Entity Migration to Oracle Project Kickoff</title><desc>Migrated from FrameGraph v1.5 (kind: presentation-deck) to v2.0. Slides became fixed Pages through a shared `deck` master; ellipses converted box-&gt;center/rx/ry; image href-&gt;src; v1 gradients and style keys mapped to v2.</desc><rect width="100%" height="100%" fill="white"/><defs><clipPath id="clip1"><rect x="35" y="120" width="650" height="170"/></clipPath><clipPath id="clip2"><rect x="846" y="503" width="95" height="20"/></clipPath></defs><rect x="0" y="0" width="960" height="540" fill="#4B00FF"/><rect x="0" y="0" width="560" height="540" fill="#4B00B5"/><rect x="560" y="0" width="110" height="540" fill="#7418B5"/><rect x="670" y="0" width="110" height="540" fill="#9E2492"/><rect x="780" y="0" width="110" height="540" fill="#C9346B"/><rect x="890" y="0" width="70" height="540" fill="#FF4F4F"/><g opacity="0.42"><path d="M0 0 L560 0 L420 540 L0 540 Z" fill="#3E00A8"/></g><g opacity="0.26"><path d="M505 0 L735 0 L895 540 L640 540 Z" fill="#7B13C5"/></g><g opacity="0.18"><path d="M635 0 L820 0 L960 420 L960 540 L790 540 Z" fill="#FF4F6D"/></g><g opacity="0.12"><path d="M610 0 L730 0 L850 540 L735 540 Z" fill="#2B005B"/></g><g opacity="0.18"><path d="M758 0 L960 0 L960 214 L884 306 Z" fill="#FF6A54"/></g><g opacity="0.14"><path d="M530 0 L610 0 L700 120 L700 540" fill="none" stroke="#FFFFFF" stroke-width="1"/></g><g opacity="0.14"><path d="M560 0 L640 0 L775 215 L775 540" fill="none" stroke="#FFFFFF" stroke-width="1"/></g><g opacity="0.14"><path d="M585 0 L665 0 L860 295 L860 540" fill="none" stroke="#FFFFFF" stroke-width="1"/></g><rect x="0" y="0" width="960" height="540" fill="cover_bg_gradient"/><rect x="0" y="0" width="960" height="540" fill="cover_shadow_gradient"/><g opacity="0.26"><path d="M0 0 L560 0 L560 540 L0 540 Z" fill="#4400B8"/></g><rect x="0" y="0" width="960" height="540" fill="cover_bottom_gradient"/><g opacity="0"><path d="M865 0 L960 0 L960 540 L864 540 L864 295 Z" fill="#F24B58"/></g><g opacity="0.18"><path d="M528 0 L560 39 L560 540 L668 540 L668 123 L559 0 Z" fill="#4C0AA6"/></g><g opacity="0.2"><path d="M561 0 L617 31 L777 218 L777 540 L668 540 L668 123 Z" fill="#9C22B0"/></g><g opacity="0.22"><path d="M617 31 L644 32 L864 295 L864 540 L777 540 L777 218 Z" fill="#C32B83"/></g><g opacity="0.06"><path d="M528 0 L560 39 L560 540" fill="none" stroke="#FFFFFF" stroke-width="1"/></g><g opacity="0.06"><path d="M561 0 L617 31 L668 123 L668 540" fill="none" stroke="#FFFFFF" stroke-width="1"/></g><g opacity="0.06"><path d="M590 0 L644 32 L777 218 L777 540" fill="none" stroke="#FFFFFF" stroke-width="1"/></g><g opacity="0.05"><path d="M617 0 L864 295 L864 540" fill="none" stroke="#FFFFFF" stroke-width="1"/></g><text y="80" text-anchor="start" dominant-baseline="central" style="font-family:primary, sans-serif;font-size:14px;fill:#FFFFFF;font-weight:700"><tspan x="35">FY27 CAO Priority</tspan></text><g clip-path="url(#clip1)"><text y="175.76" text-anchor="start" style="font-family:primary, sans-serif;font-size:68px;fill:#FFFFFF"><tspan x="35">France Entity</tspan><tspan x="35" dy="68">Migration to</tspan></text></g><text y="301" text-anchor="start" dominant-baseline="central" style="font-family:primary, sans-serif;font-size:32px;fill:#FFFFFF"><tspan x="35">Project Kickoff</tspan></text><text y="449" text-anchor="start" dominant-baseline="central" style="font-family:primary, sans-serif;font-size:14px;fill:#FFFFFF"><tspan x="35">21st May 2026</tspan></text><rect x="824" y="505" width="9" height="9" fill="#FFFFFF"/><path d="M827,504 L837,504 L843,511 L837,518 L827,518 Z" fill="#FFFFFF"/><g clip-path="url(#clip2)"><text y="521.04" text-anchor="start" style="font-family:primary, sans-serif;font-size:22px;fill:#FFFFFF;font-weight:700"><tspan x="846">docusig</tspan><tspan x="846" dy="27.5">n.</tspan></text></g></svg>
