<svg xmlns="http://www.w3.org/2000/svg" width="960" height="540" viewBox="0 0 960 540" xml:lang="en-US"><title>France Entity Migration to Oracle Project Kickoff</title><desc>Migrated from FrameGraph v1.5 (kind: presentation-deck) to v2.0. Slides became fixed Pages through a shared `deck` master; ellipses converted box-&gt;center/rx/ry; image href-&gt;src; v1 gradients and style keys mapped to v2.</desc><rect width="100%" height="100%" fill="white"/><defs><clipPath id="clip42"><rect x="412" y="132" width="24" height="14"/></clipPath><clipPath id="clip43"><rect x="528" y="177" width="24" height="14"/></clipPath><clipPath id="clip44"><rect x="586" y="222" width="24" height="14"/></clipPath><clipPath id="clip45"><rect x="644" y="267" width="24" height="14"/></clipPath><clipPath id="clip46"><rect x="818" y="312" width="24" height="14"/></clipPath><clipPath id="clip47"><rect x="760" y="357" width="24" height="14"/></clipPath><clipPath id="clip48"><rect x="212" y="114" width="133" height="16"/></clipPath><clipPath id="clip49"><rect x="345" y="114" width="337" height="16"/></clipPath><clipPath id="clip50"><rect x="682" y="114" width="270" height="16"/></clipPath><clipPath id="clip51"><rect x="56" y="502" width="95" height="20"/></clipPath></defs><rect x="0" y="0" width="960" height="540" fill="#FFFFFF"/><text y="62.16" text-anchor="start" style="font-family:primary, sans-serif;font-size:38px;fill:#16002F"><tspan x="36">Grant Thornton: Assessment Timeline</tspan></text><text y="27" text-anchor="end" dominant-baseline="central" style="font-family:primary, sans-serif;font-size:14px;fill:#D9D9D9"><tspan x="930">GT</tspan></text><rect x="8" y="86" width="204" height="30" fill="#7A2FB5"/><rect x="212" y="86" width="132" height="30" fill="#7A2FB5"/><rect x="344" y="86" width="338" height="30" fill="#7A2FB5"/><rect x="682" y="86" width="270" height="30" fill="#7A2FB5"/><rect x="8" y="118" width="204" height="24" fill="#FFFFFF"/><rect x="212" y="118" width="740" height="24" fill="#C9C6D0"/><rect x="212" y="142" width="740" height="250" fill="#F2F2F2"/><text y="102" text-anchor="middle" dominant-baseline="central" style="font-family:primary, sans-serif;font-size:14px;fill:#FFFFFF"><tspan x="295">May</tspan></text><text y="102" text-anchor="middle" dominant-baseline="central" style="font-family:primary, sans-serif;font-size:14px;fill:#FFFFFF"><tspan x="510">June</tspan></text><text y="102" text-anchor="middle" dominant-baseline="central" style="font-family:primary, sans-serif;font-size:14px;fill:#FFFFFF"><tspan x="780">July</tspan></text><text y="130" text-anchor="middle" dominant-baseline="central" style="font-family:primary, sans-serif;font-size:10px;fill:#FFFFFF"><tspan x="253">18/05</tspan></text><line x1="250" y1="142" x2="250" y2="392" stroke="#D9D9D9" stroke-width="0.5"/><text y="130" text-anchor="middle" dominant-baseline="central" style="font-family:primary, sans-serif;font-size:10px;fill:#FFFFFF"><tspan x="311">25/05</tspan></text><line x1="308" y1="142" x2="308" y2="392" stroke="#D9D9D9" stroke-width="0.5"/><text y="130" text-anchor="middle" dominant-baseline="central" style="font-family:primary, sans-serif;font-size:10px;fill:#FFFFFF"><tspan x="369">01/06</tspan></text><line x1="366" y1="142" x2="366" y2="392" stroke="#D9D9D9" stroke-width="0.5"/><text y="130" text-anchor="middle" dominant-baseline="central" style="font-family:primary, sans-serif;font-size:10px;fill:#FFFFFF"><tspan x="427">08/06</tspan></text><line x1="424" y1="142" x2="424" y2="392" stroke="#D9D9D9" stroke-width="0.5"/><text y="130" text-anchor="middle" dominant-baseline="central" style="font-family:primary, sans-serif;font-size:10px;fill:#FFFFFF"><tspan x="485">15/06</tspan></text><line x1="482" y1="142" x2="482" y2="392" stroke="#D9D9D9" stroke-width="0.5"/><text y="130" text-anchor="middle" dominant-baseline="central" style="font-family:primary, sans-serif;font-size:10px;fill:#FFFFFF"><tspan x="543">22/06</tspan></text><line x1="540" y1="142" x2="540" y2="392" stroke="#D9D9D9" stroke-width="0.5"/><text y="130" text-anchor="middle" dominant-baseline="central" style="font-family:primary, sans-serif;font-size:10px;fill:#FFFFFF"><tspan x="601">29/06</tspan></text><line x1="598" y1="142" x2="598" y2="392" stroke="#D9D9D9" stroke-width="0.5"/><text y="130" text-anchor="middle" dominant-baseline="central" style="font-family:primary, sans-serif;font-size:10px;fill:#FFFFFF"><tspan x="659">06/07</tspan></text><line x1="656" y1="142" x2="656" y2="392" stroke="#D9D9D9" stroke-width="0.5"/><text y="130" text-anchor="middle" dominant-baseline="central" style="font-family:primary, sans-serif;font-size:10px;fill:#FFFFFF"><tspan x="717">13/07</tspan></text><line x1="714" y1="142" x2="714" y2="392" stroke="#D9D9D9" stroke-width="0.5"/><text y="130" text-anchor="middle" dominant-baseline="central" style="font-family:primary, sans-serif;font-size:10px;fill:#FFFFFF"><tspan x="775">20/07</tspan></text><line x1="772" y1="142" x2="772" y2="392" stroke="#D9D9D9" stroke-width="0.5"/><text y="130" text-anchor="middle" dominant-baseline="central" style="font-family:primary, sans-serif;font-size:10px;fill:#FFFFFF"><tspan x="833">27/07</tspan></text><line x1="830" y1="142" x2="830" y2="392" stroke="#D9D9D9" stroke-width="0.5"/><text y="138" text-anchor="middle" dominant-baseline="central" style="font-family:primary, sans-serif;font-size:8px;fill:#16002F;font-weight:700"><tspan x="130">GLOBAL ASSESSMENT &amp; IMPACT ANALYSIS</tspan></text><line x1="225" y1="141" x2="900" y2="141" stroke="#D9D9D9" stroke-width="0.7"/><rect x="298" y="135" width="116" height="12" rx="6" fill="#7A2FB5"/><ellipse cx="424" cy="139" rx="12" ry="12" fill="#FFFFFF" stroke="#D9D9D9" stroke-width="1"/><g clip-path="url(#clip42)"><text y="139" text-anchor="middle" dominant-baseline="central" style="font-family:primary, sans-serif;font-size:13px;fill:#7A2FB5;font-weight:700"><tspan x="424">1</tspan></text></g><text y="176.56" text-anchor="middle" style="font-family:primary, sans-serif;font-size:8px;fill:#16002F;font-weight:700"><tspan x="130">FRENCH LOCALIZATION ASSESSMENT &amp; IMPACT</tspan><tspan x="130" dy="10">ANALYSIS</tspan></text><line x1="225" y1="186" x2="900" y2="186" stroke="#D9D9D9" stroke-width="0.7"/><rect x="414" y="180" width="116" height="12" rx="6" fill="#8270AE"/><ellipse cx="540" cy="184" rx="12" ry="12" fill="#FFFFFF" stroke="#D9D9D9" stroke-width="1"/><g clip-path="url(#clip43)"><text y="184" text-anchor="middle" dominant-baseline="central" style="font-family:primary, sans-serif;font-size:13px;fill:#7A2FB5;font-weight:700"><tspan x="540">2</tspan></text></g><text y="221.56" text-anchor="middle" style="font-family:primary, sans-serif;font-size:8px;fill:#16002F;font-weight:700"><tspan x="130">KEY BUSINESS DECISIONS FOR FRENCH</tspan><tspan x="130" dy="10">LOCALIZATION</tspan></text><line x1="225" y1="231" x2="900" y2="231" stroke="#D9D9D9" stroke-width="0.7"/><rect x="530" y="225" width="58" height="12" rx="6" fill="#008BA0"/><ellipse cx="598" cy="229" rx="12" ry="12" fill="#FFFFFF" stroke="#D9D9D9" stroke-width="1"/><g clip-path="url(#clip44)"><text y="229" text-anchor="middle" dominant-baseline="central" style="font-family:primary, sans-serif;font-size:13px;fill:#7A2FB5;font-weight:700"><tspan x="598">3</tspan></text></g><text y="266.56" text-anchor="middle" style="font-family:primary, sans-serif;font-size:8px;fill:#16002F;font-weight:700"><tspan x="130">LOCAL DATA &amp; INTEGRATION ASSESSMENT &amp;</tspan><tspan x="130" dy="10">IMPACT ANALYSIS</tspan></text><line x1="225" y1="276" x2="900" y2="276" stroke="#D9D9D9" stroke-width="0.7"/><rect x="588" y="270" width="58" height="12" rx="6" fill="#29B9C6"/><ellipse cx="656" cy="274" rx="12" ry="12" fill="#FFFFFF" stroke="#D9D9D9" stroke-width="1"/><g clip-path="url(#clip45)"><text y="274" text-anchor="middle" dominant-baseline="central" style="font-family:primary, sans-serif;font-size:13px;fill:#7A2FB5;font-weight:700"><tspan x="656">4</tspan></text></g><text y="311.56" text-anchor="middle" style="font-family:primary, sans-serif;font-size:8px;fill:#16002F;font-weight:700"><tspan x="130">IMPLEMENTATION ROADMAP AND PLAN -</tspan><tspan x="130" dy="10">LOCALIZATION</tspan></text><line x1="225" y1="321" x2="900" y2="321" stroke="#D9D9D9" stroke-width="0.7"/><rect x="704" y="315" width="116" height="12" rx="6" fill="#4B00D8"/><ellipse cx="830" cy="319" rx="12" ry="12" fill="#FFFFFF" stroke="#D9D9D9" stroke-width="1"/><g clip-path="url(#clip46)"><text y="319" text-anchor="middle" dominant-baseline="central" style="font-family:primary, sans-serif;font-size:13px;fill:#7A2FB5;font-weight:700"><tspan x="830">5</tspan></text></g><text y="363" text-anchor="middle" dominant-baseline="central" style="font-family:primary, sans-serif;font-size:8px;fill:#16002F;font-weight:700"><tspan x="130">FOCUS ON E-INVOICING</tspan></text><line x1="225" y1="366" x2="900" y2="366" stroke="#D9D9D9" stroke-width="0.7"/><rect x="414" y="360" width="348" height="12" rx="6" fill="#BFBFBF"/><ellipse cx="772" cy="364" rx="12" ry="12" fill="#FFFFFF" stroke="#D9D9D9" stroke-width="1"/><g clip-path="url(#clip47)"><text y="364" text-anchor="middle" dominant-baseline="central" style="font-family:primary, sans-serif;font-size:13px;fill:#7A2FB5;font-weight:700"><tspan x="772">6</tspan></text></g><text y="418.56" text-anchor="start" style="font-family:primary, sans-serif;font-size:8px;fill:#16002F"><tspan x="175">Kick-off</tspan></text><text y="418.56" text-anchor="start" style="font-family:primary, sans-serif;font-size:8px;fill:#16002F"><tspan x="365">SteerCo #1</tspan></text><text y="418.56" text-anchor="start" style="font-family:primary, sans-serif;font-size:8px;fill:#16002F"><tspan x="655">SteerCo #2</tspan></text><ellipse cx="357" cy="457" rx="7" ry="7" fill="#EEE7FF"/><text y="450.56" text-anchor="start" style="font-family:primary, sans-serif;font-size:8px;fill:#16002F"><tspan x="370">Closing</tspan><tspan x="370" dy="10">meeting</tspan></text><ellipse cx="462" cy="457" rx="7" ry="7" fill="#D9D9D9"/><text y="450.56" text-anchor="start" style="font-family:primary, sans-serif;font-size:8px;fill:#16002F"><tspan x="475">Steering</tspan><tspan x="475" dy="10">Committee</tspan></text><rect x="580" y="454" width="36" height="6" rx="3" fill="#EEE7FF"/><text y="453.56" text-anchor="start" style="font-family:primary, sans-serif;font-size:8px;fill:#16002F"><tspan x="625">Deliverable</tspan></text><rect x="0" y="84" width="960" height="392" fill="#FFFFFF"/><rect x="6" y="86" width="170" height="30" fill="#7A2FB5"/><rect x="176" y="86" width="114" height="30" fill="#7A2FB5"/><rect x="290" y="86" width="282" height="30" fill="#7A2FB5"/><rect x="572" y="86" width="222" height="30" fill="#7A2FB5"/><rect x="6" y="118" width="170" height="24" fill="#C9C6D0"/><rect x="176" y="118" width="618" height="24" fill="#C9C6D0"/><rect x="6" y="143" width="170" height="258" fill="#F0F0F0"/><rect x="176" y="143" width="618" height="258" fill="#F2F2F2"/><text y="102" text-anchor="middle" dominant-baseline="central" style="font-family:primary, sans-serif;font-size:12px;fill:#FFFFFF"><tspan x="233">May</tspan></text><text y="102" text-anchor="middle" dominant-baseline="central" style="font-family:primary, sans-serif;font-size:12px;fill:#FFFFFF"><tspan x="431">June</tspan></text><text y="102" text-anchor="middle" dominant-baseline="central" style="font-family:primary, sans-serif;font-size:12px;fill:#FFFFFF"><tspan x="683">July</tspan></text><text y="130" text-anchor="start" dominant-baseline="central" style="font-family:primary, sans-serif;font-size:8px;fill:#FFFFFF"><tspan x="184">18/05 25/05 01/06 08/06 15/06 22/06 29/06 06/07 13/07 20/07 27/07</tspan></text><line x1="176" y1="118" x2="176" y2="401" stroke="#FFFFFF" stroke-width="1"/><line x1="232" y1="118" x2="232" y2="401" stroke="#FFFFFF" stroke-width="1"/><line x1="288" y1="118" x2="288" y2="401" stroke="#FFFFFF" stroke-width="1"/><line x1="344" y1="118" x2="344" y2="401" stroke="#FFFFFF" stroke-width="1"/><line x1="400" y1="118" x2="400" y2="401" stroke="#FFFFFF" stroke-width="1"/><line x1="456" y1="118" x2="456" y2="401" stroke="#FFFFFF" stroke-width="1"/><line x1="512" y1="118" x2="512" y2="401" stroke="#FFFFFF" stroke-width="1"/><line x1="568" y1="118" x2="568" y2="401" stroke="#FFFFFF" stroke-width="1"/><line x1="624" y1="118" x2="624" y2="401" stroke="#FFFFFF" stroke-width="1"/><line x1="680" y1="118" x2="680" y2="401" stroke="#FFFFFF" stroke-width="1"/><line x1="736" y1="118" x2="736" y2="401" stroke="#FFFFFF" stroke-width="1"/><line x1="794" y1="118" x2="794" y2="401" stroke="#FFFFFF" stroke-width="1"/><text y="159.74" text-anchor="middle" style="font-family:primary, sans-serif;font-size:7px;fill:#4B2788;font-weight:700"><tspan x="89">GLOBAL ASSESSMENT &amp; IMPACT</tspan><tspan x="89" dy="9">ANALYSIS</tspan></text><text y="199.74" text-anchor="middle" style="font-family:primary, sans-serif;font-size:7px;fill:#8270AE;font-weight:700"><tspan x="89">FRENCH LOCALIZATION ASSESSMENT &amp;</tspan><tspan x="89" dy="9">IMPACT ANALYSIS</tspan></text><text y="239.74" text-anchor="middle" style="font-family:primary, sans-serif;font-size:7px;fill:#008BA0;font-weight:700"><tspan x="89">KEY BUSINESS DECISIONS FOR FRENCH</tspan><tspan x="89" dy="9">LOCALIZATION</tspan></text><text y="279.74" text-anchor="middle" style="font-family:primary, sans-serif;font-size:7px;fill:#0097A9;font-weight:700"><tspan x="89">LOCAL DATA &amp; INTEGRATION ASSESSMENT &amp;</tspan><tspan x="89" dy="9">IMPACT ANALYSIS</tspan></text><text y="319.74" text-anchor="middle" style="font-family:primary, sans-serif;font-size:7px;fill:#4B00D8;font-weight:700"><tspan x="89">IMPLEMENTATION ROADMAP AND PLAN -</tspan><tspan x="89" dy="9">LOCALIZATION</tspan></text><text y="366" text-anchor="middle" dominant-baseline="central" style="font-family:primary, sans-serif;font-size:7px;fill:#666666;font-weight:700"><tspan x="90">FOCUS ON E-INVOICING</tspan></text><rect x="178" y="150" width="166" height="28" fill="#7A2FB5"/><rect x="274" y="189" width="176" height="30" fill="#8270AE"/><rect x="409" y="231" width="49" height="26" rx="1" fill="#008BA0"/><path d="M400,270 L590,270 L604,285 L590,300 L400,300 Z" fill="#29B9C6"/><path d="M530,310 L684,310 L692,326 L684,342 L530,342 Z" fill="#4B00D8"/><path d="M232,350 L490,350 L516,366 L490,382 L232,382 Z" fill="#BFBFBF"/><ellipse cx="255" cy="168" rx="9" ry="9" fill="#FFFFFF"/><text y="168" text-anchor="middle" dominant-baseline="central" style="font-family:primary, sans-serif;font-size:8px;fill:#666666;font-weight:700"><tspan x="255">1</tspan></text><ellipse cx="364" cy="207" rx="9" ry="9" fill="#FFFFFF"/><text y="207" text-anchor="middle" dominant-baseline="central" style="font-family:primary, sans-serif;font-size:8px;fill:#666666;font-weight:700"><tspan x="364">2</tspan></text><ellipse cx="432" cy="248" rx="9" ry="9" fill="#FFFFFF"/><text y="248" text-anchor="middle" dominant-baseline="central" style="font-family:primary, sans-serif;font-size:8px;fill:#666666;font-weight:700"><tspan x="432">3</tspan></text><ellipse cx="497" cy="288" rx="9" ry="9" fill="#FFFFFF"/><text y="288" text-anchor="middle" dominant-baseline="central" style="font-family:primary, sans-serif;font-size:8px;fill:#666666;font-weight:700"><tspan x="497">4</tspan></text><ellipse cx="607" cy="327" rx="9" ry="9" fill="#FFFFFF"/><text y="327" text-anchor="middle" dominant-baseline="central" style="font-family:primary, sans-serif;font-size:8px;fill:#666666;font-weight:700"><tspan x="607">5</tspan></text><ellipse cx="354" cy="367" rx="9" ry="9" fill="#FFFFFF"/><text y="367" text-anchor="middle" dominant-baseline="central" style="font-family:primary, sans-serif;font-size:8px;fill:#666666;font-weight:700"><tspan x="354">6</tspan></text><line x1="344" y1="138" x2="344" y2="178" stroke="#B000B8" stroke-width="1.2"/><line x1="456" y1="182" x2="456" y2="219" stroke="#B000B8" stroke-width="1.2"/><line x1="458" y1="224" x2="458" y2="259" stroke="#B000B8" stroke-width="1.2"/><line x1="602" y1="263" x2="602" y2="302" stroke="#B000B8" stroke-width="1.2"/><line x1="686" y1="304" x2="686" y2="343" stroke="#B000B8" stroke-width="1.2"/><line x1="516" y1="343" x2="516" y2="383" stroke="#B000B8" stroke-width="1.2"/><text y="390" text-anchor="middle" dominant-baseline="central" style="font-family:primary, sans-serif;font-size:7px;fill:#7A2FB5"><tspan x="197">Kick-off</tspan></text><text y="390" text-anchor="middle" dominant-baseline="central" style="font-family:primary, sans-serif;font-size:7px;fill:#7A2FB5"><tspan x="417">SteerCo #1</tspan></text><text y="390" text-anchor="middle" dominant-baseline="central" style="font-family:primary, sans-serif;font-size:7px;fill:#7A2FB5"><tspan x="617">SteerCo #2</tspan></text><path d="M181,397 L187,407 L175,407 Z" fill="#FFFFFF" stroke="#7A2FB5" stroke-width="1"/><path d="M400,397 L406,407 L394,407 Z" fill="#FFFFFF" stroke="#7A2FB5" stroke-width="1"/><path d="M608,397 L614,407 L602,407 Z" fill="#FFFFFF" stroke="#7A2FB5" stroke-width="1"/><rect x="265" y="412" width="274" height="22" fill="#FFFFFF" stroke="#666666" stroke-width="0.5" stroke-dasharray="2 2"/><text y="423" text-anchor="start" dominant-baseline="central" style="font-family:primary, sans-serif;font-size:7px;fill:#16002F;font-weight:700"><tspan x="282">Legend</tspan></text><text y="418.92" text-anchor="middle" style="font-family:primary, sans-serif;font-size:6px;fill:#666666"><tspan x="367.5">Closing</tspan><tspan x="367.5" dy="7">meeting</tspan></text><path d="M400,421 L405,429 L395,429 Z" fill="#FFFFFF" stroke="#7A2FB5" stroke-width="1"/><text y="418.92" text-anchor="middle" style="font-family:primary, sans-serif;font-size:6px;fill:#666666"><tspan x="437.5">Steering</tspan><tspan x="437.5" dy="7">Committee</tspan></text><text y="423" text-anchor="start" dominant-baseline="central" style="font-family:primary, sans-serif;font-size:6px;fill:#666666"><tspan x="490">Deliverable</tspan></text><rect x="176" y="118" width="618" height="24" fill="#C9C6D0"/><text y="131" text-anchor="middle" dominant-baseline="central" style="font-family:primary, sans-serif;font-size:7px;fill:#FFFFFF"><tspan x="203">18/05</tspan></text><text y="131" text-anchor="middle" dominant-baseline="central" style="font-family:primary, sans-serif;font-size:7px;fill:#FFFFFF"><tspan x="259">25/05</tspan></text><text y="131" text-anchor="middle" dominant-baseline="central" style="font-family:primary, sans-serif;font-size:7px;fill:#FFFFFF"><tspan x="315">01/06</tspan></text><text y="131" text-anchor="middle" dominant-baseline="central" style="font-family:primary, sans-serif;font-size:7px;fill:#FFFFFF"><tspan x="371">08/06</tspan></text><text y="131" text-anchor="middle" dominant-baseline="central" style="font-family:primary, sans-serif;font-size:7px;fill:#FFFFFF"><tspan x="427">15/06</tspan></text><text y="131" text-anchor="middle" dominant-baseline="central" style="font-family:primary, sans-serif;font-size:7px;fill:#FFFFFF"><tspan x="483">22/06</tspan></text><text y="131" text-anchor="middle" dominant-baseline="central" style="font-family:primary, sans-serif;font-size:7px;fill:#FFFFFF"><tspan x="539">29/06</tspan></text><text y="131" text-anchor="middle" dominant-baseline="central" style="font-family:primary, sans-serif;font-size:7px;fill:#FFFFFF"><tspan x="595">06/07</tspan></text><text y="131" text-anchor="middle" dominant-baseline="central" style="font-family:primary, sans-serif;font-size:7px;fill:#FFFFFF"><tspan x="651">13/07</tspan></text><text y="131" text-anchor="middle" dominant-baseline="central" style="font-family:primary, sans-serif;font-size:7px;fill:#FFFFFF"><tspan x="707">20/07</tspan></text><text y="131" text-anchor="middle" dominant-baseline="central" style="font-family:primary, sans-serif;font-size:7px;fill:#FFFFFF"><tspan x="763">27/07</tspan></text><path d="M344,145 L352,156 L344,167 L336,156 Z" fill="#B000B8"/><path d="M456,189 L464,200 L456,211 L448,200 Z" fill="#B000B8"/><path d="M458,230 L466,241 L458,252 L450,241 Z" fill="#B000B8"/><path d="M602,272 L610,283 L602,294 L594,283 Z" fill="#B000B8"/><path d="M686,314 L694,325 L686,336 L678,325 Z" fill="#B000B8"/><path d="M516,355 L524,366 L516,377 L508,366 Z" fill="#B000B8"/><rect x="468" y="411" width="18" height="18" fill="#FFFFFF"/><path d="M477,413 L485,423 L477,433 L469,423 Z" fill="#B000B8"/><rect x="0" y="84" width="960" height="408" fill="#FFFFFF"/><rect x="8" y="102" width="204" height="38" fill="#5A348B"/><rect x="212" y="102" width="133" height="38" fill="#5A348B"/><rect x="345" y="102" width="337" height="38" fill="#5A348B"/><rect x="682" y="102" width="270" height="38" fill="#5A348B"/><rect x="8" y="142" width="204" height="30" fill="#C9C6D0"/><rect x="212" y="142" width="740" height="30" fill="#C9C6D0"/><rect x="8" y="174" width="204" height="307" fill="#F0F0F0"/><rect x="212" y="174" width="740" height="307" fill="#F2F2F2"/><g clip-path="url(#clip48)"><text y="122" text-anchor="middle" dominant-baseline="central" style="font-family:primary, sans-serif;font-size:14px;fill:#FFFFFF"><tspan x="278.5">May</tspan></text></g><g clip-path="url(#clip49)"><text y="122" text-anchor="middle" dominant-baseline="central" style="font-family:primary, sans-serif;font-size:14px;fill:#FFFFFF"><tspan x="513.5">June</tspan></text></g><g clip-path="url(#clip50)"><text y="122" text-anchor="middle" dominant-baseline="central" style="font-family:primary, sans-serif;font-size:14px;fill:#FFFFFF"><tspan x="817">July</tspan></text></g><line x1="212" y1="102" x2="212" y2="481" stroke="#FFFFFF" stroke-width="1"/><line x1="279" y1="142" x2="279" y2="481" stroke="#FFFFFF" stroke-width="1"/><line x1="346" y1="102" x2="346" y2="481" stroke="#FFFFFF" stroke-width="1"/><line x1="413" y1="142" x2="413" y2="481" stroke="#FFFFFF" stroke-width="1"/><line x1="480" y1="142" x2="480" y2="481" stroke="#FFFFFF" stroke-width="1"/><line x1="547" y1="142" x2="547" y2="481" stroke="#FFFFFF" stroke-width="1"/><line x1="614" y1="142" x2="614" y2="481" stroke="#FFFFFF" stroke-width="1"/><line x1="682" y1="102" x2="682" y2="481" stroke="#FFFFFF" stroke-width="1"/><line x1="749" y1="142" x2="749" y2="481" stroke="#FFFFFF" stroke-width="1"/><line x1="816" y1="142" x2="816" y2="481" stroke="#FFFFFF" stroke-width="1"/><line x1="883" y1="142" x2="883" y2="481" stroke="#FFFFFF" stroke-width="1"/><line x1="952" y1="102" x2="952" y2="481" stroke="#FFFFFF" stroke-width="1"/><text y="159" text-anchor="middle" dominant-baseline="central" style="font-family:primary, sans-serif;font-size:10px;fill:#FFFFFF"><tspan x="244.5">18/05</tspan></text><text y="159" text-anchor="middle" dominant-baseline="central" style="font-family:primary, sans-serif;font-size:10px;fill:#FFFFFF"><tspan x="311.5">25/05</tspan></text><text y="159" text-anchor="middle" dominant-baseline="central" style="font-family:primary, sans-serif;font-size:10px;fill:#FFFFFF"><tspan x="378.5">01/06</tspan></text><text y="159" text-anchor="middle" dominant-baseline="central" style="font-family:primary, sans-serif;font-size:10px;fill:#FFFFFF"><tspan x="445.5">08/06</tspan></text><text y="159" text-anchor="middle" dominant-baseline="central" style="font-family:primary, sans-serif;font-size:10px;fill:#FFFFFF"><tspan x="512.5">15/06</tspan></text><text y="159" text-anchor="middle" dominant-baseline="central" style="font-family:primary, sans-serif;font-size:10px;fill:#FFFFFF"><tspan x="579.5">22/06</tspan></text><text y="159" text-anchor="middle" dominant-baseline="central" style="font-family:primary, sans-serif;font-size:10px;fill:#FFFFFF"><tspan x="646.5">29/06</tspan></text><text y="159" text-anchor="middle" dominant-baseline="central" style="font-family:primary, sans-serif;font-size:10px;fill:#FFFFFF"><tspan x="714.5">06/07</tspan></text><text y="159" text-anchor="middle" dominant-baseline="central" style="font-family:primary, sans-serif;font-size:10px;fill:#FFFFFF"><tspan x="781.5">13/07</tspan></text><text y="159" text-anchor="middle" dominant-baseline="central" style="font-family:primary, sans-serif;font-size:10px;fill:#FFFFFF"><tspan x="848.5">20/07</tspan></text><text y="159" text-anchor="middle" dominant-baseline="central" style="font-family:primary, sans-serif;font-size:10px;fill:#FFFFFF"><tspan x="915.5">27/07</tspan></text><text y="204" text-anchor="middle" dominant-baseline="central" style="font-family:primary, sans-serif;font-size:8px;fill:#4B2788;font-weight:700"><tspan x="102">GLOBAL ASSESSMENT &amp; IMPACT ANALYSIS</tspan></text><text y="241.56" text-anchor="middle" style="font-family:primary, sans-serif;font-size:8px;fill:#8270AE;font-weight:700"><tspan x="104">FRENCH LOCALIZATION ASSESSMENT &amp;</tspan><tspan x="104" dy="9">IMPACT ANALYSIS</tspan></text><text y="291.56" text-anchor="middle" style="font-family:primary, sans-serif;font-size:8px;fill:#008BA0;font-weight:700"><tspan x="104">KEY BUSINESS DECISIONS FOR FRENCH</tspan><tspan x="104" dy="9">LOCALIZATION</tspan></text><text y="337.56" text-anchor="middle" style="font-family:primary, sans-serif;font-size:8px;fill:#008BA0;font-weight:700"><tspan x="104">LOCAL DATA &amp; INTEGRATION ASSESSMENT &amp;</tspan><tspan x="104" dy="9">IMPACT ANALYSIS</tspan></text><text y="384.56" text-anchor="middle" style="font-family:primary, sans-serif;font-size:8px;fill:#4B00D8;font-weight:700"><tspan x="104">IMPLEMENTATION ROADMAP AND PLAN -</tspan><tspan x="104" dy="9">LOCALIZATION</tspan></text><text y="436" text-anchor="middle" dominant-baseline="central" style="font-family:primary, sans-serif;font-size:8px;fill:#666666;font-weight:700"><tspan x="106">FOCUS ON E-INVOICING</tspan></text><path d="M212,178 L396,178 L412,198 L396,218 L212,218 Z" fill="#5A348B"/><path d="M327,225 L538,225 L548,245 L538,265 L327,265 Z" fill="#8270AE"/><path d="M492,275 L537,275 L550,294 L537,313 L492,313 Z" fill="#008BA0"/><path d="M479,322 L710,322 L723,341 L710,360 L479,360 Z" fill="#29B9C6"/><path d="M634,371 L806,371 L823,390 L806,409 L634,409 Z" fill="#4B00D8"/><path d="M278,416 L589,416 L618,436 L589,456 L278,456 Z" fill="#BFBFBF"/><ellipse cx="307" cy="199" rx="11" ry="11" fill="#FFFFFF"/><text y="199.5" text-anchor="middle" dominant-baseline="central" style="font-family:primary, sans-serif;font-size:8px;fill:#666666;font-weight:700"><tspan x="307">1</tspan></text><ellipse cx="438" cy="246" rx="11" ry="11" fill="#FFFFFF"/><text y="246.5" text-anchor="middle" dominant-baseline="central" style="font-family:primary, sans-serif;font-size:8px;fill:#666666;font-weight:700"><tspan x="438">2</tspan></text><ellipse cx="518" cy="295" rx="11" ry="11" fill="#FFFFFF"/><text y="295.5" text-anchor="middle" dominant-baseline="central" style="font-family:primary, sans-serif;font-size:8px;fill:#666666;font-weight:700"><tspan x="518">3</tspan></text><ellipse cx="596" cy="341" rx="11" ry="11" fill="#FFFFFF"/><text y="341.5" text-anchor="middle" dominant-baseline="central" style="font-family:primary, sans-serif;font-size:8px;fill:#666666;font-weight:700"><tspan x="596">4</tspan></text><ellipse cx="728" cy="391" rx="11" ry="11" fill="#FFFFFF"/><text y="391.5" text-anchor="middle" dominant-baseline="central" style="font-family:primary, sans-serif;font-size:8px;fill:#666666;font-weight:700"><tspan x="728">5</tspan></text><ellipse cx="424" cy="436" rx="11" ry="11" fill="#FFFFFF"/><text y="436.5" text-anchor="middle" dominant-baseline="central" style="font-family:primary, sans-serif;font-size:8px;fill:#666666;font-weight:700"><tspan x="424">6</tspan></text><path d="M412,176 L416,195 L429,198 L416,201 L412,220 L408,201 L395,198 L408,195 Z" fill="#B000B8"/><path d="M548,223 L552,242 L565,245 L552,248 L548,267 L544,248 L531,245 L544,242 Z" fill="#B000B8"/><path d="M550,272 L554,291 L567,294 L554,297 L550,316 L546,297 L533,294 L546,291 Z" fill="#B000B8"/><path d="M723,319 L727,338 L740,341 L727,344 L723,363 L719,344 L706,341 L719,338 Z" fill="#B000B8"/><path d="M823,368 L827,387 L840,390 L827,393 L823,412 L819,393 L806,390 L819,387 Z" fill="#B000B8"/><path d="M618,414 L622,433 L635,436 L622,439 L618,458 L614,439 L601,436 L614,433 Z" fill="#B000B8"/><text y="465" text-anchor="middle" dominant-baseline="central" style="font-family:primary, sans-serif;font-size:8px;fill:#4B2788"><tspan x="224">Kick-off</tspan></text><path d="M222,471 L229,481 L215,481 Z" fill="#FFFFFF" stroke="#0C2A7A" stroke-width="1.2"/><text y="465" text-anchor="middle" dominant-baseline="central" style="font-family:primary, sans-serif;font-size:8px;fill:#4B2788"><tspan x="487">SteerCo #1</tspan></text><path d="M489,471 L496,481 L482,481 Z" fill="#FFFFFF" stroke="#0C2A7A" stroke-width="1.2"/><text y="465" text-anchor="middle" dominant-baseline="central" style="font-family:primary, sans-serif;font-size:8px;fill:#4B2788"><tspan x="739">SteerCo #2</tspan></text><path d="M735,471 L742,481 L728,481 Z" fill="#FFFFFF" stroke="#0C2A7A" stroke-width="1.2"/><rect x="318" y="495" width="324" height="26" fill="#FFFFFF" stroke="#666666" stroke-width="0.6" stroke-dasharray="2 2"/><text y="508" text-anchor="start" dominant-baseline="central" style="font-family:primary, sans-serif;font-size:7px;fill:#16002F;font-weight:700"><tspan x="332">Legend</tspan></text><text y="504.92" text-anchor="middle" style="font-family:primary, sans-serif;font-size:6px;fill:#666666"><tspan x="429">Closing</tspan><tspan x="429" dy="7">meeting</tspan></text><path d="M482,508 L489,518 L475,518 Z" fill="#FFFFFF" stroke="#0C2A7A" stroke-width="1"/><text y="509" text-anchor="middle" dominant-baseline="central" style="font-family:primary, sans-serif;font-size:6px;fill:#666666"><tspan x="521">Steering Committee</tspan></text><path d="M570,498 L582,508 L570,518 L558,508 Z" fill="#B000B8"/><text y="508" text-anchor="start" dominant-baseline="central" style="font-family:primary, sans-serif;font-size:6px;fill:#666666"><tspan x="592">Deliverable</tspan></text><rect x="36" y="503" width="13" height="13" fill="#4B00FF"/><path d="M43,503 L51,503 L58,510 L51,517 L43,517 Z" fill="#FF5252"/><g clip-path="url(#clip51)"><text y="520.04" text-anchor="start" style="font-family:primary, sans-serif;font-size:22px;fill:#000000;font-weight:700"><tspan x="56">docusig</tspan><tspan x="56" dy="27.5">n.</tspan></text></g><text y="516" text-anchor="end" dominant-baseline="central" style="font-family:primary, sans-serif;font-size:11px;fill:#16002F"><tspan x="930">12</tspan></text></svg>
