<svg xmlns="http://www.w3.org/2000/svg" width="960" height="540" viewBox="0 0 960 540" xml:lang="en-US"><title>France Entity Migration to Oracle Project Kickoff</title><desc>Migrated from FrameGraph v1.5 (kind: presentation-deck) to v2.0. Slides became fixed Pages through a shared `deck` master; ellipses converted box-&gt;center/rx/ry; image href-&gt;src; v1 gradients and style keys mapped to v2.</desc><rect width="100%" height="100%" fill="white"/><defs><clipPath id="clip103"><rect x="644" y="494" width="300" height="22"/></clipPath><clipPath id="clip104"><rect x="56" y="502" width="95" height="20"/></clipPath></defs><rect x="0" y="0" width="960" height="540" fill="#FFFFFF"/><text y="51.24" text-anchor="start" style="font-family:primary, sans-serif;font-size:32px;fill:#16002F;font-weight:700"><tspan x="36">Grant Thornton Assessment Approach</tspan></text><line x1="46" y1="68" x2="865" y2="68" stroke="#7A2FB5" stroke-width="2"/><g opacity="0.92"><ellipse cx="459" cy="292" rx="54" ry="54" fill="#5A348B"/></g><g opacity="0.92"><ellipse cx="469" cy="329" rx="44" ry="44" fill="#29B9C6"/></g><ellipse cx="462" cy="302" rx="44" ry="44" fill="#FFFFFF"/><g opacity="0.95"><path d="M405 292 C418 250 465 238 509 265 C468 267 438 286 420 325 Z" fill="#4B00D8"/></g><g opacity="0.9"><path d="M421 330 C457 356 512 338 526 292 C501 323 458 327 424 305 Z" fill="#008BA0"/></g><rect x="455" y="287" width="4" height="54" fill="#16002F"/><path d="M459 287 C478 275 491 302 512 289 L512 321 C492 334 476 306 459 318 Z" fill="none" stroke="#16002F" stroke-width="4"/><ellipse cx="490" cy="208" rx="14" ry="14" fill="#FFFFFF" stroke="#5A348B" stroke-width="4"/><text y="209.34" text-anchor="middle" style="font-family:primary, sans-serif;font-size:12px;fill:#16002F;font-weight:700"><tspan x="490">1</tspan></text><text y="139.84" text-anchor="start" style="font-family:primary, sans-serif;font-size:12px;fill:#5A348B;font-weight:700"><tspan x="400">GLOBAL ASSESSMENT &amp; IMPACT ANALYSIS</tspan></text><text y="175.38" text-anchor="start" style="font-family:primary, sans-serif;font-size:9px;fill:#16002F"><tspan x="400">• Identify impacts and challenges in implementing</tspan><tspan x="400" dy="11">Oracle for France • Review the overall processes that</tspan><tspan x="400" dy="11">may be impacted by France implementation</tspan></text><ellipse cx="560" cy="250" rx="14" ry="14" fill="#FFFFFF" stroke="#8270AE" stroke-width="4"/><text y="251.34" text-anchor="middle" style="font-family:primary, sans-serif;font-size:12px;fill:#16002F;font-weight:700"><tspan x="560">2</tspan></text><text y="254.84" text-anchor="start" style="font-family:primary, sans-serif;font-size:12px;fill:#8270AE;font-weight:700"><tspan x="575">FRENCH LOCALIZATION ASSESSMENT &amp; IMPACT</tspan><tspan x="575" dy="13">ANALYSIS</tspan></text><text y="290.38" text-anchor="start" style="font-family:primary, sans-serif;font-size:9px;fill:#16002F"><tspan x="575">• Review taxes, statutory reporting, language and banking</tspan><tspan x="575" dy="11">requirements • Perform a fit-gap analysis to determine Oracle SaaS</tspan><tspan x="575" dy="11">vs extension requirements</tspan></text><ellipse cx="525" cy="355" rx="14" ry="14" fill="#FFFFFF" stroke="#35C0C8" stroke-width="4"/><text y="356.34" text-anchor="middle" style="font-family:primary, sans-serif;font-size:12px;fill:#16002F;font-weight:700"><tspan x="525">3</tspan></text><text y="397.84" text-anchor="start" style="font-family:primary, sans-serif;font-size:12px;fill:#35C0C8;font-weight:700"><tspan x="545">KEY BUSINESS DECISIONS FOR FRENCH LOCALIZATION</tspan></text><text y="433.38" text-anchor="start" style="font-family:primary, sans-serif;font-size:9px;fill:#16002F"><tspan x="545">• Review, understand, and drive the key business decisions</tspan></text><ellipse cx="390" cy="330" rx="14" ry="14" fill="#FFFFFF" stroke="#0097A9" stroke-width="4"/><text y="331.34" text-anchor="middle" style="font-family:primary, sans-serif;font-size:12px;fill:#16002F;font-weight:700"><tspan x="390">4</tspan></text><text y="374.84" text-anchor="start" style="font-family:primary, sans-serif;font-size:12px;fill:#0097A9;font-weight:700"><tspan x="150">LOCAL DATA &amp; INTEGRATION ASSESSMENT &amp; IMPACT</tspan><tspan x="150" dy="13">ANALYSIS</tspan></text><text y="410.38" text-anchor="start" style="font-family:primary, sans-serif;font-size:9px;fill:#16002F"><tspan x="150">• Identify and assess key data migration and integration</tspan><tspan x="150" dy="11">considerations • Assess and recommend downstream integrations</tspan></text><ellipse cx="365" cy="245" rx="14" ry="14" fill="#FFFFFF" stroke="#4B00D8" stroke-width="4"/><text y="246.34" text-anchor="middle" style="font-family:primary, sans-serif;font-size:12px;fill:#16002F;font-weight:700"><tspan x="365">5</tspan></text><text y="239.84" text-anchor="start" style="font-family:primary, sans-serif;font-size:12px;fill:#4B00D8;font-weight:700"><tspan x="145">IMPLEMENTATION ROADMAP AND PLAN -</tspan><tspan x="145" dy="13">LOCALIZATION</tspan></text><text y="275.38" text-anchor="start" style="font-family:primary, sans-serif;font-size:9px;fill:#16002F"><tspan x="145">• Provide recommendations on the high-level implementation</tspan><tspan x="145" dy="11">plan including roadmap, timeline, and resource plan</tspan></text><rect x="115" y="105" width="795" height="375" fill="#FFFFFF"/><g opacity="0.92"><ellipse cx="525" cy="351" rx="63" ry="63" fill="#5A348B"/></g><g opacity="0.9"><ellipse cx="535" cy="358" rx="41" ry="41" fill="#8270AE"/></g><g opacity="0.95"><ellipse cx="510" cy="400" rx="54" ry="54" fill="#35C0C8"/></g><ellipse cx="537" cy="366" rx="54" ry="54" fill="#FFFFFF"/><g opacity="0.97"><path d="M455 365 C466 306 532 290 592 325 C538 328 494 351 470 406 Z" fill="#4B00D8"/></g><g opacity="0.92"><path d="M478 428 C525 460 591 431 603 365 C575 412 520 414 478 387 Z" fill="#008BA0"/></g><rect x="511" y="356" width="5" height="62" fill="#16002F"/><path d="M516 358 C540 342 556 374 584 360 L584 398 C558 414 541 380 516 394 Z" fill="none" stroke="#16002F" stroke-width="4.5"/><ellipse cx="548" cy="264" rx="17" ry="17" fill="#FFFFFF" stroke="#5A348B" stroke-width="4"/><text y="265.73" text-anchor="middle" style="font-family:primary, sans-serif;font-size:14px;fill:#16002F;font-weight:700"><tspan x="548">1</tspan></text><text y="171.48" text-anchor="start" style="font-family:primary, sans-serif;font-size:14px;fill:#5A348B;font-weight:700"><tspan x="485">GLOBAL ASSESSMENT &amp; IMPACT ANALYSIS</tspan></text><text y="196.02" text-anchor="start" style="font-family:primary, sans-serif;font-size:11px;fill:#16002F"><tspan x="485">• Identify impacts and challenges in implementing</tspan><tspan x="485" dy="14">Oracle for France • Review the overall processes that</tspan><tspan x="485" dy="14">may be impacted by France implementation</tspan></text><ellipse cx="657" cy="350" rx="17" ry="17" fill="#FFFFFF" stroke="#8270AE" stroke-width="4"/><text y="351.73" text-anchor="middle" style="font-family:primary, sans-serif;font-size:14px;fill:#16002F;font-weight:700"><tspan x="657">2</tspan></text><text y="331.48" text-anchor="start" style="font-family:primary, sans-serif;font-size:14px;fill:#5A348B;font-weight:700"><tspan x="684">FRENCH LOCALIZATION ASSESSMENT &amp;</tspan><tspan x="684" dy="15">IMPACT ANALYSIS</tspan></text><text y="371.2" text-anchor="start" style="font-family:primary, sans-serif;font-size:10px;fill:#16002F"><tspan x="684">• Review the list of local taxes, statutory</tspan><tspan x="684" dy="13">reporting, language and banking requirements and</tspan><tspan x="684" dy="13">assess for completeness. • Perform a fit-gap</tspan><tspan x="684" dy="13">analysis to determine which can be addressed</tspan><tspan x="684" dy="13">natively in Oracle SaaS and which require</tspan><tspan x="684" dy="13">localization extensions</tspan></text><ellipse cx="603" cy="442" rx="17" ry="17" fill="#FFFFFF" stroke="#35C0C8" stroke-width="4"/><text y="443.73" text-anchor="middle" style="font-family:primary, sans-serif;font-size:14px;fill:#16002F;font-weight:700"><tspan x="603">3</tspan></text><text y="456.48" text-anchor="start" style="font-family:primary, sans-serif;font-size:14px;fill:#008BA0;font-weight:700"><tspan x="644">KEY BUSINESS DECISIONS FOR FRENCH</tspan><tspan x="644" dy="15">LOCALIZATION</tspan></text><g clip-path="url(#clip103)"><text y="502.2" text-anchor="start" style="font-family:primary, sans-serif;font-size:10px;fill:#16002F"><tspan x="644">• Review, understand, and drive the key business</tspan></text></g><ellipse cx="455" cy="429" rx="17" ry="17" fill="#FFFFFF" stroke="#0097A9" stroke-width="4"/><text y="430.73" text-anchor="middle" style="font-family:primary, sans-serif;font-size:14px;fill:#16002F;font-weight:700"><tspan x="455">4</tspan></text><text y="441.48" text-anchor="start" style="font-family:primary, sans-serif;font-size:14px;fill:#008BA0;font-weight:700"><tspan x="190">LOCAL DATA &amp; INTEGRATION ASSESSMENT &amp;</tspan><tspan x="190" dy="15">IMPACT ANALYSIS</tspan></text><text y="489.2" text-anchor="start" style="font-family:primary, sans-serif;font-size:10px;fill:#16002F"><tspan x="180">• Identify and assess key data migration and integration</tspan><tspan x="180" dy="13">considerations (only as they pertain to French-specific</tspan><tspan x="180" dy="13">requirements) • Assess and recommend downstream Integrations</tspan></text><ellipse cx="449" cy="340" rx="17" ry="17" fill="#FFFFFF" stroke="#4B00D8" stroke-width="4"/><text y="341.73" text-anchor="middle" style="font-family:primary, sans-serif;font-size:14px;fill:#16002F;font-weight:700"><tspan x="449">5</tspan></text><text y="290.48" text-anchor="start" style="font-family:primary, sans-serif;font-size:14px;fill:#4B00FF;font-weight:700"><tspan x="204">IMPLEMENTATION ROADMAP AND PLAN -</tspan><tspan x="204" dy="15">LOCALIZATION</tspan></text><text y="327.2" text-anchor="start" style="font-family:primary, sans-serif;font-size:10px;fill:#16002F"><tspan x="188">• Provide recommendations on the high-level</tspan><tspan x="188" dy="13">implementation plan including roadmap,</tspan><tspan x="188" dy="13">timeline, and resource plan</tspan></text><rect x="120" y="105" width="825" height="420" fill="#FFFFFF"/><g opacity="0.92"><ellipse cx="426" cy="324" rx="54" ry="54" fill="#5A348B"/></g><g opacity="0.88"><ellipse cx="480" cy="312" rx="28" ry="36" fill="#8270AE"/></g><g opacity="0.95"><ellipse cx="430" cy="362" rx="44" ry="44" fill="#35C0C8"/></g><ellipse cx="448" cy="340" rx="48" ry="48" fill="#FFFFFF"/><g opacity="0.97"><path d="M370 320 C382 278 430 266 492 300 C442 302 404 323 385 362 Z" fill="#4B00D8"/></g><g opacity="0.92"><path d="M388 370 C430 394 486 367 498 315 C471 352 424 358 388 335 Z" fill="#008BA0"/></g><rect x="419" y="294" width="4" height="54" fill="#16002F"/><path d="M423 296 C443 283 457 309 480 297 L480 330 C458 344 444 315 423 326 Z" fill="none" stroke="#16002F" stroke-width="4"/><ellipse cx="438" cy="222" rx="14" ry="14" fill="#FFFFFF" stroke="#5A348B" stroke-width="4"/><text y="223.34" text-anchor="middle" style="font-family:primary, sans-serif;font-size:12px;fill:#16002F;font-weight:700"><tspan x="438">1</tspan></text><text y="141.84" text-anchor="start" style="font-family:primary, sans-serif;font-size:12px;fill:#5A348B;font-weight:700"><tspan x="388">GLOBAL ASSESSMENT &amp; IMPACT ANALYSIS</tspan></text><text y="158.38" text-anchor="start" style="font-family:primary, sans-serif;font-size:9px;fill:#16002F"><tspan x="388">• Identify impacts and challenges in implementing Oracle for France •</tspan><tspan x="388" dy="11">Review the overall processes that may be impacted by France</tspan><tspan x="388" dy="11">implementation</tspan></text><ellipse cx="525" cy="300" rx="14" ry="14" fill="#FFFFFF" stroke="#8270AE" stroke-width="4"/><text y="301.34" text-anchor="middle" style="font-family:primary, sans-serif;font-size:12px;fill:#16002F;font-weight:700"><tspan x="525">2</tspan></text><text y="267.84" text-anchor="start" style="font-family:primary, sans-serif;font-size:12px;fill:#5A348B;font-weight:700"><tspan x="546">FRENCH LOCALIZATION ASSESSMENT &amp; IMPACT</tspan><tspan x="546" dy="13">ANALYSIS</tspan></text><text y="297.38" text-anchor="start" style="font-family:primary, sans-serif;font-size:9px;fill:#16002F"><tspan x="560">• Review the list of local taxes, statutory reporting, language and</tspan><tspan x="560" dy="11">banking requirements and assess for completeness. • Perform a fit-gap</tspan><tspan x="560" dy="11">analysis to determine which can be addressed natively in Oracle SaaS</tspan><tspan x="560" dy="11">and which require localization extensions</tspan></text><ellipse cx="478" cy="396" rx="14" ry="14" fill="#FFFFFF" stroke="#35C0C8" stroke-width="4"/><text y="397.34" text-anchor="middle" style="font-family:primary, sans-serif;font-size:12px;fill:#16002F;font-weight:700"><tspan x="478">3</tspan></text><text y="397.84" text-anchor="start" style="font-family:primary, sans-serif;font-size:12px;fill:#008BA0;font-weight:700"><tspan x="516">KEY BUSINESS DECISIONS FOR FRENCH LOCALIZATION</tspan></text><text y="427.38" text-anchor="start" style="font-family:primary, sans-serif;font-size:9px;fill:#16002F"><tspan x="526">• Review, understand, and drive the key business decisions</tspan></text><ellipse cx="374" cy="370" rx="14" ry="14" fill="#FFFFFF" stroke="#0097A9" stroke-width="4"/><text y="371.34" text-anchor="middle" style="font-family:primary, sans-serif;font-size:12px;fill:#16002F;font-weight:700"><tspan x="374">4</tspan></text><text y="370.84" text-anchor="start" style="font-family:primary, sans-serif;font-size:12px;fill:#008BA0;font-weight:700"><tspan x="153">LOCAL DATA &amp; INTEGRATION ASSESSMENT &amp; IMPACT</tspan><tspan x="153" dy="13">ANALYSIS</tspan></text><text y="399.38" text-anchor="start" style="font-family:primary, sans-serif;font-size:9px;fill:#16002F"><tspan x="144">• Identify and assess key data migration and</tspan><tspan x="144" dy="11">integration considerations (only as they pertain to</tspan><tspan x="144" dy="11">French-specific requirements) • Assess and recommend</tspan><tspan x="144" dy="11">downstream Integrations</tspan></text><ellipse cx="360" cy="274" rx="14" ry="14" fill="#FFFFFF" stroke="#4B00D8" stroke-width="4"/><text y="275.34" text-anchor="middle" style="font-family:primary, sans-serif;font-size:12px;fill:#16002F;font-weight:700"><tspan x="360">5</tspan></text><text y="234.84" text-anchor="start" style="font-family:primary, sans-serif;font-size:12px;fill:#4B00FF;font-weight:700"><tspan x="162">IMPLEMENTATION ROADMAP AND PLAN -</tspan><tspan x="162" dy="13">LOCALIZATION</tspan></text><text y="263.38" text-anchor="start" style="font-family:primary, sans-serif;font-size:9px;fill:#16002F"><tspan x="150">• Provide recommendations on the</tspan><tspan x="150" dy="11">high-level implementation plan including</tspan><tspan x="150" dy="11">roadmap, timeline, and resource plan</tspan></text><rect x="36" y="503" width="13" height="13" fill="#4B00FF"/><path d="M43,503 L51,503 L58,510 L51,517 L43,517 Z" fill="#FF5252"/><g clip-path="url(#clip104)"><text y="520.04" text-anchor="start" style="font-family:primary, sans-serif;font-size:22px;fill:#000000;font-weight:700"><tspan x="56">docusig</tspan><tspan x="56" dy="27.5">n.</tspan></text></g><text y="518.145" text-anchor="middle" style="font-family:primary, sans-serif;font-size:11px;fill:#666666"><tspan x="480">Docusign Confidential</tspan></text></svg>
