<svg xmlns="http://www.w3.org/2000/svg" width="595" height="842" viewBox="0 0 595 842"><rect width="100%" height="100%" fill="white"/><text x="72" y="106.12" text-anchor="start" style="font-family:serif;font-size:11px;fill:#000000;font-weight:bold">Common Abbreviations of Words in References</text><text x="72" y="129.41" text-anchor="start" style="font-family:serif;font-size:10.5px;fill:#1a1a1a">Tips for abbreviating periodical titles in references: words ending in “-ology”</text><text x="72" y="143.06" text-anchor="start" style="font-family:serif;font-size:10.5px;fill:#1a1a1a">can be ended after the “-ol.”; words ending in “-graphy” after the “-gr.”;</text><text x="72" y="156.71" text-anchor="start" style="font-family:serif;font-size:10.5px;fill:#1a1a1a">compound words using the abbreviation of the last word. Some abbreviations apply</text><text x="72" y="170.36" text-anchor="start" style="font-family:serif;font-size:10.5px;fill:#1a1a1a">to more than one word (e.g., “Mathematical” and “Mathematics” are both “Math.”).</text><text x="72" y="182.63" text-anchor="start" style="font-family:sans-serif;font-size:9px;fill:#1c1c1c;font-weight:bold">Common abbreviations of words in references (sample).</text><rect x="72" y="190.95" width="112.75" height="18" fill="#f1f3f5" stroke="#d8d8d8" stroke-width="0.5"/><text x="75" y="201.31" text-anchor="start" style="font-family:sans-serif;font-size:8px;fill:#222;font-weight:bold">Word</text><rect x="184.75" y="190.95" width="112.75" height="18" fill="#f1f3f5" stroke="#d8d8d8" stroke-width="0.5"/><text x="187.75" y="201.31" text-anchor="start" style="font-family:sans-serif;font-size:8px;fill:#222;font-weight:bold">Abbrev.</text><rect x="297.5" y="190.95" width="112.75" height="18" fill="#f1f3f5" stroke="#d8d8d8" stroke-width="0.5"/><text x="300.5" y="201.31" text-anchor="start" style="font-family:sans-serif;font-size:8px;fill:#222;font-weight:bold">Word</text><rect x="410.25" y="190.95" width="112.75" height="18" fill="#f1f3f5" stroke="#d8d8d8" stroke-width="0.5"/><text x="413.25" y="201.31" text-anchor="start" style="font-family:sans-serif;font-size:8px;fill:#222;font-weight:bold">Abbrev.</text><rect x="72" y="208.95" width="112.75" height="18" fill="#ffffff" stroke="#d8d8d8" stroke-width="0.5"/><text x="75" y="219.31" text-anchor="start" style="font-family:sans-serif;font-size:8px;fill:#1c1c1c">Abstracts</text><rect x="184.75" y="208.95" width="112.75" height="18" fill="#ffffff" stroke="#d8d8d8" stroke-width="0.5"/><text x="187.75" y="219.31" text-anchor="start" style="font-family:sans-serif;font-size:8px;fill:#1c1c1c">Abstr.</text><rect x="297.5" y="208.95" width="112.75" height="18" fill="#ffffff" stroke="#d8d8d8" stroke-width="0.5"/><text x="300.5" y="219.31" text-anchor="start" style="font-family:sans-serif;font-size:8px;fill:#1c1c1c">Analysis</text><rect x="410.25" y="208.95" width="112.75" height="18" fill="#ffffff" stroke="#d8d8d8" stroke-width="0.5"/><text x="413.25" y="219.31" text-anchor="start" style="font-family:sans-serif;font-size:8px;fill:#1c1c1c">Anal.</text><rect x="72" y="226.95" width="112.75" height="18" fill="#fafafa" stroke="#d8d8d8" stroke-width="0.5"/><text x="75" y="237.31" text-anchor="start" style="font-family:sans-serif;font-size:8px;fill:#1c1c1c">Academy</text><rect x="184.75" y="226.95" width="112.75" height="18" fill="#fafafa" stroke="#d8d8d8" stroke-width="0.5"/><text x="187.75" y="237.31" text-anchor="start" style="font-family:sans-serif;font-size:8px;fill:#1c1c1c">Acad.</text><rect x="297.5" y="226.95" width="112.75" height="18" fill="#fafafa" stroke="#d8d8d8" stroke-width="0.5"/><text x="300.5" y="237.31" text-anchor="start" style="font-family:sans-serif;font-size:8px;fill:#1c1c1c">Annals</text><rect x="410.25" y="226.95" width="112.75" height="18" fill="#fafafa" stroke="#d8d8d8" stroke-width="0.5"/><text x="413.25" y="237.31" text-anchor="start" style="font-family:sans-serif;font-size:8px;fill:#1c1c1c">Ann.</text><rect x="72" y="244.95" width="112.75" height="18" fill="#ffffff" stroke="#d8d8d8" stroke-width="0.5"/><text x="75" y="255.31" text-anchor="start" style="font-family:sans-serif;font-size:8px;fill:#1c1c1c">Accelerator</text><rect x="184.75" y="244.95" width="112.75" height="18" fill="#ffffff" stroke="#d8d8d8" stroke-width="0.5"/><text x="187.75" y="255.31" text-anchor="start" style="font-family:sans-serif;font-size:8px;fill:#1c1c1c">Accel.</text><rect x="297.5" y="244.95" width="112.75" height="18" fill="#ffffff" stroke="#d8d8d8" stroke-width="0.5"/><text x="300.5" y="255.31" text-anchor="start" style="font-family:sans-serif;font-size:8px;fill:#1c1c1c">Annual</text><rect x="410.25" y="244.95" width="112.75" height="18" fill="#ffffff" stroke="#d8d8d8" stroke-width="0.5"/><text x="413.25" y="255.31" text-anchor="start" style="font-family:sans-serif;font-size:8px;fill:#1c1c1c">Annu.</text><rect x="72" y="262.95" width="112.75" height="18" fill="#fafafa" stroke="#d8d8d8" stroke-width="0.5"/><text x="75" y="273.31" text-anchor="start" style="font-family:sans-serif;font-size:8px;fill:#1c1c1c">Acoustics</text><rect x="184.75" y="262.95" width="112.75" height="18" fill="#fafafa" stroke="#d8d8d8" stroke-width="0.5"/><text x="187.75" y="273.31" text-anchor="start" style="font-family:sans-serif;font-size:8px;fill:#1c1c1c">Acoust.</text><rect x="297.5" y="262.95" width="112.75" height="18" fill="#fafafa" stroke="#d8d8d8" stroke-width="0.5"/><text x="300.5" y="273.31" text-anchor="start" style="font-family:sans-serif;font-size:8px;fill:#1c1c1c">Apparatus</text><rect x="410.25" y="262.95" width="112.75" height="18" fill="#fafafa" stroke="#d8d8d8" stroke-width="0.5"/><text x="413.25" y="273.31" text-anchor="start" style="font-family:sans-serif;font-size:8px;fill:#1c1c1c">App.</text><rect x="72" y="280.95" width="112.75" height="18" fill="#ffffff" stroke="#d8d8d8" stroke-width="0.5"/><text x="75" y="291.31" text-anchor="start" style="font-family:sans-serif;font-size:8px;fill:#1c1c1c">Administration</text><rect x="184.75" y="280.95" width="112.75" height="18" fill="#ffffff" stroke="#d8d8d8" stroke-width="0.5"/><text x="187.75" y="291.31" text-anchor="start" style="font-family:sans-serif;font-size:8px;fill:#1c1c1c">Admin.</text><rect x="297.5" y="280.95" width="112.75" height="18" fill="#ffffff" stroke="#d8d8d8" stroke-width="0.5"/><text x="300.5" y="291.31" text-anchor="start" style="font-family:sans-serif;font-size:8px;fill:#1c1c1c">Applications</text><rect x="410.25" y="280.95" width="112.75" height="18" fill="#ffffff" stroke="#d8d8d8" stroke-width="0.5"/><text x="413.25" y="291.31" text-anchor="start" style="font-family:sans-serif;font-size:8px;fill:#1c1c1c">Appl.</text><rect x="72" y="298.95" width="112.75" height="18" fill="#fafafa" stroke="#d8d8d8" stroke-width="0.5"/><text x="75" y="309.31" text-anchor="start" style="font-family:sans-serif;font-size:8px;fill:#1c1c1c">Advanced</text><rect x="184.75" y="298.95" width="112.75" height="18" fill="#fafafa" stroke="#d8d8d8" stroke-width="0.5"/><text x="187.75" y="309.31" text-anchor="start" style="font-family:sans-serif;font-size:8px;fill:#1c1c1c">Adv.</text><rect x="297.5" y="298.95" width="112.75" height="18" fill="#fafafa" stroke="#d8d8d8" stroke-width="0.5"/><text x="300.5" y="309.31" text-anchor="start" style="font-family:sans-serif;font-size:8px;fill:#1c1c1c">Approximate</text><rect x="410.25" y="298.95" width="112.75" height="18" fill="#fafafa" stroke="#d8d8d8" stroke-width="0.5"/><text x="413.25" y="309.31" text-anchor="start" style="font-family:sans-serif;font-size:8px;fill:#1c1c1c">Approx.</text><rect x="72" y="316.95" width="112.75" height="18" fill="#ffffff" stroke="#d8d8d8" stroke-width="0.5"/><text x="75" y="327.31" text-anchor="start" style="font-family:sans-serif;font-size:8px;fill:#1c1c1c">Aeronautics</text><rect x="184.75" y="316.95" width="112.75" height="18" fill="#ffffff" stroke="#d8d8d8" stroke-width="0.5"/><text x="187.75" y="327.31" text-anchor="start" style="font-family:sans-serif;font-size:8px;fill:#1c1c1c">Aeronaut.</text><rect x="297.5" y="316.95" width="112.75" height="18" fill="#ffffff" stroke="#d8d8d8" stroke-width="0.5"/><text x="300.5" y="327.31" text-anchor="start" style="font-family:sans-serif;font-size:8px;fill:#1c1c1c">Archive(s)</text><rect x="410.25" y="316.95" width="112.75" height="18" fill="#ffffff" stroke="#d8d8d8" stroke-width="0.5"/><text x="413.25" y="327.31" text-anchor="start" style="font-family:sans-serif;font-size:8px;fill:#1c1c1c">Arch.</text><rect x="72" y="334.95" width="112.75" height="18" fill="#fafafa" stroke="#d8d8d8" stroke-width="0.5"/><text x="75" y="345.31" text-anchor="start" style="font-family:sans-serif;font-size:8px;fill:#1c1c1c">Aerospace</text><rect x="184.75" y="334.95" width="112.75" height="18" fill="#fafafa" stroke="#d8d8d8" stroke-width="0.5"/><text x="187.75" y="345.31" text-anchor="start" style="font-family:sans-serif;font-size:8px;fill:#1c1c1c">Aerosp.</text><rect x="297.5" y="334.95" width="112.75" height="18" fill="#fafafa" stroke="#d8d8d8" stroke-width="0.5"/><text x="300.5" y="345.31" text-anchor="start" style="font-family:sans-serif;font-size:8px;fill:#1c1c1c">Artificial</text><rect x="410.25" y="334.95" width="112.75" height="18" fill="#fafafa" stroke="#d8d8d8" stroke-width="0.5"/><text x="413.25" y="345.31" text-anchor="start" style="font-family:sans-serif;font-size:8px;fill:#1c1c1c">Artif.</text><rect x="72" y="352.95" width="112.75" height="18" fill="#ffffff" stroke="#d8d8d8" stroke-width="0.5"/><text x="75" y="363.31" text-anchor="start" style="font-family:sans-serif;font-size:8px;fill:#1c1c1c">American</text><rect x="184.75" y="352.95" width="112.75" height="18" fill="#ffffff" stroke="#d8d8d8" stroke-width="0.5"/><text x="187.75" y="363.31" text-anchor="start" style="font-family:sans-serif;font-size:8px;fill:#1c1c1c">Amer.</text><rect x="297.5" y="352.95" width="112.75" height="18" fill="#ffffff" stroke="#d8d8d8" stroke-width="0.5"/><text x="300.5" y="363.31" text-anchor="start" style="font-family:sans-serif;font-size:8px;fill:#1c1c1c">Association</text><rect x="410.25" y="352.95" width="112.75" height="18" fill="#ffffff" stroke="#d8d8d8" stroke-width="0.5"/><text x="413.25" y="363.31" text-anchor="start" style="font-family:sans-serif;font-size:8px;fill:#1c1c1c">Assoc.</text><rect x="72" y="370.95" width="112.75" height="18" fill="#fafafa" stroke="#d8d8d8" stroke-width="0.5"/><text x="75" y="381.31" text-anchor="start" style="font-family:sans-serif;font-size:8px;fill:#1c1c1c">Automatic</text><rect x="184.75" y="370.95" width="112.75" height="18" fill="#fafafa" stroke="#d8d8d8" stroke-width="0.5"/><text x="187.75" y="381.31" text-anchor="start" style="font-family:sans-serif;font-size:8px;fill:#1c1c1c">Autom.</text><rect x="297.5" y="370.95" width="112.75" height="18" fill="#fafafa" stroke="#d8d8d8" stroke-width="0.5"/><text x="300.5" y="381.31" text-anchor="start" style="font-family:sans-serif;font-size:8px;fill:#1c1c1c">Astronomy</text><rect x="410.25" y="370.95" width="112.75" height="18" fill="#fafafa" stroke="#d8d8d8" stroke-width="0.5"/><text x="413.25" y="381.31" text-anchor="start" style="font-family:sans-serif;font-size:8px;fill:#1c1c1c">Astron.</text><rect x="72" y="388.95" width="112.75" height="18" fill="#ffffff" stroke="#d8d8d8" stroke-width="0.5"/><text x="75" y="399.31" text-anchor="start" style="font-family:sans-serif;font-size:8px;fill:#1c1c1c">Biomedical</text><rect x="184.75" y="388.95" width="112.75" height="18" fill="#ffffff" stroke="#d8d8d8" stroke-width="0.5"/><text x="187.75" y="399.31" text-anchor="start" style="font-family:sans-serif;font-size:8px;fill:#1c1c1c">Biomed.</text><rect x="297.5" y="388.95" width="112.75" height="18" fill="#ffffff" stroke="#d8d8d8" stroke-width="0.5"/><text x="300.5" y="399.31" text-anchor="start" style="font-family:sans-serif;font-size:8px;fill:#1c1c1c">Communications</text><rect x="410.25" y="388.95" width="112.75" height="18" fill="#ffffff" stroke="#d8d8d8" stroke-width="0.5"/><text x="413.25" y="399.31" text-anchor="start" style="font-family:sans-serif;font-size:8px;fill:#1c1c1c">Commun.</text><rect x="72" y="406.95" width="112.75" height="18" fill="#fafafa" stroke="#d8d8d8" stroke-width="0.5"/><text x="75" y="417.31" text-anchor="start" style="font-family:sans-serif;font-size:8px;fill:#1c1c1c">Computer(s)</text><rect x="184.75" y="406.95" width="112.75" height="18" fill="#fafafa" stroke="#d8d8d8" stroke-width="0.5"/><text x="187.75" y="417.31" text-anchor="start" style="font-family:sans-serif;font-size:8px;fill:#1c1c1c">Comput.</text><rect x="297.5" y="406.95" width="112.75" height="18" fill="#fafafa" stroke="#d8d8d8" stroke-width="0.5"/><text x="300.5" y="417.31" text-anchor="start" style="font-family:sans-serif;font-size:8px;fill:#1c1c1c">Department</text><rect x="410.25" y="406.95" width="112.75" height="18" fill="#fafafa" stroke="#d8d8d8" stroke-width="0.5"/><text x="413.25" y="417.31" text-anchor="start" style="font-family:sans-serif;font-size:8px;fill:#1c1c1c">Dept.</text><rect x="72" y="424.95" width="112.75" height="18" fill="#ffffff" stroke="#d8d8d8" stroke-width="0.5"/><text x="75" y="435.31" text-anchor="start" style="font-family:sans-serif;font-size:8px;fill:#1c1c1c">Conference</text><rect x="184.75" y="424.95" width="112.75" height="18" fill="#ffffff" stroke="#d8d8d8" stroke-width="0.5"/><text x="187.75" y="435.31" text-anchor="start" style="font-family:sans-serif;font-size:8px;fill:#1c1c1c">Conf.</text><rect x="297.5" y="424.95" width="112.75" height="18" fill="#ffffff" stroke="#d8d8d8" stroke-width="0.5"/><text x="300.5" y="435.31" text-anchor="start" style="font-family:sans-serif;font-size:8px;fill:#1c1c1c">Development</text><rect x="410.25" y="424.95" width="112.75" height="18" fill="#ffffff" stroke="#d8d8d8" stroke-width="0.5"/><text x="413.25" y="435.31" text-anchor="start" style="font-family:sans-serif;font-size:8px;fill:#1c1c1c">Develop.</text><rect x="72" y="442.95" width="112.75" height="18" fill="#fafafa" stroke="#d8d8d8" stroke-width="0.5"/><text x="75" y="453.31" text-anchor="start" style="font-family:sans-serif;font-size:8px;fill:#1c1c1c">Electrical</text><rect x="184.75" y="442.95" width="112.75" height="18" fill="#fafafa" stroke="#d8d8d8" stroke-width="0.5"/><text x="187.75" y="453.31" text-anchor="start" style="font-family:sans-serif;font-size:8px;fill:#1c1c1c">Elect.</text><rect x="297.5" y="442.95" width="112.75" height="18" fill="#fafafa" stroke="#d8d8d8" stroke-width="0.5"/><text x="300.5" y="453.31" text-anchor="start" style="font-family:sans-serif;font-size:8px;fill:#1c1c1c">Engineering</text><rect x="410.25" y="442.95" width="112.75" height="18" fill="#fafafa" stroke="#d8d8d8" stroke-width="0.5"/><text x="413.25" y="453.31" text-anchor="start" style="font-family:sans-serif;font-size:8px;fill:#1c1c1c">Eng.</text><rect x="72" y="460.95" width="112.75" height="18" fill="#ffffff" stroke="#d8d8d8" stroke-width="0.5"/><text x="75" y="471.31" text-anchor="start" style="font-family:sans-serif;font-size:8px;fill:#1c1c1c">Electronic</text><rect x="184.75" y="460.95" width="112.75" height="18" fill="#ffffff" stroke="#d8d8d8" stroke-width="0.5"/><text x="187.75" y="471.31" text-anchor="start" style="font-family:sans-serif;font-size:8px;fill:#1c1c1c">Electron.</text><rect x="297.5" y="460.95" width="112.75" height="18" fill="#ffffff" stroke="#d8d8d8" stroke-width="0.5"/><text x="300.5" y="471.31" text-anchor="start" style="font-family:sans-serif;font-size:8px;fill:#1c1c1c">Information</text><rect x="410.25" y="460.95" width="112.75" height="18" fill="#ffffff" stroke="#d8d8d8" stroke-width="0.5"/><text x="413.25" y="471.31" text-anchor="start" style="font-family:sans-serif;font-size:8px;fill:#1c1c1c">Inf.</text><rect x="72" y="478.95" width="112.75" height="18" fill="#fafafa" stroke="#d8d8d8" stroke-width="0.5"/><text x="75" y="489.31" text-anchor="start" style="font-family:sans-serif;font-size:8px;fill:#1c1c1c">International</text><rect x="184.75" y="478.95" width="112.75" height="18" fill="#fafafa" stroke="#d8d8d8" stroke-width="0.5"/><text x="187.75" y="489.31" text-anchor="start" style="font-family:sans-serif;font-size:8px;fill:#1c1c1c">Int.</text><rect x="297.5" y="478.95" width="112.75" height="18" fill="#fafafa" stroke="#d8d8d8" stroke-width="0.5"/><text x="300.5" y="489.31" text-anchor="start" style="font-family:sans-serif;font-size:8px;fill:#1c1c1c">Journal</text><rect x="410.25" y="478.95" width="112.75" height="18" fill="#fafafa" stroke="#d8d8d8" stroke-width="0.5"/><text x="413.25" y="489.31" text-anchor="start" style="font-family:sans-serif;font-size:8px;fill:#1c1c1c">J.</text><rect x="72" y="496.95" width="112.75" height="18" fill="#ffffff" stroke="#d8d8d8" stroke-width="0.5"/><text x="75" y="507.31" text-anchor="start" style="font-family:sans-serif;font-size:8px;fill:#1c1c1c">Mathematics</text><rect x="184.75" y="496.95" width="112.75" height="18" fill="#ffffff" stroke="#d8d8d8" stroke-width="0.5"/><text x="187.75" y="507.31" text-anchor="start" style="font-family:sans-serif;font-size:8px;fill:#1c1c1c">Math.</text><rect x="297.5" y="496.95" width="112.75" height="18" fill="#ffffff" stroke="#d8d8d8" stroke-width="0.5"/><text x="300.5" y="507.31" text-anchor="start" style="font-family:sans-serif;font-size:8px;fill:#1c1c1c">Measurement</text><rect x="410.25" y="496.95" width="112.75" height="18" fill="#ffffff" stroke="#d8d8d8" stroke-width="0.5"/><text x="413.25" y="507.31" text-anchor="start" style="font-family:sans-serif;font-size:8px;fill:#1c1c1c">Meas.</text><rect x="72" y="514.95" width="112.75" height="18" fill="#fafafa" stroke="#d8d8d8" stroke-width="0.5"/><text x="75" y="525.31" text-anchor="start" style="font-family:sans-serif;font-size:8px;fill:#1c1c1c">Proceedings</text><rect x="184.75" y="514.95" width="112.75" height="18" fill="#fafafa" stroke="#d8d8d8" stroke-width="0.5"/><text x="187.75" y="525.31" text-anchor="start" style="font-family:sans-serif;font-size:8px;fill:#1c1c1c">Proc.</text><rect x="297.5" y="514.95" width="112.75" height="18" fill="#fafafa" stroke="#d8d8d8" stroke-width="0.5"/><text x="300.5" y="525.31" text-anchor="start" style="font-family:sans-serif;font-size:8px;fill:#1c1c1c">Record</text><rect x="410.25" y="514.95" width="112.75" height="18" fill="#fafafa" stroke="#d8d8d8" stroke-width="0.5"/><text x="413.25" y="525.31" text-anchor="start" style="font-family:sans-serif;font-size:8px;fill:#1c1c1c">Rec.</text><rect x="72" y="532.95" width="112.75" height="18" fill="#ffffff" stroke="#d8d8d8" stroke-width="0.5"/><text x="75" y="543.31" text-anchor="start" style="font-family:sans-serif;font-size:8px;fill:#1c1c1c">Symposium</text><rect x="184.75" y="532.95" width="112.75" height="18" fill="#ffffff" stroke="#d8d8d8" stroke-width="0.5"/><text x="187.75" y="543.31" text-anchor="start" style="font-family:sans-serif;font-size:8px;fill:#1c1c1c">Symp.</text><rect x="297.5" y="532.95" width="112.75" height="18" fill="#ffffff" stroke="#d8d8d8" stroke-width="0.5"/><text x="300.5" y="543.31" text-anchor="start" style="font-family:sans-serif;font-size:8px;fill:#1c1c1c">Systems</text><rect x="410.25" y="532.95" width="112.75" height="18" fill="#ffffff" stroke="#d8d8d8" stroke-width="0.5"/><text x="413.25" y="543.31" text-anchor="start" style="font-family:sans-serif;font-size:8px;fill:#1c1c1c">Syst.</text><rect x="72" y="550.95" width="112.75" height="18" fill="#fafafa" stroke="#d8d8d8" stroke-width="0.5"/><text x="75" y="561.31" text-anchor="start" style="font-family:sans-serif;font-size:8px;fill:#1c1c1c">Technology</text><rect x="184.75" y="550.95" width="112.75" height="18" fill="#fafafa" stroke="#d8d8d8" stroke-width="0.5"/><text x="187.75" y="561.31" text-anchor="start" style="font-family:sans-serif;font-size:8px;fill:#1c1c1c">Technol.</text><rect x="297.5" y="550.95" width="112.75" height="18" fill="#fafafa" stroke="#d8d8d8" stroke-width="0.5"/><text x="300.5" y="561.31" text-anchor="start" style="font-family:sans-serif;font-size:8px;fill:#1c1c1c">Transactions</text><rect x="410.25" y="550.95" width="112.75" height="18" fill="#fafafa" stroke="#d8d8d8" stroke-width="0.5"/><text x="413.25" y="561.31" text-anchor="start" style="font-family:sans-serif;font-size:8px;fill:#1c1c1c">Trans.</text><text x="81.5" y="587.69" text-anchor="start" style="font-family:serif;font-size:9.5px;fill:#5a5a5a;font-style:italic">Scope note. The full word list, the List of Publishers (§B), and the Abbreviations of</text><text x="72" y="600.04" text-anchor="start" style="font-family:serif;font-size:9.5px;fill:#5a5a5a;font-style:italic">Periodicals With Non-English Titles (§C) continue in the same tabular form across pp. 21–43</text><text x="72" y="612.39" text-anchor="start" style="font-family:serif;font-size:9.5px;fill:#5a5a5a;font-style:italic">of the source.</text><text y="63" text-anchor="start" dominant-baseline="central" style="font-family:serif;font-size:8.5px;fill:#5a5a5a"><tspan x="72">IV. Useful Abbreviations in References</tspan></text><text y="63" text-anchor="end" dominant-baseline="central" style="font-family:serif;font-size:8.5px;fill:#5a5a5a"><tspan x="523">5</tspan></text></svg>
