<svg xmlns="http://www.w3.org/2000/svg" viewBox="0 0 920 430" font-family="ui-monospace,'SF Mono',Menlo,monospace">
  <rect x="0" y="0" width="920" height="430" fill="#F5F7F7"/>
  <text x="40" y="40" font-size="11" letter-spacing="2.4" fill="#084A50" font-weight="700">DIAGRAM C · DECISION MATRIX</text>
  <text x="40" y="58" font-size="10.5" fill="#6B7A82">scored on the §1 axes — the row shape is the trade-off</text>

  <!-- column headers -->
  <g font-size="10" fill="#3A4852" text-anchor="middle" font-weight="600">
    <text x="238" y="96">Detection</text><text x="238" y="109">reliability</text>
    <text x="338" y="96">False-pos</text><text x="338" y="109">safety</text>
    <text x="438" y="96">Deter-</text><text x="438" y="109">minism</text>
    <text x="538" y="96">Enforce-</text><text x="538" y="109">ment</text>
    <text x="638" y="96">Impl</text><text x="638" y="109">(low=good)</text>
    <text x="738" y="96">De-</text><text x="738" y="109">coupling</text>
    <text x="838" y="96">Authoring</text><text x="838" y="109">guidance</text>
  </g>
  <line x1="40" y1="120" x2="888" y2="120" stroke="#CBD5D8"/>

  <!-- row labels -->
  <g font-size="11.5" fill="#14202A" font-weight="700">
    <text x="44" y="149">O1 · advisory+fix</text>
    <text x="44" y="195">O2 · hard/ctr</text>
    <text x="44" y="241">O3 · authoring</text>
    <text x="44" y="287">O4 · two-mode</text>
    <text x="44" y="333">O7 · metrics</text>
  </g>

  <!-- cells: helper rects. good=#DCEBE2/#2C7A56/#8FBCA4  warn=#F1E6C9/#9E6D07/#CFAE63  crit=#F1DAD6/#B23A2E/#D69A91 -->
  <g font-size="9.5" text-anchor="middle" font-weight="700">
    <!-- ROW O1 y=126..162 baseline 149 -->
    <rect x="191" y="126" width="94" height="38" rx="2" fill="#DCEBE2" stroke="#8FBCA4"/><text x="238" y="150" fill="#2C7A56">strong</text>
    <rect x="291" y="126" width="94" height="38" rx="2" fill="#DCEBE2" stroke="#8FBCA4"/><text x="338" y="150" fill="#2C7A56">safe</text>
    <rect x="391" y="126" width="94" height="38" rx="2" fill="#F1E6C9" stroke="#CFAE63"/><text x="438" y="150" fill="#9E6D07">n/a · adv</text>
    <rect x="491" y="126" width="94" height="38" rx="2" fill="#F1DAD6" stroke="#D69A91"/><text x="538" y="150" fill="#B23A2E">advisory</text>
    <rect x="591" y="126" width="94" height="38" rx="2" fill="#F1E6C9" stroke="#CFAE63"/><text x="638" y="150" fill="#9E6D07">M</text>
    <rect x="691" y="126" width="94" height="38" rx="2" fill="#DCEBE2" stroke="#8FBCA4"/><text x="738" y="150" fill="#2C7A56">clean</text>
    <rect x="791" y="126" width="94" height="38" rx="2" fill="#F1E6C9" stroke="#CFAE63"/><text x="838" y="150" fill="#9E6D07">partial</text>

    <!-- ROW O2 y=172 baseline 195 -->
    <rect x="191" y="172" width="94" height="38" rx="2" fill="#DCEBE2" stroke="#8FBCA4"/><text x="238" y="196" fill="#2C7A56">strong</text>
    <rect x="291" y="172" width="94" height="38" rx="2" fill="#F1E6C9" stroke="#CFAE63"/><text x="338" y="196" fill="#9E6D07">font drift</text>
    <rect x="391" y="172" width="94" height="38" rx="2" fill="#F1E6C9" stroke="#CFAE63"/><text x="438" y="196" fill="#9E6D07">image only</text>
    <rect x="491" y="172" width="94" height="38" rx="2" fill="#DCEBE2" stroke="#8FBCA4"/><text x="538" y="196" fill="#2C7A56">hard</text>
    <rect x="591" y="172" width="94" height="38" rx="2" fill="#F1E6C9" stroke="#CFAE63"/><text x="638" y="196" fill="#9E6D07">M</text>
    <rect x="691" y="172" width="94" height="38" rx="2" fill="#F1DAD6" stroke="#D69A91"/><text x="738" y="196" fill="#B23A2E">Docker</text>
    <rect x="791" y="172" width="94" height="38" rx="2" fill="#F1E6C9" stroke="#CFAE63"/><text x="838" y="196" fill="#9E6D07">partial</text>

    <!-- ROW O3 y=218 baseline 241 -->
    <rect x="191" y="218" width="94" height="38" rx="2" fill="#F1E6C9" stroke="#CFAE63"/><text x="238" y="242" fill="#9E6D07">table only</text>
    <rect x="291" y="218" width="94" height="38" rx="2" fill="#F1E6C9" stroke="#CFAE63"/><text x="338" y="242" fill="#9E6D07">over-nudge</text>
    <rect x="391" y="218" width="94" height="38" rx="2" fill="#DCEBE2" stroke="#8FBCA4"/><text x="438" y="242" fill="#2C7A56">exact</text>
    <rect x="491" y="218" width="94" height="38" rx="2" fill="#DCEBE2" stroke="#8FBCA4"/><text x="538" y="242" fill="#2C7A56">hard</text>
    <rect x="591" y="218" width="94" height="38" rx="2" fill="#DCEBE2" stroke="#8FBCA4"/><text x="638" y="242" fill="#2C7A56">S</text>
    <rect x="691" y="218" width="94" height="38" rx="2" fill="#DCEBE2" stroke="#8FBCA4"/><text x="738" y="242" fill="#2C7A56">clean</text>
    <rect x="791" y="218" width="94" height="38" rx="2" fill="#DCEBE2" stroke="#8FBCA4"/><text x="838" y="242" fill="#2C7A56">teaches</text>

    <!-- ROW O4 y=264 baseline 287 -->
    <rect x="191" y="264" width="94" height="38" rx="2" fill="#DCEBE2" stroke="#8FBCA4"/><text x="238" y="288" fill="#2C7A56">strong</text>
    <rect x="291" y="264" width="94" height="38" rx="2" fill="#DCEBE2" stroke="#8FBCA4"/><text x="338" y="288" fill="#2C7A56">safe</text>
    <rect x="391" y="264" width="94" height="38" rx="2" fill="#DCEBE2" stroke="#8FBCA4"/><text x="438" y="288" fill="#2C7A56">hard tier</text>
    <rect x="491" y="264" width="94" height="38" rx="2" fill="#F1E6C9" stroke="#CFAE63"/><text x="538" y="288" fill="#9E6D07">split tier</text>
    <rect x="591" y="264" width="94" height="38" rx="2" fill="#F1DAD6" stroke="#D69A91"/><text x="638" y="288" fill="#B23A2E">L</text>
    <rect x="691" y="264" width="94" height="38" rx="2" fill="#DCEBE2" stroke="#8FBCA4"/><text x="738" y="288" fill="#2C7A56">clean</text>
    <rect x="791" y="264" width="94" height="38" rx="2" fill="#F1E6C9" stroke="#CFAE63"/><text x="838" y="288" fill="#9E6D07">partial</text>

    <!-- ROW O7 y=310 baseline 333 -->
    <rect x="191" y="310" width="94" height="38" rx="2" fill="#DCEBE2" stroke="#8FBCA4"/><text x="238" y="334" fill="#2C7A56">strong</text>
    <rect x="291" y="310" width="94" height="38" rx="2" fill="#F1E6C9" stroke="#CFAE63"/><text x="338" y="334" fill="#9E6D07">stale table</text>
    <rect x="391" y="310" width="94" height="38" rx="2" fill="#DCEBE2" stroke="#8FBCA4"/><text x="438" y="334" fill="#2C7A56">once vetted</text>
    <rect x="491" y="310" width="94" height="38" rx="2" fill="#DCEBE2" stroke="#8FBCA4"/><text x="538" y="334" fill="#2C7A56">hard</text>
    <rect x="591" y="310" width="94" height="38" rx="2" fill="#F1DAD6" stroke="#D69A91"/><text x="638" y="334" fill="#B23A2E">L</text>
    <rect x="691" y="310" width="94" height="38" rx="2" fill="#DCEBE2" stroke="#8FBCA4"/><text x="738" y="334" fill="#2C7A56">clean</text>
    <rect x="791" y="310" width="94" height="38" rx="2" fill="#F1E6C9" stroke="#CFAE63"/><text x="838" y="334" fill="#9E6D07">partial</text>
  </g>

  <!-- legend -->
  <g font-size="10.5" fill="#3A4852">
    <rect x="40" y="376" width="16" height="14" rx="2" fill="#DCEBE2" stroke="#8FBCA4"/><text x="62" y="387">strong / good</text>
    <rect x="190" y="376" width="16" height="14" rx="2" fill="#F1E6C9" stroke="#CFAE63"/><text x="212" y="387">partial / caveat</text>
    <rect x="360" y="376" width="16" height="14" rx="2" fill="#F1DAD6" stroke="#D69A91"/><text x="382" y="387">weak / cost</text>
  </g>
</svg>
