<svg xmlns="http://www.w3.org/2000/svg" viewBox="0 0 920 540" font-family="ui-monospace,'SF Mono',Menlo,monospace">
  <defs>
    <marker id="mg" markerWidth="9" markerHeight="9" refX="7" refY="4.5" orient="auto"><path d="M0,0 L8,4.5 L0,9 z" fill="#2C7A56"/></marker>
    <marker id="mr" markerWidth="9" markerHeight="9" refX="7" refY="4.5" orient="auto"><path d="M0,0 L8,4.5 L0,9 z" fill="#B23A2E"/></marker>
    <marker id="ma" markerWidth="9" markerHeight="9" refX="7" refY="4.5" orient="auto"><path d="M0,0 L8,4.5 L0,9 z" fill="#9E6D07"/></marker>
  </defs>
  <rect x="0" y="0" width="920" height="540" fill="#F5F7F7"/>
  <text x="40" y="46" font-size="11" letter-spacing="2.4" fill="#084A50" font-weight="700">DIAGRAM B · DOWNSTREAM CONSEQUENCES</text>
  <line x1="40" y1="60" x2="880" y2="60" stroke="#CBD5D8"/>
  <text x="60" y="84" font-size="10" letter-spacing="1.5" fill="#6B7A82">PATHS</text>
  <text x="610" y="84" font-size="10" letter-spacing="1.5" fill="#6B7A82">DOWNSTREAM EFFECT</text>

  <!-- edges -->
  <g fill="none">
    <path d="M190,142 C400,142 400,107 606,107" stroke="#2C7A56" stroke-width="2" marker-end="url(#mg)"/>
    <path d="M190,142 C400,142 400,159 606,159" stroke="#9E6D07" stroke-width="1.6" stroke-dasharray="2 4" marker-end="url(#ma)"/>
    <path d="M190,230 C400,230 400,159 606,159" stroke="#2C7A56" stroke-width="2" marker-end="url(#mg)"/>
    <path d="M190,230 C400,230 400,263 606,263" stroke="#B23A2E" stroke-width="1.8" stroke-dasharray="6 4" marker-end="url(#mr)"/>
    <path d="M190,230 C400,230 400,315 606,315" stroke="#B23A2E" stroke-width="1.8" stroke-dasharray="6 4" marker-end="url(#mr)"/>
    <path d="M190,320 C400,320 400,211 606,211" stroke="#2C7A56" stroke-width="2" marker-end="url(#mg)"/>
    <path d="M190,320 C400,320 400,159 606,159" stroke="#2C7A56" stroke-width="2" marker-end="url(#mg)"/>
    <path d="M190,410 C400,410 400,367 606,367" stroke="#2C7A56" stroke-width="2" marker-end="url(#mg)"/>
    <path d="M190,410 C400,410 400,419 606,419" stroke="#2C7A56" stroke-width="2" marker-end="url(#mg)"/>
    <path d="M190,410 C400,410 400,471 606,471" stroke="#9E6D07" stroke-width="1.6" stroke-dasharray="2 4" marker-end="url(#ma)"/>
  </g>

  <!-- option nodes -->
  <g>
    <rect x="60" y="122" width="130" height="40" rx="3" fill="#E4F0F0" stroke="#0B6C75" stroke-width="2.2"/>
    <text x="125" y="147" text-anchor="middle" font-size="12.5" fill="#14202A" font-weight="700">O1 advisory</text>
    <rect x="60" y="210" width="130" height="40" rx="3" fill="#EEF1F2" stroke="#B23A2E" stroke-dasharray="5 4"/>
    <text x="125" y="235" text-anchor="middle" font-size="12.5" fill="#14202A" font-weight="700">O2 hard/ctr</text>
    <rect x="60" y="300" width="130" height="40" rx="3" fill="#DCEBE2" stroke="#2C7A56"/>
    <text x="125" y="325" text-anchor="middle" font-size="12.5" fill="#14202A" font-weight="700">O3 authoring</text>
    <rect x="60" y="390" width="130" height="40" rx="3" fill="#EEF1F2" stroke="#0B6C75" stroke-width="2.6"/>
    <text x="125" y="415" text-anchor="middle" font-size="12.5" fill="#14202A" font-weight="700">O7 metrics</text>
  </g>

  <!-- consequence nodes -->
  <g font-size="11.5" fill="#14202A">
    <rect x="606" y="90" width="272" height="34" rx="3" fill="#DCEBE2" stroke="#8FBCA4"/>
    <text x="620" y="111">class visibility, now</text>
    <rect x="606" y="142" width="272" height="34" rx="3" fill="#F1F4F0" stroke="#CBD5D8"/>
    <text x="620" y="163">enforcement strength</text>
    <rect x="606" y="194" width="272" height="34" rx="3" fill="#DCEBE2" stroke="#8FBCA4"/>
    <text x="620" y="215">TableObject adoption</text>
    <rect x="606" y="246" width="272" height="34" rx="3" fill="#F1DAD6" stroke="#D69A91"/>
    <text x="620" y="267">local vs CI parity</text>
    <rect x="606" y="298" width="272" height="34" rx="3" fill="#F1DAD6" stroke="#D69A91"/>
    <text x="620" y="319">Docker-free dev loop</text>
    <rect x="606" y="350" width="272" height="34" rx="3" fill="#DCEBE2" stroke="#8FBCA4"/>
    <text x="620" y="371">off-Docker enforcement</text>
    <rect x="606" y="402" width="272" height="34" rx="3" fill="#DCEBE2" stroke="#8FBCA4"/>
    <text x="620" y="423">estimate/real blind spot gone</text>
    <rect x="606" y="454" width="272" height="34" rx="3" fill="#F1E6C9" stroke="#CFAE63"/>
    <text x="620" y="475">vetted-metrics upkeep</text>
  </g>

  <!-- legend -->
  <g font-size="10.5" fill="#3A4852">
    <line x1="40" y1="512" x2="70" y2="512" stroke="#2C7A56" stroke-width="2.5"/>
    <text x="78" y="516">enables</text>
    <line x1="170" y1="512" x2="200" y2="512" stroke="#9E6D07" stroke-width="2" stroke-dasharray="2 4"/>
    <text x="208" y="516">degrades</text>
    <line x1="310" y1="512" x2="340" y2="512" stroke="#B23A2E" stroke-width="2" stroke-dasharray="6 4"/>
    <text x="348" y="516">blocks</text>
  </g>
</svg>
