<?xml version="1.0" encoding="UTF-8" standalone="no"?>
<!-- Created with Inkscape (http://www.inkscape.org/) -->
<svg xmlns:inkscape="http://www.inkscape.org/namespaces/inkscape" xmlns:rdf="http://www.w3.org/1999/02/22-rdf-syntax-ns#" xmlns="http://www.w3.org/2000/svg" xmlns:xlink="http://www.w3.org/1999/xlink" xmlns:ns1="http://sozi.baierouge.fr" xmlns:cc="http://creativecommons.org/ns#" xmlns:sodipodi="http://sodipodi.sourceforge.net/DTD/sodipodi-0.dtd" xmlns:dc="http://purl.org/dc/elements/1.1/" id="svg2" xml:space="preserve" viewBox="0 0 42.554 30.768" version="1.1" inkscape:version="0.91 r13725">
  <defs id="defs6">
    <clipPath id="clipPath36">
      <path id="path38" d="m3 15.614h29v9h-29v-9z" inkscape:connector-curvature="0"/>
    </clipPath>
    <mask id="mask40">
      <g id="g42">
        <g id="g44" clip-path="url(#clipPath36)">
          <path id="path46" style="fill:#000000;fill-opacity:.80080" d="m3 15.614h29v9h-29v-9z" inkscape:connector-curvature="0"/>
        </g>
      </g>
    </mask>
    <clipPath id="clipPath52">
      <path id="path54" d="m3 15.614h29v9h-29v-9z" inkscape:connector-curvature="0"/>
    </clipPath>
    <clipPath id="clipPath56">
      <path id="path58" d="m3 16h29v9h-29v-9z" inkscape:connector-curvature="0"/>
    </clipPath>
    <linearGradient id="linearGradient64" y2="-7994.9" gradientUnits="userSpaceOnUse" x2="-3352.7" gradientTransform="matrix(.57336 -.55792 .55792 .57336 6410 2724.2)" y1="-7994.9" x1="-3377.2">
      <stop id="stop66" style="stop-color:#7a7930" offset="0"/>
      <stop id="stop68" style="stop-color:#605b29" offset=".3294"/>
      <stop id="stop70" style="stop-color:#433920" offset=".7647"/>
      <stop id="stop72" style="stop-color:#382c1d" offset="1"/>
    </linearGradient>
    <linearGradient id="linearGradient420" y2="17.831" gradientUnits="userSpaceOnUse" x2="10.075" gradientTransform="matrix(.8 0 0 -.8 0 25.014)" y1="10.256" x1="8.0752">
      <stop id="stop422" style="stop-color:#c9c869" offset="0"/>
      <stop id="stop424" style="stop-color:#c5c467" offset=".0235"/>
      <stop id="stop426" style="stop-color:#79723f" offset=".498"/>
      <stop id="stop428" style="stop-color:#4a3f26" offset=".83530"/>
      <stop id="stop430" style="stop-color:#382c1d" offset="1"/>
    </linearGradient>
    <linearGradient id="linearGradient444" y2="18.743" gradientUnits="userSpaceOnUse" x2="9.1156" gradientTransform="matrix(.8 0 0 -.8 0 25.014)" y1="7.0679" x1="6.0156">
      <stop id="stop446" style="stop-color:#c9c869" offset="0"/>
      <stop id="stop448" style="stop-color:#c5c467" offset=".0235"/>
      <stop id="stop450" style="stop-color:#79723f" offset=".498"/>
      <stop id="stop452" style="stop-color:#4a3f26" offset=".83530"/>
      <stop id="stop454" style="stop-color:#382c1d" offset="1"/>
    </linearGradient>
    <linearGradient id="linearGradient468" y2="18.646" gradientUnits="userSpaceOnUse" x2="8.559" gradientTransform="matrix(.8 0 0 -.8 0 25.014)" y1="10.821" x1="6.459">
      <stop id="stop470" style="stop-color:#c9c869" offset="0"/>
      <stop id="stop472" style="stop-color:#c5c467" offset=".0235"/>
      <stop id="stop474" style="stop-color:#79723f" offset=".498"/>
      <stop id="stop476" style="stop-color:#4a3f26" offset=".83530"/>
      <stop id="stop478" style="stop-color:#382c1d" offset="1"/>
    </linearGradient>
    <linearGradient id="linearGradient492" y2="18.348" gradientUnits="userSpaceOnUse" x2="8.7273" gradientTransform="matrix(.8 0 0 -.8 0 25.014)" y1="8.8975" x1="3.2773">
      <stop id="stop494" style="stop-color:#c9c869" offset="0"/>
      <stop id="stop496" style="stop-color:#c5c467" offset=".0235"/>
      <stop id="stop498" style="stop-color:#79723f" offset=".498"/>
      <stop id="stop500" style="stop-color:#4a3f26" offset=".83530"/>
      <stop id="stop502" style="stop-color:#382c1d" offset="1"/>
    </linearGradient>
    <linearGradient id="linearGradient516" y2="19.06" gradientUnits="userSpaceOnUse" x2="7.3827" gradientTransform="matrix(.8 0 0 -.8 0 25.014)" y1="12.11" x1="5.5327">
      <stop id="stop518" style="stop-color:#c9c869" offset="0"/>
      <stop id="stop520" style="stop-color:#c5c467" offset=".0235"/>
      <stop id="stop522" style="stop-color:#79723f" offset=".498"/>
      <stop id="stop524" style="stop-color:#4a3f26" offset=".83530"/>
      <stop id="stop526" style="stop-color:#382c1d" offset="1"/>
    </linearGradient>
    <linearGradient id="linearGradient540" y2="20.187" gradientUnits="userSpaceOnUse" x2="3.9209" gradientTransform="matrix(.8 0 0 -.8 0 25.014)" y1="15.212" x1="3.9209">
      <stop id="stop542" style="stop-color:#c9c869" offset="0"/>
      <stop id="stop544" style="stop-color:#c5c467" offset=".0235"/>
      <stop id="stop546" style="stop-color:#79723f" offset=".498"/>
      <stop id="stop548" style="stop-color:#4a3f26" offset=".83530"/>
      <stop id="stop550" style="stop-color:#382c1d" offset="1"/>
    </linearGradient>
    <linearGradient id="linearGradient564" y2="20.799" gradientUnits="userSpaceOnUse" x2="3.6974" gradientTransform="matrix(.8 0 0 -.8 0 25.014)" y1="13.149" x1="2.5474">
      <stop id="stop566" style="stop-color:#c9c869" offset="0"/>
      <stop id="stop568" style="stop-color:#c5c467" offset=".0235"/>
      <stop id="stop570" style="stop-color:#79723f" offset=".498"/>
      <stop id="stop572" style="stop-color:#4a3f26" offset=".83530"/>
      <stop id="stop574" style="stop-color:#382c1d" offset="1"/>
    </linearGradient>
    <linearGradient id="linearGradient588" y2="17.108" gradientUnits="userSpaceOnUse" x2="10.094" gradientTransform="matrix(.8 0 0 -.8 0 25.014)" y1="12.083" x1="8.7437">
      <stop id="stop590" style="stop-color:#c9c869" offset="0"/>
      <stop id="stop592" style="stop-color:#c5c467" offset=".0235"/>
      <stop id="stop594" style="stop-color:#79723f" offset=".498"/>
      <stop id="stop596" style="stop-color:#4a3f26" offset=".83530"/>
      <stop id="stop598" style="stop-color:#382c1d" offset="1"/>
    </linearGradient>
    <linearGradient id="linearGradient612" y2="21.527" gradientUnits="userSpaceOnUse" x2="2.071" gradientTransform="matrix(.8 0 0 -.8 0 25.014)" y1="14.777" x1=".271">
      <stop id="stop614" style="stop-color:#c9c869" offset="0"/>
      <stop id="stop616" style="stop-color:#c5c467" offset=".0235"/>
      <stop id="stop618" style="stop-color:#79723f" offset=".498"/>
      <stop id="stop620" style="stop-color:#4a3f26" offset=".83530"/>
      <stop id="stop622" style="stop-color:#382c1d" offset="1"/>
    </linearGradient>
    <linearGradient id="linearGradient636" y2="18.663" gradientUnits="userSpaceOnUse" x2="7.125" gradientTransform="matrix(.8 0 0 -.8 0 25.014)" y1="14.038" x1="7.125">
      <stop id="stop638" style="stop-color:#c9c869" offset="0"/>
      <stop id="stop640" style="stop-color:#c5c467" offset=".0235"/>
      <stop id="stop642" style="stop-color:#79723f" offset=".498"/>
      <stop id="stop644" style="stop-color:#4a3f26" offset=".83530"/>
      <stop id="stop646" style="stop-color:#382c1d" offset="1"/>
    </linearGradient>
    <linearGradient id="linearGradient660" y2="21.518" gradientUnits="userSpaceOnUse" x2="1.6647" gradientTransform="matrix(.8 0 0 -.8 0 25.014)" y1="17.068" x1=".48970">
      <stop id="stop662" style="stop-color:#c9c869" offset="0"/>
      <stop id="stop664" style="stop-color:#c5c467" offset=".0235"/>
      <stop id="stop666" style="stop-color:#79723f" offset=".498"/>
      <stop id="stop668" style="stop-color:#4a3f26" offset=".83530"/>
      <stop id="stop670" style="stop-color:#382c1d" offset="1"/>
    </linearGradient>
    <linearGradient id="linearGradient684" y2="12.154" gradientUnits="userSpaceOnUse" x2="38.502" gradientTransform="matrix(.8 0 0 -.8 0 25.014)" y1="5.3789" x1="42.427">
      <stop id="stop686" style="stop-color:#c9c869" offset="0"/>
      <stop id="stop688" style="stop-color:#c5c467" offset=".0235"/>
      <stop id="stop690" style="stop-color:#79723f" offset=".498"/>
      <stop id="stop692" style="stop-color:#4a3f26" offset=".83530"/>
      <stop id="stop694" style="stop-color:#382c1d" offset="1"/>
    </linearGradient>
    <linearGradient id="linearGradient708" y2="12.941" gradientUnits="userSpaceOnUse" x2="38.145" gradientTransform="matrix(.8 0 0 -.8 0 25.014)" y1="1.2798" x1="41.248">
      <stop id="stop710" style="stop-color:#c9c869" offset="0"/>
      <stop id="stop712" style="stop-color:#c5c467" offset=".0235"/>
      <stop id="stop714" style="stop-color:#79723f" offset=".498"/>
      <stop id="stop716" style="stop-color:#4a3f26" offset=".83530"/>
      <stop id="stop718" style="stop-color:#382c1d" offset="1"/>
    </linearGradient>
    <linearGradient id="linearGradient732" y2="12.737" gradientUnits="userSpaceOnUse" x2="37.847" gradientTransform="matrix(.8 0 0 -.8 0 25.014)" y1="4.8867" x1="39.922">
      <stop id="stop734" style="stop-color:#c9c869" offset="0"/>
      <stop id="stop736" style="stop-color:#c5c467" offset=".0235"/>
      <stop id="stop738" style="stop-color:#79723f" offset=".498"/>
      <stop id="stop740" style="stop-color:#4a3f26" offset=".83530"/>
      <stop id="stop742" style="stop-color:#382c1d" offset="1"/>
    </linearGradient>
    <linearGradient id="linearGradient756" y2="12.557" gradientUnits="userSpaceOnUse" x2="37.804" gradientTransform="matrix(.8 0 0 -.8 0 25.014)" y1="1.6494" x1="37.829">
      <stop id="stop758" style="stop-color:#c9c869" offset="0"/>
      <stop id="stop760" style="stop-color:#c5c467" offset=".0235"/>
      <stop id="stop762" style="stop-color:#79723f" offset=".498"/>
      <stop id="stop764" style="stop-color:#4a3f26" offset=".83530"/>
      <stop id="stop766" style="stop-color:#382c1d" offset="1"/>
    </linearGradient>
    <linearGradient id="linearGradient780" y2="12.688" gradientUnits="userSpaceOnUse" x2="37.214" gradientTransform="matrix(.8 0 0 -.8 0 25.014)" y1="5.5127" x1="37.214">
      <stop id="stop782" style="stop-color:#c9c869" offset="0"/>
      <stop id="stop784" style="stop-color:#c5c467" offset=".0235"/>
      <stop id="stop786" style="stop-color:#79723f" offset=".498"/>
      <stop id="stop788" style="stop-color:#4a3f26" offset=".83530"/>
      <stop id="stop790" style="stop-color:#382c1d" offset="1"/>
    </linearGradient>
    <linearGradient id="linearGradient804" y2="18.149" gradientUnits="userSpaceOnUse" x2="29.477" gradientTransform="matrix(.8 0 0 -.8 0 25.014)" y1="13.824" x1="31.977">
      <stop id="stop806" style="stop-color:#c9c869" offset="0"/>
      <stop id="stop808" style="stop-color:#c5c467" offset=".0235"/>
      <stop id="stop810" style="stop-color:#79723f" offset=".498"/>
      <stop id="stop812" style="stop-color:#4a3f26" offset=".83530"/>
      <stop id="stop814" style="stop-color:#382c1d" offset="1"/>
    </linearGradient>
    <linearGradient id="linearGradient828" y2="18.386" gradientUnits="userSpaceOnUse" x2="28.49" gradientTransform="matrix(.8 0 0 -.8 0 25.014)" y1="11.456" x1="32.457">
      <stop id="stop830" style="stop-color:#c9c869" offset="0"/>
      <stop id="stop832" style="stop-color:#c5c467" offset=".0235"/>
      <stop id="stop834" style="stop-color:#79723f" offset=".498"/>
      <stop id="stop836" style="stop-color:#4a3f26" offset=".83530"/>
      <stop id="stop838" style="stop-color:#382c1d" offset="1"/>
    </linearGradient>
    <linearGradient id="linearGradient852" y2="18.617" gradientUnits="userSpaceOnUse" x2="36.435" gradientTransform="matrix(.8 0 0 -.8 0 25.014)" y1="13.592" x1="37.785">
      <stop id="stop854" style="stop-color:#c9c869" offset="0"/>
      <stop id="stop856" style="stop-color:#c5c467" offset=".0235"/>
      <stop id="stop858" style="stop-color:#79723f" offset=".498"/>
      <stop id="stop860" style="stop-color:#4a3f26" offset=".83530"/>
      <stop id="stop862" style="stop-color:#382c1d" offset="1"/>
    </linearGradient>
    <linearGradient id="linearGradient876" y2="17.856" gradientUnits="userSpaceOnUse" x2="26.378" gradientTransform="matrix(.8 0 0 -.8 0 25.014)" y1="11.806" x1="29.853">
      <stop id="stop878" style="stop-color:#c9c869" offset="0"/>
      <stop id="stop880" style="stop-color:#c5c467" offset=".0235"/>
      <stop id="stop882" style="stop-color:#79723f" offset=".498"/>
      <stop id="stop884" style="stop-color:#4a3f26" offset=".83530"/>
      <stop id="stop886" style="stop-color:#382c1d" offset="1"/>
    </linearGradient>
    <linearGradient id="linearGradient900" y2="18.43" gradientUnits="userSpaceOnUse" x2="33.087" gradientTransform="matrix(.8 0 0 -.8 0 25.014)" y1="14.455" x1="35.387">
      <stop id="stop902" style="stop-color:#c9c869" offset="0"/>
      <stop id="stop904" style="stop-color:#c5c467" offset=".0235"/>
      <stop id="stop906" style="stop-color:#79723f" offset=".498"/>
      <stop id="stop908" style="stop-color:#4a3f26" offset=".83530"/>
      <stop id="stop910" style="stop-color:#382c1d" offset="1"/>
    </linearGradient>
    <linearGradient id="linearGradient924" y2="18.045" gradientUnits="userSpaceOnUse" x2="26.966" gradientTransform="matrix(.8 0 0 -.8 0 25.014)" y1="13.595" x1="28.166">
      <stop id="stop926" style="stop-color:#c9c869" offset="0"/>
      <stop id="stop928" style="stop-color:#c5c467" offset=".0235"/>
      <stop id="stop930" style="stop-color:#79723f" offset=".498"/>
      <stop id="stop932" style="stop-color:#4a3f26" offset=".83530"/>
      <stop id="stop934" style="stop-color:#382c1d" offset="1"/>
    </linearGradient>
  </defs>
  <g id="g10" transform="matrix(1.25 0 0 -1.25 0 30.768)">
    <g id="g12">
      <path id="path14" style="fill-rule:evenodd;fill:#524c27" d="m32.078 17.493c0.828-1.945 1.348-3.359 1.563-4.238 0.293-1.148 0.425-2.668 0.398-4.563-0.105-0.343-0.316-0.664-0.641-0.957-0.238-0.214-0.679-0.507-1.32-0.882-0.531-0.317-1.289-0.746-2.277-1.278-0.801-0.48-1.387-1.054-1.762-1.722-0.105-0.211-0.199-0.653-0.277-1.317-0.055-0.402-0.375-0.761-0.961-1.082-0.348-0.187-0.84-0.293-1.481-0.32-0.773-0.051-1.265-0.106-1.48-0.16-0.828-0.321-1.426-0.547-1.801-0.68-0.664-0.238-1.32-0.332-1.961-0.281-0.984 0.082-2.266 0.402-3.84 0.961-2.105 0.746-3.359 1.176-3.758 1.281-2.585 0.426-4.601 0.785-6.039 1.082-2.586 0.504-4.375 1.289-5.363 2.355l-0.277 0.364 0.879 3.359c0.215 0.371 0.375 0.746 0.48 1.121 0.399 1.36 0.668 2.36 0.801 3 0.266 1.09 0.387 2.09 0.359 3-0.027 1.278 0.121 2.184 0.442 2.719 0.265 0.426 0.945 0.984 2.039 1.68l1.121 0.84c0.476 0.347 0.89 0.585 1.238 0.718 0.399 0.188 0.934 0.321 1.602 0.403 0.879 0.105 1.437 0.183 1.679 0.238 0.774 0.242 1.973 0.719 3.598 1.441l2.762 0.039 0.359-0.238c2.746-0.109 5.442-0.668 8.078-1.684 0.27-0.105 0.867-0.277 1.801-0.519 0.773-0.211 1.348-0.414 1.723-0.598 0.183-0.109 0.547-0.386 1.078-0.84 0.426-0.375 0.828-0.574 1.199-0.601 0.055-0.027 0.066-0.465 0.039-1.32-0.023-0.852-0.023-1.293 0-1.321z" inkscape:connector-curvature="0"/>
      <path id="path16" style="fill-rule:evenodd;fill:#433d24" d="m11.559 18.653c-0.079-0.16-0.239-0.386-0.481-0.679-0.211-0.239-0.359-0.453-0.437-0.641-0.375-0.773-0.547-1.625-0.52-2.558-0.375 0.398-0.652 0.707-0.84 0.917-0.187 0.43-0.359 0.762-0.519 1-0.082 0.137-0.309 0.348-0.684 0.641-0.051 0.055-0.105 0.149-0.156 0.281-0.027 0.133-0.082 0.227-0.16 0.282-0.11 0.05-0.309 0.066-0.602 0.039-0.32-0.028-0.535-0.039-0.64-0.039l3.32 2.757c0.879-0.371 1.387-0.613 1.519-0.718 0.453-0.348 0.52-0.774 0.2-1.282z" inkscape:connector-curvature="0"/>
      <path id="path18" style="fill-rule:evenodd;fill:#433d24" d="m16.801 16.493c-0.055-0.133-0.082-0.211-0.082-0.238l0.402-0.242c-0.215-0.477-0.496-0.891-0.84-1.238-0.027 0.585-0.054 0.894-0.082 0.917-0.054 0.348-0.16 0.618-0.32 0.801-0.16-0.051-0.277-0.172-0.359-0.359-0.028-0.106-0.079-0.281-0.161-0.52-0.16 0.028-0.304 0.121-0.437 0.282-0.215 0.238-0.348 0.371-0.402 0.398-0.508 0.398-1.094 0.625-1.758 0.68l4.398 2.562c0.188-0.988 0.266-1.734 0.238-2.242l-0.597-0.801z" inkscape:connector-curvature="0"/>
      <path id="path20" style="fill-rule:evenodd;fill:#433d24" d="m18.68 17.935 0.519 1.879c-0.027-0.614-0.011-1.504 0.039-2.68l-0.558 0.801z" inkscape:connector-curvature="0"/>
      <path id="path22" style="fill-rule:evenodd;fill:#433d24" d="m18.359 18.614 0.321-0.679-0.481-1.879c0.215-0.137 0.348-0.453 0.403-0.961 0.05-0.426 0.039-0.801-0.043-1.121-0.079-0.293-0.239-0.735-0.481-1.321-0.051-0.343-0.133-0.652-0.238-0.918 0.398 0.161 0.652 0.266 0.762 0.321 0.16 0.105 0.293 0.332 0.398 0.679 0.32 1.04 0.398 2.504 0.238 4.399 0.696-0.852 1.043-1.586 1.043-2.199 0.051-0.746-0.093-1.493-0.441-2.243-0.16-0.425-0.36-0.703-0.602-0.839-0.105-0.051-0.426-0.145-0.957-0.278-0.535-0.133-1.176-0.226-1.922-0.281l-0.238 0.559c0.559 0.402 0.973 0.855 1.238 1.363 0.641 1.199 0.563 2.133-0.238 2.797 0.133 0.347 0.227 0.773 0.277 1.281l0.961 1.32z" inkscape:connector-curvature="0"/>
      <path id="path24" style="fill-rule:evenodd;fill:#433d24" d="m16.719 16.255c0 0.027 0.027 0.105 0.082 0.238l0.597 0.801c-0.05-0.508-0.144-0.934-0.277-1.281l-0.402 0.242z" inkscape:connector-curvature="0"/>
      <path id="path26" style="fill-rule:evenodd;fill:#433d24" d="m18.602 15.095c-0.055 0.508-0.188 0.824-0.403 0.961l0.481 1.879 0.558-0.801c0.16-1.895 0.082-3.359-0.238-4.399-0.105-0.347-0.238-0.574-0.398-0.679-0.11-0.055-0.364-0.16-0.762-0.321 0.105 0.266 0.187 0.575 0.238 0.918 0.242 0.586 0.402 1.028 0.481 1.321 0.082 0.32 0.093 0.695 0.043 1.121z" inkscape:connector-curvature="0"/>
      <path id="path28" style="fill-rule:evenodd;fill:#433d24" d="m16.078 11.935 0.043-0.082c-0.586-0.344-1.187-0.532-1.801-0.559h2.039l2-4.398c-1.812-0.028-3.293 0.093-4.437 0.359-1.574 0.371-2.91 1.039-4 2-1.309 1.254-2.297 2.187-2.961 2.801-0.508 0.371-1.039 0.906-1.602 1.597-0.105 0.133-0.187 0.243-0.238 0.321-0.082 0.16-0.094 0.293-0.043 0.402 0.055 0.133 0.32 0.199 0.801 0.199 0.535-0.027 0.867 0 1 0.078 0.133 0.11 0.254 0.266 0.359 0.481 0.082 0.266 0.149 0.453 0.203 0.558 0.133-0.292 0.266-0.636 0.399-1.039 0.133-0.32 0.348-0.586 0.64-0.8 0.399-0.317 0.719-0.493 0.961-0.52 0.348-0.023 0.625 0.149 0.84 0.52 0.051-0.371 0.344-0.786 0.879-1.239 0.453-0.398 0.895-0.652 1.32-0.761 0.399-0.106 1.028-0.161 1.879-0.161 0.961 0 1.536 0.083 1.719 0.243z" inkscape:connector-curvature="0"/>
      <path id="path30" style="fill-rule:evenodd;fill:#433d24" d="m16.121 11.853 0.238-0.559h-2.039c0.614 0.027 1.215 0.215 1.801 0.559z" inkscape:connector-curvature="0"/>
      <g id="g32">
        <g id="g48" mask="url(#mask40)">
          <g id="g74">
            <g id="g76" clip-path="url(#clipPath52)">
              <g id="g78" transform="translate(0 -.38565)">
                <g id="g82">
                  <g id="g84" clip-path="url(#clipPath56)">
                    <g id="g86">
                      <g id="g88">
                        <g id="g90">
                          <g id="g92">
                            <path id="path94" style="fill-rule:evenodd;fill:url(#linearGradient64)" d="m28.039 22.559c0.773-0.211 1.348-0.414 1.723-0.598 0.183-0.106 0.531-0.387 1.039-0.84 0.398-0.348 0.785-0.547 1.16-0.601-0.32-0.051-0.602-0.133-0.84-0.239-0.426-0.269-0.723-0.441-0.883-0.519-0.265-0.137-0.597-0.188-1-0.16-0.426 0.05-0.746 0.078-0.957 0.078-0.402 0.054-0.722 0.015-0.961-0.121-0.16-0.079-0.535-0.321-1.121-0.719-0.347-0.266-0.758-0.426-1.238-0.481-0.906-0.054-1.563-0.132-1.961-0.238-0.348-0.109-0.68-0.293-1-0.562-0.48-0.454-0.773-0.704-0.879-0.758-0.32-0.242-0.734-0.36-1.242-0.36l-0.641-0.043c-0.238-0.16-0.586-0.265-1.039-0.32-0.426-0.078-0.785-0.09-1.078-0.039-0.32 0.027-0.707 0.215-1.16 0.563-0.453 0.32-0.867 0.503-1.242 0.558-1.227-0.105-2.145-0.121-2.758-0.039-1.176 0.133-1.453 0.707-0.84 1.719-0.535 0.055-1.242-0.012-2.121-0.199-0.988-0.188-1.695-0.282-2.121-0.282-0.961-0.105-1.598-0.121-1.918-0.039-0.613 0.375-1.082 0.641-1.402 0.801l-0.039 0.039c0.16 0.399 0.425 0.762 0.8 1.078 0.239 0.215 0.735 0.574 1.481 1.082l1.117 0.84c0.48 0.348 0.894 0.586 1.242 0.719 0.399 0.187 0.934 0.32 1.602 0.402 0.879 0.106 1.437 0.184 1.679 0.239 0.399 0.132 0.985 0.375 1.758 0.718 0.828 0.348 1.442 0.59 1.84 0.723l2.762 0.039 0.359-0.238c2.746-0.11 5.442-0.668 8.078-1.684 0.27-0.105 0.867-0.277 1.801-0.519z" inkscape:connector-curvature="0"/>
                          </g>
                        </g>
                      </g>
                    </g>
                  </g>
                </g>
              </g>
            </g>
          </g>
        </g>
      </g>
      <path id="path96" style="fill-rule:evenodd;fill:#39331b" d="m31.121 18.333 0.719 0.16-0.082-0.64l-0.039-0.078-0.039-0.282-0.039-0.039-0.161-0.359-0.199-0.242c-0.187-0.133-0.601-0.118-1.242 0.043-0.801-0.989-1.867-1.668-3.199-2.043-0.559-0.371-1.254-0.664-2.078-0.879l-1.442-0.282-1.879-1.398-0.281-0.121c-0.586-0.348-1.293-0.598-2.121-0.758h0.039c-0.719-0.16-1.465-0.199-2.238-0.121l2.16 0.84c-0.105 0.348-0.145 0.601-0.121 0.762 0.109 0.211 0.187 0.437 0.242 0.679 0.051 0.293 0.094 0.692 0.117 1.2v1.199l0.641 0.082 4.961 0.078c-0.453 0.668 0.414 1.215 2.601 1.641 1.094 0.238 2.321 0.425 3.68 0.558z" inkscape:connector-curvature="0"/>
      <path id="path98" style="fill-rule:evenodd;fill:#39331b" d="m31.121 19.896c0.238 0.105 0.52 0.183 0.84 0.238h0.078l0.039-0.758-0.039-0.082c-0.078-0.215-0.144-0.48-0.199-0.801l-0.719-0.16c-1.359-0.133-2.586-0.32-3.683-0.558-2.184-0.426-3.051-0.973-2.598-1.641l-4.86-0.078c0.461 0.015 0.84 0.133 1.141 0.359 0.106 0.051 0.399 0.305 0.879 0.758 0.32 0.269 0.652 0.453 1 0.562 0.398 0.106 1.055 0.184 1.961 0.239 0.477 0.054 0.891 0.215 1.238 0.48 0.586 0.399 0.961 0.641 1.121 0.719 0.239 0.137 0.559 0.176 0.957 0.121 0.215 0 0.535-0.027 0.961-0.078 0.403-0.027 0.735 0.023 1 0.16 0.16 0.078 0.453 0.25 0.883 0.52z" inkscape:connector-curvature="0"/>
      <path id="path100" style="fill-rule:evenodd;fill:#352618" d="m15.961 11.376 0.879-0.082-0.801-0.398 5.199-2.801c0.11-0.293 0.121-0.492 0.043-0.602-0.242-0.398-0.75-0.414-1.519-0.039-0.641 0.321-1.094 0.641-1.364 0.961 0.028-0.695-0.398-1.066-1.277-1.121-1.043 0.109-1.723 0.16-2.043 0.16-0.023-0.773-0.039-1.226-0.039-1.359 0.027-0.535 0.16-0.934 0.402-1.199 0.133-0.161 0.52-0.336 1.161-0.52 0.476-0.133 0.691-0.426 0.636-0.883-0.906-0.051-1.797 0.016-2.679 0.199-1.094 0.215-1.852 0.563-2.278 1.043-0.187 0.215-0.359 0.653-0.519 1.321-0.137 0.558-0.387 0.933-0.762 1.117-0.398 0.187-0.734 0.203-1 0.043-0.266-0.242-0.492-0.402-0.68-0.481-0.32-0.347-0.625-0.574-0.922-0.683-0.132-0.051-0.386-0.078-0.757-0.078-0.375 0.051-0.629 0.078-0.762 0.078-0.852 0-1.559 0.109-2.117 0.32-0.137 0.028-0.282 0.16-0.442 0.403-0.187 0.21-0.332 0.332-0.441 0.359-0.16 0.051-0.359 0.012-0.598-0.121-0.293-0.16-0.508-0.238-0.64-0.238-0.696 0-1.215 0.093-1.563 0.277l0.602 2.363c0.215 0.371 0.375 0.746 0.48 1.121 0.348 1.227 0.586 2.117 0.719 2.68 0.266 0.984 0.414 1.863 0.441 2.637l0.039-0.078c0.774-1.016 1.801-1.454 3.082-1.321 0.907-0.347 1.653-0.601 2.239-0.762l1.961-1.039c2.347-1.117 4.121-1.546 5.32-1.277z" inkscape:connector-curvature="0"/>
      <path id="path102" style="fill-rule:evenodd;fill:#2e2115" d="m6.238 13.294c0.028 0.266 0 0.453-0.078 0.559-0.055 0.082-0.133 0.136-0.238 0.16-0.11 0.027-0.188 0.066-0.242 0.121l-0.36 0.402c0.399-0.082 0.774-0.109 1.121-0.082 0.907-0.347 1.653-0.601 2.239-0.762l3-1.476-0.039-0.203c-0.403 0.082-0.762 0.054-1.082-0.078-0.293-0.16-0.426-0.321-0.399-0.481 0.028-0.105 0.106-0.347 0.238-0.719 0.27-1.199-0.066-1.64-1-1.32 0.481-0.027 0.668 0.254 0.563 0.84-0.055 0.398-0.199 0.828-0.441 1.281-0.239 0.477-0.598 0.774-1.079 0.879-0.535 0.106-0.961-0.055-1.281-0.48-0.105 0.425-0.226 0.734-0.359 0.918-0.266 0.16-0.453 0.308-0.563 0.441z" inkscape:connector-curvature="0"/>
      <path id="path104" style="fill-rule:evenodd;fill:#2e2115" d="m19.078 9.255-0.078-0.563c-0.055-0.265-0.055-0.519 0-0.757-0.348 0.265-0.547 0.425-0.602 0.48 0-0.293-0.05-0.508-0.16-0.64l-0.078 0.48c0 0.078 0.039 0.32 0.121 0.719 0.078 0.265 0.078 0.508 0 0.718l0.797-0.437z" inkscape:connector-curvature="0"/>
      <path id="path106" style="fill-rule:evenodd;fill:#352618" d="m16.039 10.896 0.801 0.398c0.773-0.078 1.519-0.039 2.238 0.121 0.11-0.027 0.297-0.066 0.563-0.121 0.238-0.055 0.437-0.133 0.597-0.238 0.297-0.242 0.469-0.535 0.524-0.883 0.05-0.211 0.093-0.531 0.117-0.957 0.187-0.348 0.309-0.723 0.359-1.121l-5.199 2.801z" inkscape:connector-curvature="0"/>
      <path id="path108" style="fill-rule:evenodd;fill:#2e2115" d="m31.84 18.493 0.199 0.043 0.039-1.043c0.828-1.945 1.348-3.359 1.563-4.238 0.293-1.148 0.425-2.668 0.398-4.563-0.105-0.343-0.316-0.664-0.641-0.957-0.238-0.214-0.679-0.507-1.32-0.882-0.398-0.239-0.973-0.543-1.719-0.918-0.636-0.348-1.132-0.692-1.48-1.039-0.344-0.293-0.625-0.641-0.84-1.043-0.105-0.211-0.199-0.653-0.277-1.317-0.055-0.402-0.375-0.761-0.961-1.082-0.348-0.187-0.84-0.293-1.481-0.32-0.773-0.051-1.265-0.106-1.48-0.16-0.828-0.321-1.426-0.547-1.801-0.68-0.664-0.238-1.32-0.332-1.961-0.281-0.984 0.082-2.266 0.402-3.84 0.961-2.105 0.746-3.359 1.176-3.758 1.281-2.585 0.426-4.601 0.785-6.039 1.082-2.586 0.504-4.375 1.289-5.363 2.355l-0.277 0.364 0.277 1c0.348-0.188 0.867-0.281 1.563-0.281 0.132 0 0.347 0.078 0.64 0.238 0.239 0.137 0.438 0.176 0.598 0.121 0.109-0.027 0.254-0.149 0.441-0.359 0.16-0.239 0.305-0.375 0.442-0.399 0.558-0.215 1.265-0.32 2.117-0.32 0.133 0 0.387-0.028 0.762-0.082 0.371 0 0.625 0.027 0.757 0.082 0.297 0.105 0.602 0.332 0.922 0.679 0.188 0.079 0.414 0.239 0.68 0.481 0.266 0.16 0.602 0.144 1-0.039 0.375-0.188 0.625-0.563 0.762-1.121 0.16-0.668 0.332-1.106 0.519-1.321 0.426-0.48 1.184-0.824 2.278-1.039 0.882-0.187 1.773-0.254 2.679-0.203 0.055 0.457-0.16 0.75-0.636 0.883-0.641 0.188-1.028 0.359-1.161 0.52-0.242 0.265-0.375 0.668-0.402 1.199 0 0.133 0.016 0.586 0.039 1.359 0.32 0 1-0.051 2.043-0.16 0.879 0.055 1.305 0.43 1.277 1.121 0.27-0.32 0.723-0.64 1.364-0.961 0.769-0.371 1.277-0.359 1.519 0.039 0.078 0.11 0.067 0.309-0.043 0.602-0.05 0.398-0.172 0.773-0.359 1.121-0.024 0.426-0.067 0.746-0.117 0.961-0.055 0.344-0.231 0.637-0.524 0.879-0.16 0.105-0.359 0.187-0.597 0.238-0.266 0.055-0.453 0.094-0.563 0.121 0.777 0.16 1.469 0.414 2.082 0.762l0.281 0.117 1.879 1.402 1.442 0.278c0.824 0.215 1.519 0.508 2.078 0.883 1.332 0.371 2.398 1.05 3.199 2.039 0.641-0.161 1.055-0.176 1.242-0.039l0.199 0.238 0.161 0.359 0.039 0.039 0.043 0.282 0.039 0.078 0.078 0.64z" inkscape:connector-curvature="0"/>
      <path id="path110" style="fill-rule:evenodd;fill:#2e2115" d="m31.84 18.493c0.055 0.375 0.121 0.641 0.199 0.801l0.039 0.082-0.039-0.84-0.199-0.043z" inkscape:connector-curvature="0"/>
      <path id="path112" style="fill-rule:evenodd;fill:#22190f" d="m31.559 11.814 0.043-1c0.476-0.211 0.519 0.175 0.117 1.16l-0.16-0.16zm-0.52-3.239c0.055 0.133 0.094 0.371 0.121 0.719 0.028 0.32-0.039 0.746-0.199 1.281-0.16 0.559-0.242 0.985-0.242 1.278l-0.559-0.68c0.133-0.184 0.078-0.504-0.16-0.957-0.293-0.563-0.453-0.883-0.48-0.961-0.133-0.48-0.172-0.973-0.122-1.48 0.27 0.187 0.454 0.304 0.563 0.359 0.184 0.082 0.371 0.082 0.559 0 0.242 0.082 0.414 0.226 0.519 0.441zm0.602 8.36 0.757-0.2c0.668-1.601 1.11-2.855 1.321-3.761 0.242-1.067 0.347-2.492 0.32-4.282-0.105-0.343-0.32-0.664-0.641-0.957-0.238-0.214-0.679-0.507-1.32-0.882-0.398-0.239-0.973-0.543-1.719-0.918-0.64-0.348-1.132-0.692-1.48-1.039-0.348-0.293-0.625-0.641-0.84-1.043-0.105-0.211-0.199-0.653-0.281-1.317-0.051-0.402-0.371-0.761-0.957-1.082-0.348-0.187-0.84-0.293-1.481-0.32-0.773-0.051-1.265-0.106-1.48-0.16-0.828-0.321-1.426-0.547-1.801-0.68-0.668-0.238-1.32-0.332-1.961-0.281-0.984 0.082-2.266 0.402-3.84 0.961-2.105 0.746-3.359 1.176-3.758 1.281-2.375 0.426-4.214 0.758-5.519 1-2.43 0.426-4.176 1.055-5.242 1.879 0.054 0.082 0.199 0.109 0.441 0.082 0.106-0.027 0.278-0.121 0.52-0.281 0.215-0.106 0.398-0.149 0.558-0.121 0.028 0.32 0.149 0.601 0.36 0.839 0.269 0.321 0.535 0.414 0.8 0.282 0.133-0.051 0.227-0.172 0.282-0.36 0.078-0.187 0.144-0.304 0.199-0.359 0.242-0.32 0.652-0.586 1.242-0.801 0.531-0.211 1.012-0.293 1.438-0.238 0.453 0 1.148 0.094 2.082 0.277-0.161 0.375-0.188 0.707-0.082 1 0.187 0.535 0.496 0.84 0.921 0.922 0.372 0.051 0.747-0.16 1.118-0.641 0.297-0.375 0.496-0.773 0.601-1.199 0.055-0.215 0.067-0.386 0.039-0.519 0-0.055 0.121-0.149 0.36-0.282l1.004-0.562c0.691-0.32 1.664-0.398 2.918-0.238 0.402 0.05 0.878 0.281 1.441 0.679 0.105-0.347 0.078-0.894-0.082-1.64h0.402l1.16 0.16c0.239 0.055 0.426 0.176 0.559 0.359 0.133 0.266 0.238 0.492 0.32 0.68 0.133 0.293 0.227 0.453 0.282 0.48 0.05 0.028 0.238 0.11 0.558 0.243 0.238 0.078 0.371 0.214 0.399 0.398 0 0.082-0.079 0.199-0.239 0.359-0.105 0.161-0.121 0.321-0.039 0.481 0.293-0.184 0.758-0.16 1.399 0.082 0 0.48 0.082 0.894 0.242 1.238 0.183 0.453 0.476 0.602 0.879 0.442 0.293-0.106 0.597-0.508 0.918-1.2 0.269-0.586 0.629-0.855 1.082-0.8l0.398 1.64c0.028 0.426 0.067 0.68 0.121 0.758 0.188 0.133 0.305 0.254 0.36 0.359 0.132 0.27 0.121 0.707-0.039 1.321-0.161 0.613-0.172 1.043-0.039 1.281 0.078 0.16 0.265 0.281 0.558 0.359 0.32 0.082 0.508 0.188 0.559 0.321v0.761c-0.024 0.614-0.024 1.106 0 1.481 0 0.691 0.066 1.16 0.203 1.398 0.371-0.027 0.769-0.332 1.199-0.922 0.399-0.613 0.785-0.906 1.156-0.878-0.132 0.347-0.144 0.851-0.039 1.519 0 0.453 0.055 0.734 0.16 0.84 0.055 0.027 0.149 0.027 0.282 0 0.132-0.024 0.226-0.012 0.281 0.043 0.16 0.105 0.266 0.41 0.316 0.918 0.055 0.48 0.176 0.758 0.364 0.84z" inkscape:connector-curvature="0"/>
      <path id="path114" style="fill-rule:evenodd;fill:#22190f" d="m15.52 6.853c0.242 0 0.773-0.012 1.601-0.039 0.707 0.027 1.07 0.273 1.078 0.742v-0.66c0.403-0.883 0-1.293-1.199-1.243-1.199 0.082-1.695 0.481-1.48 1.2z" inkscape:connector-curvature="0"/>
      <path id="path116" style="fill-rule:evenodd;fill:#22190f" d="m19.879 4.614c-0.16-0.238-0.399-0.32-0.719-0.238-0.508 0.133-0.629 0.371-0.359 0.719 0.211 0.265 0.519 0.465 0.918 0.597l-0.078-0.437c0.293-0.188 0.371-0.402 0.238-0.641z" inkscape:connector-curvature="0"/>
      <path id="path118" style="fill-rule:evenodd;fill:#22190f" d="m23.359 8.853c0.106-0.344-0.011-0.543-0.359-0.598-0.426-0.082-0.652 0.105-0.68 0.559-0.054 0.48 0.094 0.761 0.442 0.839v-0.16c0.293-0.105 0.492-0.32 0.597-0.64z" inkscape:connector-curvature="0"/>
      <path id="path120" style="fill-rule:evenodd;fill:#22190f" d="m25.68 8.415c-0.106-0.32-0.348-0.48-0.719-0.48-0.586 0.027-0.867 0.32-0.84 0.879 0.024 0.507 0.227 0.972 0.598 1.402l0.441 0.039c0.32-0.48 0.492-0.762 0.52-0.84 0.132-0.32 0.132-0.652 0-1z" inkscape:connector-curvature="0"/>
      <path id="path122" style="fill-rule:evenodd;fill:#2e2115" d="m31.16 9.294c-0.027-0.348-0.066-0.586-0.121-0.719-0.105-0.215-0.277-0.359-0.519-0.441-0.184 0.082-0.372 0.082-0.559 0-0.106-0.051-0.293-0.172-0.559-0.359-0.054 0.507-0.015 1 0.118 1.48 0.027 0.078 0.187 0.398 0.48 0.961 0.242 0.453 0.293 0.773 0.16 0.957l0.563 0.68c0-0.293 0.078-0.719 0.238-1.278 0.16-0.535 0.227-0.961 0.199-1.281z" inkscape:connector-curvature="0"/>
      <path id="path124" style="fill-rule:evenodd;fill:#2e2115" d="m31.719 11.974c0.402-0.985 0.359-1.371-0.117-1.16l-0.043 1 0.16 0.16z" inkscape:connector-curvature="0"/>
      <path id="path126" style="fill-rule:evenodd;fill:#606524" d="m16.922 23.134c0.613 0.105 0.918 0.094 0.918-0.039 0-0.16-0.254-0.336-0.762-0.52-0.531-0.215-0.84-0.199-0.918 0.039-0.082 0.239 0.172 0.414 0.762 0.52z" inkscape:connector-curvature="0"/>
      <path id="path128" style="fill-rule:evenodd;fill:#4d4f32" d="m16.16 22.735c0.106-0.187 0.371-0.199 0.801-0.043 0.371 0.11 0.641 0.254 0.801 0.442l0.078-0.039c0-0.16-0.254-0.336-0.762-0.52-0.531-0.215-0.84-0.199-0.918 0.039v0.121z" inkscape:connector-curvature="0"/>
      <path id="path130" style="fill-rule:evenodd;fill:#626544" d="m17.398 23.614c0.457-0.214 0.602-0.375 0.442-0.48-0.133-0.133-0.442-0.145-0.918-0.039-0.481 0.078-0.629 0.238-0.442 0.48 0.188 0.239 0.493 0.254 0.918 0.039z" inkscape:connector-curvature="0"/>
      <path id="path132" style="fill-rule:evenodd;fill:#4d4f32" d="m16.559 23.653c-0.106-0.183 0.043-0.32 0.441-0.398 0.348-0.105 0.641-0.121 0.879-0.039l-0.039-0.082c-0.133-0.133-0.442-0.145-0.918-0.039-0.481 0.078-0.629 0.238-0.442 0.48l0.079 0.078z" inkscape:connector-curvature="0"/>
      <path id="path134" style="fill-rule:evenodd;fill:#626544" d="m17.961 22.614c-0.215 0.321-0.242 0.52-0.082 0.602 0.187 0.078 0.426 0 0.723-0.242 0.293-0.215 0.304-0.414 0.039-0.598-0.266-0.16-0.496-0.082-0.68 0.238z" inkscape:connector-curvature="0"/>
      <path id="path136" style="fill-rule:evenodd;fill:#4d4f32" d="m18.52 22.333c0.214 0.137 0.199 0.309-0.04 0.52-0.214 0.187-0.425 0.281-0.64 0.281l0.039 0.082c0.187 0.078 0.426 0 0.723-0.242 0.293-0.215 0.304-0.414 0.039-0.598l-0.121-0.043z" inkscape:connector-curvature="0"/>
      <path id="path138" style="fill-rule:evenodd;fill:#606524" d="m18.52 22.974c-0.454 0.082-0.641 0.172-0.559 0.281 0.078 0.105 0.332 0.172 0.758 0.199 0.426 0.028 0.613-0.051 0.562-0.238-0.054-0.215-0.308-0.297-0.761-0.242z" inkscape:connector-curvature="0"/>
      <path id="path140" style="fill-rule:evenodd;fill:#7d7f67" d="m18.398 23.692c-0.183-0.343-0.359-0.503-0.519-0.476-0.16 0.023-0.211 0.184-0.16 0.476 0.054 0.321 0.226 0.481 0.519 0.481 0.297 0 0.348-0.16 0.16-0.481z" inkscape:connector-curvature="0"/>
      <path id="path142" style="fill-rule:evenodd;fill:#4d4f32" d="m18.359 24.173c-0.238-0.027-0.386-0.16-0.437-0.398-0.082-0.239-0.067-0.415 0.039-0.52l-0.082-0.039c-0.16 0.023-0.211 0.184-0.16 0.476 0.054 0.321 0.226 0.481 0.519 0.481h0.121z" inkscape:connector-curvature="0"/>
      <path id="path144" style="fill-rule:evenodd;fill:#7d7f67" d="m17.398 22.575c0.215 0.344 0.387 0.504 0.524 0.481 0.156-0.028 0.211-0.188 0.156-0.481-0.051-0.32-0.223-0.48-0.519-0.48-0.293-0.028-0.344 0.133-0.161 0.48z" inkscape:connector-curvature="0"/>
      <path id="path146" style="fill-rule:evenodd;fill:#4d4f32" d="m17.441 22.095c0.239 0.027 0.387 0.16 0.438 0.398 0.055 0.242 0.027 0.414-0.078 0.52l0.121 0.043c0.156-0.028 0.211-0.188 0.156-0.481-0.051-0.32-0.223-0.48-0.519-0.48h-0.118z" inkscape:connector-curvature="0"/>
      <path id="path148" style="fill-rule:evenodd;fill:#606524" d="m7.32 21.294c0.266 0.266 0.426 0.359 0.481 0.281-0.266-0.613-0.496-0.867-0.68-0.761-0.133 0.082-0.066 0.242 0.199 0.48z" inkscape:connector-curvature="0"/>
      <path id="path150" style="fill-rule:evenodd;fill:#626544" d="m7.359 21.692c0.321 0.055 0.469 0.028 0.442-0.078-0.586-0.425-0.879-0.507-0.879-0.238 0 0.184 0.144 0.293 0.437 0.316z" inkscape:connector-curvature="0"/>
      <path id="path152" style="fill-rule:evenodd;fill:#626544" d="m8 21.415c-0.215 0.078-0.281 0.16-0.199 0.238 0.054 0.11 0.199 0.149 0.437 0.122 0.215 0 0.282-0.083 0.203-0.239-0.082-0.16-0.226-0.203-0.441-0.121z" inkscape:connector-curvature="0"/>
      <path id="path154" style="fill-rule:evenodd;fill:#606524" d="m8.48 22.134c0.079-0.188-0.148-0.32-0.679-0.399 0 0.079 0.094 0.184 0.277 0.321 0.215 0.16 0.348 0.183 0.402 0.078z" inkscape:connector-curvature="0"/>
      <path id="path156" style="fill-rule:evenodd;fill:#4d4f32" d="m8.48 22.056c-0.027 0.078-0.132 0.066-0.32-0.043-0.16-0.106-0.265-0.211-0.32-0.321l-0.039 0.043c0 0.079 0.094 0.184 0.277 0.321 0.215 0.16 0.348 0.183 0.402 0.078v-0.078z" inkscape:connector-curvature="0"/>
      <path id="path158" style="fill-rule:evenodd;fill:#7d7f67" d="m7.84 22.056c0.027-0.215 0-0.336-0.078-0.364-0.082-0.05-0.16 0-0.242 0.161-0.079 0.16-0.051 0.297 0.082 0.402 0.132 0.078 0.21 0.012 0.238-0.199z" inkscape:connector-curvature="0"/>
      <path id="path160" style="fill-rule:evenodd;fill:#7d7f67" d="m8.039 21.013c-0.211-0.133-0.277 0.066-0.199 0.601 0.082 0.028 0.172-0.039 0.281-0.199 0.078-0.16 0.051-0.293-0.082-0.402z" inkscape:connector-curvature="0"/>
      <path id="path162" style="fill-rule:evenodd;fill:#7b9828" d="m20.602 18.735c0.531-0.265 0.691-0.48 0.476-0.64-0.211-0.16-0.531-0.082-0.957 0.238s-0.586 0.535-0.48 0.641c0.078 0.133 0.398 0.054 0.961-0.239z" inkscape:connector-curvature="0"/>
      <path id="path164" style="fill-rule:evenodd;fill:#738346" d="m21.16 18.216-0.082-0.121c-0.211-0.16-0.531-0.082-0.957 0.238s-0.586 0.535-0.48 0.641c0 0.027 0.039 0.039 0.121 0.039 0.023-0.16 0.211-0.36 0.558-0.598 0.375-0.265 0.653-0.336 0.84-0.199z" inkscape:connector-curvature="0"/>
      <path id="path166" style="fill-rule:evenodd;fill:#889956" d="m20.359 19.294c0.563 0.027 0.868-0.078 0.922-0.32 0.051-0.266-0.187-0.36-0.722-0.282-0.532 0.055-0.84 0.161-0.918 0.321-0.082 0.137 0.16 0.226 0.718 0.281z" inkscape:connector-curvature="0"/>
      <path id="path168" style="fill-rule:evenodd;fill:#738346" d="m21.238 19.095 0.043-0.121c0.051-0.266-0.187-0.36-0.722-0.282-0.532 0.055-0.84 0.161-0.918 0.321l0.039 0.082c0.215-0.133 0.519-0.215 0.922-0.242 0.453-0.024 0.664 0.054 0.636 0.242z" inkscape:connector-curvature="0"/>
      <path id="path170" style="fill-rule:evenodd;fill:#889956" d="m19.48 18.454c-0.265-0.32-0.546-0.387-0.839-0.199-0.293 0.187-0.254 0.398 0.121 0.641 0.371 0.211 0.652 0.265 0.84 0.16 0.183-0.082 0.144-0.281-0.122-0.602z" inkscape:connector-curvature="0"/>
      <path id="path172" style="fill-rule:evenodd;fill:#738346" d="m18.801 18.173-0.16 0.082c-0.293 0.187-0.254 0.398 0.121 0.641 0.371 0.211 0.652 0.265 0.84 0.16l0.039-0.082c-0.243 0.027-0.496-0.055-0.762-0.239-0.266-0.187-0.293-0.375-0.078-0.562z" inkscape:connector-curvature="0"/>
      <path id="path174" style="fill-rule:evenodd;fill:#7b9828" d="m18.52 19.095c-0.028 0.16 0.148 0.215 0.519 0.16 0.348-0.027 0.547-0.094 0.602-0.199-0.696-0.215-1.067-0.203-1.121 0.039z" inkscape:connector-curvature="0"/>
      <path id="path176" style="fill-rule:evenodd;fill:#738346" d="m18.559 19.013-0.039 0.082c-0.028 0.16 0.148 0.215 0.519 0.16 0.348-0.027 0.547-0.094 0.602-0.199l-0.039-0.043c-0.137 0.082-0.336 0.137-0.602 0.16-0.293 0.027-0.441-0.023-0.441-0.16z" inkscape:connector-curvature="0"/>
      <path id="path178" style="fill-rule:evenodd;fill:#a5b37d" d="m19.32 19.415c-0.132 0.293-0.093 0.426 0.121 0.399 0.239-0.028 0.371-0.161 0.399-0.399 0.027-0.242-0.028-0.359-0.16-0.359-0.106-0.028-0.227 0.094-0.36 0.359z" inkscape:connector-curvature="0"/>
      <path id="path180" style="fill-rule:evenodd;fill:#738346" d="m19.359 19.814h0.082c0.239-0.028 0.371-0.161 0.399-0.399 0.027-0.242-0.028-0.359-0.16-0.359h-0.078c0.105 0.078 0.132 0.211 0.078 0.398-0.028 0.215-0.133 0.332-0.321 0.36z" inkscape:connector-curvature="0"/>
      <path id="path182" style="fill-rule:evenodd;fill:#a5b37d" d="m20.039 18.493c0.133-0.293 0.082-0.426-0.16-0.398-0.238 0.027-0.371 0.16-0.399 0.398-0.027 0.266 0.028 0.403 0.161 0.403 0.132 0.023 0.265-0.11 0.398-0.403z" inkscape:connector-curvature="0"/>
      <path id="path184" style="fill-rule:evenodd;fill:#738346" d="m20 18.134-0.121-0.039c-0.238 0.027-0.371 0.16-0.399 0.398-0.027 0.266 0.028 0.403 0.161 0.403l0.078-0.043c-0.078-0.078-0.106-0.211-0.078-0.399 0.054-0.187 0.171-0.293 0.359-0.32z" inkscape:connector-curvature="0"/>
      <path id="path186" style="fill-rule:evenodd;fill:#7b9828" d="m22.359 22.493c0.614-0.183 0.829-0.414 0.641-0.679-0.188-0.266-0.52-0.254-1 0.039-0.508 0.297-0.734 0.535-0.68 0.722 0.078 0.16 0.426 0.133 1.039-0.082z" inkscape:connector-curvature="0"/>
      <path id="path188" style="fill-rule:evenodd;fill:#738346" d="m23.078 21.935-0.078-0.121c-0.188-0.266-0.52-0.254-1 0.039-0.508 0.297-0.734 0.535-0.68 0.722l0.121 0.039c0.106-0.214 0.348-0.425 0.719-0.64 0.426-0.211 0.735-0.227 0.918-0.039z" inkscape:connector-curvature="0"/>
      <path id="path190" style="fill-rule:evenodd;fill:#889956" d="m22.039 23.134c0.563 0.215 0.895 0.16 1-0.16 0.133-0.321-0.094-0.508-0.68-0.559-0.558-0.027-0.906 0.039-1.039 0.199-0.105 0.161 0.133 0.332 0.719 0.52z" inkscape:connector-curvature="0"/>
      <path id="path192" style="fill-rule:evenodd;fill:#738346" d="m22.961 23.095c0.051-0.055 0.078-0.094 0.078-0.121 0.133-0.321-0.094-0.508-0.68-0.559-0.558-0.027-0.906 0.039-1.039 0.199l0.039 0.121c0.243-0.132 0.575-0.175 1-0.121 0.453 0.055 0.653 0.215 0.602 0.481z" inkscape:connector-curvature="0"/>
      <path id="path194" style="fill-rule:evenodd;fill:#889956" d="m21.039 22.013c-0.344-0.344-0.641-0.399-0.879-0.16-0.238 0.242-0.148 0.468 0.281 0.683 0.426 0.239 0.719 0.305 0.879 0.199 0.16-0.132 0.067-0.375-0.281-0.722z" inkscape:connector-curvature="0"/>
      <path id="path196" style="fill-rule:evenodd;fill:#738346" d="m20.281 21.775-0.121 0.078c-0.238 0.242-0.148 0.468 0.281 0.683 0.426 0.239 0.719 0.305 0.879 0.199l0.039-0.121c-0.238 0.028-0.519-0.054-0.839-0.238-0.321-0.215-0.399-0.414-0.239-0.601z" inkscape:connector-curvature="0"/>
      <path id="path198" style="fill-rule:evenodd;fill:#7b9828" d="m20.52 22.575c-0.532-0.027-0.786 0.094-0.758 0.36 0.023 0.238 0.277 0.304 0.758 0.199 0.48-0.078 0.734-0.188 0.761-0.32 0.024-0.161-0.226-0.239-0.761-0.239z" inkscape:connector-curvature="0"/>
      <path id="path200" style="fill-rule:evenodd;fill:#738346" d="m19.801 22.814-0.039 0.121c0.023 0.238 0.277 0.304 0.758 0.199 0.48-0.078 0.734-0.188 0.761-0.32l-0.043-0.079c-0.16 0.133-0.41 0.227-0.758 0.278-0.402 0.054-0.625-0.012-0.679-0.199z" inkscape:connector-curvature="0"/>
      <path id="path202" style="fill-rule:evenodd;fill:#a5b37d" d="m21 23.376c-0.078 0.399 0.027 0.586 0.32 0.559 0.321-0.028 0.453-0.227 0.399-0.602-0.051-0.371-0.172-0.57-0.36-0.598-0.16 0-0.281 0.211-0.359 0.641z" inkscape:connector-curvature="0"/>
      <path id="path204" style="fill-rule:evenodd;fill:#738346" d="m21.199 23.935h0.121c0.321-0.028 0.453-0.227 0.399-0.602-0.051-0.371-0.172-0.57-0.36-0.598l-0.121 0.079c0.16 0.105 0.254 0.293 0.282 0.562 0.054 0.316-0.055 0.504-0.321 0.559z" inkscape:connector-curvature="0"/>
      <path id="path206" style="fill-rule:evenodd;fill:#a5b37d" d="m21.641 21.935c0.078-0.426-0.039-0.625-0.36-0.602-0.32 0.027-0.453 0.242-0.402 0.641 0.055 0.375 0.176 0.562 0.359 0.562 0.16 0.024 0.297-0.176 0.403-0.601z" inkscape:connector-curvature="0"/>
      <path id="path208" style="fill-rule:evenodd;fill:#738346" d="m21.398 21.333h-0.117c-0.32 0.027-0.453 0.242-0.402 0.641 0.055 0.375 0.176 0.562 0.359 0.562l0.082-0.043c-0.16-0.105-0.242-0.304-0.242-0.597-0.023-0.321 0.082-0.508 0.32-0.563z" inkscape:connector-curvature="0"/>
      <path id="path210" style="fill-rule:evenodd;fill:#606524" d="m15.961 18.134c-0.082-0.238-0.375-0.281-0.883-0.121-0.531 0.16-0.797 0.32-0.797 0.48 0 0.133 0.293 0.176 0.879 0.121 0.586-0.078 0.852-0.238 0.801-0.48z" inkscape:connector-curvature="0"/>
      <path id="path212" style="fill-rule:evenodd;fill:#4d4f32" d="m15.961 18.255v-0.121c-0.082-0.238-0.375-0.281-0.883-0.121-0.531 0.16-0.797 0.32-0.797 0.48l0.078 0.043c0.161-0.16 0.426-0.297 0.801-0.402 0.453-0.106 0.719-0.067 0.801 0.121z" inkscape:connector-curvature="0"/>
      <path id="path214" style="fill-rule:evenodd;fill:#626544" d="m15.602 19.095c0.183-0.242 0.05-0.426-0.403-0.559s-0.758-0.148-0.918-0.043c-0.136 0.133 0 0.321 0.399 0.563 0.425 0.265 0.734 0.277 0.922 0.039z" inkscape:connector-curvature="0"/>
      <path id="path216" style="fill-rule:evenodd;fill:#4d4f32" d="m15.48 19.173 0.122-0.078c0.183-0.242 0.05-0.426-0.403-0.559s-0.758-0.148-0.918-0.043l-0.043 0.121c0.242-0.054 0.535-0.027 0.883 0.078 0.371 0.137 0.492 0.297 0.359 0.481z" inkscape:connector-curvature="0"/>
      <path id="path218" style="fill-rule:evenodd;fill:#626544" d="m14.238 17.974c-0.183-0.321-0.41-0.414-0.679-0.282-0.266 0.137-0.266 0.336 0 0.602 0.296 0.266 0.519 0.359 0.679 0.281 0.16-0.054 0.16-0.254 0-0.601z" inkscape:connector-curvature="0"/>
      <path id="path220" style="fill-rule:evenodd;fill:#4d4f32" d="m13.68 17.653-0.121 0.039c-0.266 0.137-0.266 0.336 0 0.602 0.296 0.266 0.519 0.359 0.679 0.281l0.082-0.039c-0.215-0.027-0.414-0.136-0.601-0.32-0.211-0.242-0.227-0.43-0.039-0.563z" inkscape:connector-curvature="0"/>
      <path id="path222" style="fill-rule:evenodd;fill:#606524" d="m13.641 18.333c-0.426-0.105-0.68-0.051-0.762 0.16-0.078 0.188 0.094 0.293 0.519 0.321 0.43 0 0.68-0.051 0.762-0.161 0.078-0.105-0.094-0.211-0.519-0.32z" inkscape:connector-curvature="0"/>
      <path id="path224" style="fill-rule:evenodd;fill:#4d4f32" d="m12.922 18.376-0.043 0.117c-0.078 0.188 0.094 0.293 0.519 0.321 0.43 0 0.68-0.051 0.762-0.161v-0.078c-0.16 0.106-0.398 0.145-0.719 0.117-0.375-0.023-0.546-0.132-0.519-0.316z" inkscape:connector-curvature="0"/>
      <path id="path226" style="fill-rule:evenodd;fill:#7d7f67" d="m13.719 19.056c-0.184 0.32-0.145 0.492 0.121 0.519 0.265 0.028 0.441-0.121 0.519-0.441 0.082-0.293 0.039-0.465-0.121-0.52-0.133-0.027-0.304 0.121-0.519 0.442z" inkscape:connector-curvature="0"/>
      <path id="path228" style="fill-rule:evenodd;fill:#4d4f32" d="m13.719 19.575h0.121c0.265 0.028 0.441-0.121 0.519-0.441 0.082-0.293 0.039-0.465-0.121-0.52l-0.078 0.039c0.106 0.133 0.121 0.309 0.039 0.52-0.078 0.242-0.238 0.375-0.48 0.402z" inkscape:connector-curvature="0"/>
      <path id="path230" style="fill-rule:evenodd;fill:#7d7f67" d="m14.641 17.493c-0.293-0.027-0.481 0.11-0.563 0.403-0.078 0.32-0.039 0.504 0.121 0.558 0.16 0.028 0.336-0.121 0.52-0.441 0.215-0.321 0.187-0.492-0.078-0.52z" inkscape:connector-curvature="0"/>
      <path id="path232" style="fill-rule:evenodd;fill:#4d4f32" d="m14.738 17.493h-0.097c-0.293-0.027-0.481 0.11-0.563 0.403-0.078 0.32-0.039 0.504 0.121 0.558l0.121-0.039c-0.105-0.105-0.121-0.281-0.039-0.519 0.078-0.262 0.231-0.395 0.457-0.403z" inkscape:connector-curvature="0"/>
      <path id="path234" style="fill-rule:evenodd;fill:#606524" d="m16.68 22.056c0.613-0.11 0.851-0.293 0.718-0.563-0.132-0.265-0.464-0.293-1-0.078-0.531 0.211-0.773 0.399-0.718 0.559 0.027 0.16 0.359 0.187 1 0.082z" inkscape:connector-curvature="0"/>
      <path id="path236" style="fill-rule:evenodd;fill:#4d4f32" d="m17.398 21.614v-0.121c-0.132-0.265-0.464-0.293-1-0.078-0.531 0.211-0.773 0.399-0.718 0.559l0.082 0.082c0.133-0.188 0.383-0.364 0.758-0.52 0.453-0.16 0.746-0.136 0.878 0.078z" inkscape:connector-curvature="0"/>
      <path id="path238" style="fill-rule:evenodd;fill:#626544" d="m16.281 22.614c0.504 0.266 0.824 0.266 0.957 0 0.16-0.293-0.023-0.507-0.558-0.64s-0.879-0.121-1.039 0.039c-0.106 0.137 0.105 0.336 0.64 0.601z" inkscape:connector-curvature="0"/>
      <path id="path240" style="fill-rule:evenodd;fill:#4d4f32" d="m17.16 22.692 0.078-0.078c0.16-0.293-0.023-0.507-0.558-0.64s-0.879-0.121-1.039 0.039l0.039 0.121c0.242-0.106 0.558-0.094 0.961 0.039 0.425 0.137 0.597 0.309 0.519 0.519z" inkscape:connector-curvature="0"/>
      <path id="path242" style="fill-rule:evenodd;fill:#626544" d="m15.48 21.415c-0.292-0.375-0.574-0.469-0.839-0.281-0.243 0.187-0.172 0.426 0.199 0.719 0.348 0.269 0.613 0.363 0.801 0.281 0.16-0.106 0.105-0.348-0.161-0.719z" inkscape:connector-curvature="0"/>
      <path id="path244" style="fill-rule:evenodd;fill:#4d4f32" d="m14.801 21.095-0.16 0.039c-0.243 0.187-0.172 0.426 0.199 0.719 0.348 0.269 0.613 0.363 0.801 0.281l0.039-0.078c-0.239-0.028-0.481-0.149-0.719-0.364-0.293-0.238-0.348-0.437-0.16-0.597z" inkscape:connector-curvature="0"/>
      <path id="path246" style="fill-rule:evenodd;fill:#606524" d="m14.879 21.853c-0.481-0.078-0.734 0-0.758 0.242-0.027 0.238 0.199 0.347 0.68 0.32 0.48-0.027 0.734-0.105 0.758-0.242 0.054-0.133-0.172-0.238-0.68-0.32z" inkscape:connector-curvature="0"/>
      <path id="path248" style="fill-rule:evenodd;fill:#4d4f32" d="m15.52 22.095c-0.133 0.105-0.387 0.16-0.758 0.16-0.375 0-0.574-0.094-0.602-0.281l-0.039 0.121c-0.027 0.238 0.199 0.347 0.68 0.32 0.48-0.027 0.734-0.105 0.758-0.242 0.027 0 0.015-0.023-0.039-0.078z" inkscape:connector-curvature="0"/>
      <path id="path250" style="fill-rule:evenodd;fill:#7d7f67" d="m15.238 22.692c-0.16 0.375-0.078 0.563 0.242 0.563 0.321 0 0.481-0.172 0.481-0.52 0-0.347-0.094-0.535-0.281-0.562-0.16-0.051-0.305 0.121-0.442 0.519z" inkscape:connector-curvature="0"/>
      <path id="path252" style="fill-rule:evenodd;fill:#4d4f32" d="m15.359 23.255h0.121c0.321 0 0.481-0.172 0.481-0.52 0-0.347-0.094-0.535-0.281-0.562h-0.121c0.136 0.109 0.203 0.309 0.203 0.602-0.028 0.292-0.16 0.453-0.403 0.48z" inkscape:connector-curvature="0"/>
      <path id="path254" style="fill-rule:evenodd;fill:#7d7f67" d="m16.039 21.415c0.133-0.402 0.055-0.601-0.238-0.601s-0.442 0.187-0.442 0.562c0 0.344 0.082 0.531 0.243 0.559 0.16 0.054 0.304-0.121 0.437-0.52z" inkscape:connector-curvature="0"/>
      <path id="path256" style="fill-rule:evenodd;fill:#4d4f32" d="m15.922 20.853-0.121-0.039c-0.293 0-0.442 0.187-0.442 0.562 0 0.344 0.082 0.531 0.243 0.559l0.078-0.039c-0.133-0.137-0.188-0.336-0.16-0.602 0.027-0.266 0.16-0.414 0.402-0.441z" inkscape:connector-curvature="0"/>
      <path id="path258" style="fill-rule:evenodd;fill:#606524" d="m13.238 22.853c0.617-0.106 0.856-0.293 0.723-0.559s-0.453-0.293-0.961-0.078c-0.535 0.211-0.785 0.398-0.762 0.559 0.055 0.16 0.387 0.187 1 0.078z" inkscape:connector-curvature="0"/>
      <path id="path260" style="fill-rule:evenodd;fill:#4d4f32" d="m14 22.415-0.039-0.121c-0.133-0.266-0.453-0.293-0.961-0.078-0.535 0.211-0.785 0.398-0.762 0.559l0.121 0.078c0.106-0.184 0.36-0.36 0.762-0.52 0.453-0.16 0.746-0.133 0.879 0.082z" inkscape:connector-curvature="0"/>
      <path id="path262" style="fill-rule:evenodd;fill:#626544" d="m12.84 23.415c0.508 0.266 0.84 0.266 1 0 0.133-0.293-0.067-0.508-0.602-0.64-0.531-0.133-0.863-0.122-1 0.039-0.133 0.132 0.067 0.336 0.602 0.601z" inkscape:connector-curvature="0"/>
      <path id="path264" style="fill-rule:evenodd;fill:#4d4f32" d="m13.719 23.493 0.121-0.078c0.133-0.293-0.067-0.508-0.602-0.64-0.531-0.133-0.863-0.122-1 0.039v0.121c0.242-0.106 0.563-0.094 0.961 0.039 0.426 0.133 0.602 0.308 0.52 0.519z" inkscape:connector-curvature="0"/>
      <path id="path266" style="fill-rule:evenodd;fill:#626544" d="m12.039 22.216c-0.266-0.375-0.531-0.469-0.801-0.281-0.238 0.187-0.172 0.425 0.203 0.718 0.348 0.266 0.614 0.36 0.797 0.282 0.16-0.106 0.094-0.348-0.199-0.719z" inkscape:connector-curvature="0"/>
      <path id="path268" style="fill-rule:evenodd;fill:#4d4f32" d="m11.359 21.896-0.121 0.039c-0.238 0.187-0.172 0.425 0.203 0.718 0.348 0.266 0.614 0.36 0.797 0.282l0.043-0.082c-0.242-0.024-0.496-0.145-0.761-0.36-0.293-0.238-0.348-0.437-0.161-0.597z" inkscape:connector-curvature="0"/>
      <path id="path270" style="fill-rule:evenodd;fill:#606524" d="m11.48 22.653c-0.48-0.078-0.734 0-0.761 0.243-0.024 0.238 0.203 0.343 0.679 0.32 0.457-0.027 0.707-0.109 0.762-0.242s-0.172-0.239-0.68-0.321z" inkscape:connector-curvature="0"/>
      <path id="path272" style="fill-rule:evenodd;fill:#4d4f32" d="m10.762 22.775-0.043 0.121c-0.024 0.238 0.203 0.343 0.679 0.32 0.457-0.027 0.707-0.109 0.762-0.242l-0.039-0.078c-0.16 0.105-0.414 0.16-0.762 0.16-0.371 0-0.574-0.094-0.597-0.281z" inkscape:connector-curvature="0"/>
      <path id="path274" style="fill-rule:evenodd;fill:#7d7f67" d="m11.801 23.493c-0.133 0.375-0.055 0.563 0.238 0.563 0.32 0 0.481-0.176 0.481-0.52 0-0.347-0.094-0.535-0.282-0.562-0.16-0.055-0.304 0.121-0.437 0.519z" inkscape:connector-curvature="0"/>
      <path id="path276" style="fill-rule:evenodd;fill:#4d4f32" d="m11.922 24.056h0.117c0.32 0 0.481-0.176 0.481-0.52 0-0.347-0.094-0.535-0.282-0.562h-0.078c0.133 0.133 0.188 0.336 0.16 0.601-0.027 0.293-0.16 0.453-0.398 0.481z" inkscape:connector-curvature="0"/>
      <path id="path278" style="fill-rule:evenodd;fill:#7d7f67" d="m12.641 22.216c0.132-0.402 0.039-0.602-0.282-0.602-0.293 0-0.437 0.188-0.437 0.559 0 0.348 0.078 0.535 0.238 0.562 0.16 0.051 0.32-0.121 0.481-0.519z" inkscape:connector-curvature="0"/>
      <path id="path280" style="fill-rule:evenodd;fill:#4d4f32" d="m12.48 21.653-0.121-0.039c-0.293 0-0.437 0.188-0.437 0.559 0 0.348 0.078 0.535 0.238 0.562l0.121-0.043c-0.136-0.105-0.203-0.304-0.203-0.597 0.027-0.266 0.16-0.414 0.402-0.442z" inkscape:connector-curvature="0"/>
      <path id="path282" style="fill-rule:evenodd;fill:#7b9828" d="m24.801 20.536c0.613 0.078 0.933 0.039 0.961-0.121 0.023-0.16-0.215-0.336-0.723-0.519-0.531-0.188-0.851-0.137-0.961 0.16-0.105 0.238 0.137 0.398 0.723 0.48z" inkscape:connector-curvature="0"/>
      <path id="path284" style="fill-rule:evenodd;fill:#738346" d="m24.078 20.173c0.11-0.211 0.375-0.254 0.801-0.117 0.402 0.105 0.668 0.254 0.801 0.437l0.082-0.078c0.023-0.16-0.215-0.336-0.723-0.519-0.531-0.188-0.851-0.137-0.961 0.16v0.117z" inkscape:connector-curvature="0"/>
      <path id="path286" style="fill-rule:evenodd;fill:#889956" d="m25.281 21.056c0.453-0.27 0.614-0.469 0.481-0.602-0.137-0.133-0.457-0.121-0.961 0.039-0.508 0.16-0.668 0.36-0.481 0.602 0.16 0.238 0.481 0.226 0.961-0.039z" inkscape:connector-curvature="0"/>
      <path id="path288" style="fill-rule:evenodd;fill:#738346" d="m24.398 21.173c-0.105-0.211 0.055-0.387 0.481-0.52 0.348-0.132 0.652-0.171 0.922-0.117l-0.039-0.082c-0.137-0.133-0.457-0.121-0.961 0.039-0.508 0.16-0.668 0.36-0.481 0.602l0.078 0.078z" inkscape:connector-curvature="0"/>
      <path id="path290" style="fill-rule:evenodd;fill:#889956" d="m25.922 19.896c-0.242 0.371-0.281 0.586-0.121 0.64 0.187 0.078 0.437-0.027 0.758-0.32 0.32-0.27 0.347-0.481 0.082-0.641-0.243-0.16-0.481-0.054-0.719 0.321z" inkscape:connector-curvature="0"/>
      <path id="path292" style="fill-rule:evenodd;fill:#738346" d="m26.52 19.536c0.214 0.133 0.187 0.317-0.079 0.559-0.242 0.238-0.468 0.359-0.679 0.359l0.039 0.082c0.187 0.078 0.437-0.027 0.758-0.32 0.32-0.27 0.347-0.481 0.082-0.641l-0.121-0.039z" inkscape:connector-curvature="0"/>
      <path id="path294" style="fill-rule:evenodd;fill:#7b9828" d="m26.52 20.255c-0.481 0.105-0.692 0.227-0.641 0.359 0.055 0.133 0.309 0.188 0.762 0.161 0.425 0 0.625-0.106 0.597-0.321-0.023-0.238-0.265-0.304-0.718-0.199z" inkscape:connector-curvature="0"/>
      <path id="path296" style="fill-rule:evenodd;fill:#738346" d="m27.199 20.333c0 0.188-0.187 0.293-0.558 0.32-0.321 0.028-0.575-0.011-0.762-0.117v0.078c0.055 0.133 0.309 0.188 0.762 0.161 0.425 0 0.625-0.106 0.597-0.321l-0.039-0.121z" inkscape:connector-curvature="0"/>
      <path id="path298" style="fill-rule:evenodd;fill:#a5b37d" d="m26.238 21.056c-0.133-0.348-0.277-0.508-0.437-0.481-0.16 0.051-0.227 0.239-0.199 0.559 0.023 0.348 0.171 0.508 0.437 0.48 0.293-0.027 0.359-0.214 0.199-0.558z" inkscape:connector-curvature="0"/>
      <path id="path300" style="fill-rule:evenodd;fill:#738346" d="m26.16 21.614c-0.238-0.027-0.375-0.172-0.398-0.441-0.055-0.238-0.016-0.426 0.117-0.559l-0.078-0.039c-0.16 0.051-0.227 0.239-0.199 0.559 0.023 0.348 0.171 0.508 0.437 0.48h0.121z" inkscape:connector-curvature="0"/>
      <path id="path302" style="fill-rule:evenodd;fill:#a5b37d" d="m25.359 19.896c0.161 0.371 0.321 0.531 0.481 0.48 0.16-0.027 0.226-0.215 0.199-0.562-0.027-0.348-0.184-0.504-0.48-0.481-0.293 0.027-0.36 0.215-0.2 0.563z" inkscape:connector-curvature="0"/>
      <path id="path304" style="fill-rule:evenodd;fill:#738346" d="m25.441 19.376c0.239 0 0.371 0.133 0.399 0.399 0.055 0.238 0.027 0.425-0.078 0.558l0.078 0.043c0.16-0.027 0.226-0.215 0.199-0.562-0.027-0.348-0.184-0.504-0.48-0.481l-0.118 0.043z" inkscape:connector-curvature="0"/>
      <path id="path306" style="fill-rule:evenodd;fill:#606524" d="m29.762 20.935c0.504-0.266 0.691-0.493 0.558-0.68-0.16-0.215-0.453-0.148-0.879 0.199-0.429 0.348-0.601 0.586-0.519 0.719 0.051 0.137 0.332 0.055 0.84-0.238z" inkscape:connector-curvature="0"/>
      <path id="path308" style="fill-rule:evenodd;fill:#4d4f32" d="m30.359 20.333-0.039-0.078c-0.16-0.215-0.453-0.148-0.879 0.199-0.429 0.348-0.601 0.586-0.519 0.719l0.078 0.043c0.078-0.215 0.281-0.441 0.602-0.68 0.343-0.269 0.597-0.336 0.757-0.203z" inkscape:connector-curvature="0"/>
      <path id="path310" style="fill-rule:evenodd;fill:#626544" d="m29.52 21.575c0.48 0.078 0.757-0.027 0.839-0.32 0.082-0.266-0.121-0.387-0.597-0.359-0.485 0.05-0.762 0.16-0.84 0.32-0.11 0.16 0.09 0.277 0.598 0.359z" inkscape:connector-curvature="0"/>
      <path id="path312" style="fill-rule:evenodd;fill:#4d4f32" d="m30.281 21.376 0.078-0.121c0.082-0.266-0.121-0.387-0.597-0.359-0.485 0.05-0.762 0.16-0.84 0.32-0.055 0-0.055 0.023 0 0.078 0.183-0.133 0.465-0.215 0.84-0.238 0.398 0 0.57 0.105 0.519 0.32z" inkscape:connector-curvature="0"/>
      <path id="path314" style="fill-rule:evenodd;fill:#626544" d="m28.68 20.735c-0.321-0.269-0.575-0.281-0.758-0.043-0.188 0.243-0.11 0.43 0.238 0.563 0.375 0.16 0.625 0.172 0.762 0.039 0.133-0.133 0.051-0.32-0.242-0.559z" inkscape:connector-curvature="0"/>
      <path id="path316" style="fill-rule:evenodd;fill:#4d4f32" d="m28 20.614-0.078 0.078c-0.188 0.243-0.11 0.43 0.238 0.563 0.375 0.16 0.625 0.172 0.762 0.039v-0.078c-0.188 0.051-0.414 0.012-0.684-0.121-0.293-0.133-0.371-0.293-0.238-0.481z" inkscape:connector-curvature="0"/>
      <path id="path318" style="fill-rule:evenodd;fill:#606524" d="m28.238 21.294c-0.449 0.055-0.664 0.188-0.636 0.398 0.023 0.188 0.238 0.215 0.636 0.083 0.403-0.133 0.617-0.266 0.641-0.399 0-0.137-0.211-0.16-0.641-0.082z" inkscape:connector-curvature="0"/>
      <path id="path320" style="fill-rule:evenodd;fill:#4d4f32" d="m27.641 21.575-0.039 0.117c0.023 0.188 0.238 0.215 0.636 0.083 0.403-0.133 0.617-0.266 0.641-0.399l-0.078-0.082c-0.11 0.133-0.321 0.254-0.641 0.359-0.32 0.11-0.492 0.082-0.519-0.078z" inkscape:connector-curvature="0"/>
      <path id="path322" style="fill-rule:evenodd;fill:#7d7f67" d="m28.641 21.896c-0.082 0.371 0.011 0.519 0.281 0.437 0.266-0.078 0.371-0.266 0.316-0.558-0.05-0.321-0.16-0.465-0.316-0.442-0.137 0-0.231 0.188-0.281 0.563z" inkscape:connector-curvature="0"/>
      <path id="path324" style="fill-rule:evenodd;fill:#4d4f32" d="m29.078 21.853c0.047 0.23-0.004 0.39-0.156 0.48 0.266-0.078 0.371-0.266 0.316-0.558-0.05-0.321-0.16-0.465-0.316-0.442l-0.082 0.043c0.133 0.078 0.215 0.238 0.238 0.477z" inkscape:connector-curvature="0"/>
      <path id="path326" style="fill-rule:evenodd;fill:#7d7f67" d="m29.16 20.575c0.051-0.402-0.055-0.562-0.32-0.48-0.266 0.078-0.375 0.281-0.32 0.597 0.054 0.321 0.16 0.481 0.32 0.481 0.16-0.023 0.265-0.227 0.32-0.598z" inkscape:connector-curvature="0"/>
      <path id="path328" style="fill-rule:evenodd;fill:#4d4f32" d="m28.961 20.095h-0.121c-0.266 0.078-0.375 0.281-0.32 0.597 0.054 0.321 0.16 0.481 0.32 0.481l0.082-0.078c-0.137-0.082-0.215-0.242-0.242-0.481-0.028-0.265 0.066-0.441 0.281-0.519z" inkscape:connector-curvature="0"/>
      <path id="path330" style="fill-rule:evenodd;fill:#7b9828" d="m18.84 17.692c0.293 0 0.426-0.05 0.398-0.156 0-0.136-0.265-0.109-0.797 0.078-0.027 0.078 0.106 0.106 0.399 0.078z" inkscape:connector-curvature="0"/>
      <path id="path332" style="fill-rule:evenodd;fill:#889956" d="m18.602 17.896c0.16 0.105 0.293 0.117 0.398 0.039 0.188-0.133 0-0.227-0.559-0.282-0.082 0.055-0.027 0.133 0.161 0.243z" inkscape:connector-curvature="0"/>
      <path id="path334" style="fill-rule:evenodd;fill:#889956" d="m18.16 17.294c-0.133 0.055-0.148 0.133-0.039 0.242 0.106 0.106 0.199 0.156 0.277 0.156 0.028-0.343-0.05-0.476-0.238-0.398z" inkscape:connector-curvature="0"/>
      <path id="path336" style="fill-rule:evenodd;fill:#7b9828" d="m17.762 17.575c-0.055 0.078 0.023 0.133 0.238 0.16 0.188 0.028 0.305 0.012 0.359-0.043-0.32-0.183-0.519-0.226-0.597-0.117z" inkscape:connector-curvature="0"/>
      <path id="path338" style="fill-rule:evenodd;fill:#a5b37d" d="m18.121 17.853c-0.133 0.136-0.133 0.214 0 0.242 0.211 0.027 0.305-0.106 0.277-0.403-0.05-0.023-0.144 0.028-0.277 0.161z" inkscape:connector-curvature="0"/>
      <path id="path340" style="fill-rule:evenodd;fill:#738346" d="m18.078 18.056 0.043 0.039c0.211 0.027 0.305-0.106 0.277-0.403h-0.039c0.028 0.055 0.016 0.137-0.039 0.243-0.054 0.105-0.132 0.144-0.242 0.121z" inkscape:connector-curvature="0"/>
      <path id="path342" style="fill-rule:evenodd;fill:#a5b37d" d="m18.68 17.216c-0.133-0.027-0.227 0.023-0.282 0.16-0.078 0.133-0.078 0.211 0 0.238 0.375-0.238 0.469-0.375 0.282-0.398z" inkscape:connector-curvature="0"/>
      <path id="path344" style="fill-rule:evenodd;fill:#738346" d="m18.719 17.255-0.039-0.039c-0.133-0.027-0.227 0.023-0.282 0.16-0.078 0.133-0.078 0.211 0 0.238h0.043c-0.027-0.054-0.015-0.132 0.039-0.238 0.055-0.109 0.133-0.148 0.239-0.121z" inkscape:connector-curvature="0"/>
      <path id="path346" style="fill-rule:evenodd;fill:#7b9828" d="m11.238 20.294c0.59-0.133 0.817-0.32 0.684-0.559-0.16-0.242-0.496-0.253-1-0.043-0.481 0.243-0.695 0.442-0.641 0.602 0.051 0.133 0.371 0.133 0.957 0z" inkscape:connector-curvature="0"/>
      <path id="path348" style="fill-rule:evenodd;fill:#738346" d="m11.922 19.853v-0.118c-0.16-0.242-0.496-0.253-1-0.043-0.481 0.243-0.695 0.442-0.641 0.602l0.078 0.082c0.106-0.187 0.348-0.375 0.719-0.562 0.43-0.161 0.707-0.145 0.844 0.039z" inkscape:connector-curvature="0"/>
      <path id="path350" style="fill-rule:evenodd;fill:#889956" d="m10.879 20.853c0.508 0.214 0.828 0.187 0.961-0.078 0.133-0.266-0.067-0.442-0.602-0.52-0.531-0.105-0.851-0.082-0.957 0.078-0.136 0.133 0.067 0.309 0.598 0.52z" inkscape:connector-curvature="0"/>
      <path id="path352" style="fill-rule:evenodd;fill:#738346" d="m11.762 20.896 0.078-0.121c0.133-0.266-0.067-0.442-0.602-0.52-0.531-0.105-0.851-0.082-0.957 0.078-0.054 0-0.054 0.027 0 0.082 0.239-0.082 0.547-0.082 0.918 0 0.453 0.078 0.641 0.238 0.563 0.481z" inkscape:connector-curvature="0"/>
      <path id="path354" style="fill-rule:evenodd;fill:#889956" d="m10.078 19.775c-0.293-0.321-0.558-0.387-0.797-0.2-0.242 0.184-0.176 0.399 0.199 0.641 0.348 0.238 0.598 0.305 0.758 0.199 0.16-0.082 0.11-0.293-0.16-0.64z" inkscape:connector-curvature="0"/>
      <path id="path356" style="fill-rule:evenodd;fill:#738346" d="m9.398 19.493-0.117 0.082c-0.242 0.184-0.176 0.399 0.199 0.641 0.348 0.238 0.598 0.305 0.758 0.199l0.043-0.082c-0.242 0-0.48-0.094-0.722-0.277-0.293-0.188-0.344-0.375-0.161-0.563z" inkscape:connector-curvature="0"/>
      <path id="path358" style="fill-rule:evenodd;fill:#7b9828" d="m9.52 20.216c-0.481-0.055-0.719 0.039-0.719 0.277 0 0.215 0.226 0.293 0.679 0.242 0.426-0.027 0.665-0.109 0.719-0.242 0.028-0.133-0.199-0.226-0.679-0.277z" inkscape:connector-curvature="0"/>
      <path id="path360" style="fill-rule:evenodd;fill:#738346" d="m8.84 20.376-0.039 0.117c0 0.215 0.226 0.293 0.679 0.242 0.426-0.027 0.665-0.109 0.719-0.242l-0.039-0.078c-0.133 0.106-0.375 0.172-0.719 0.199-0.375 0.028-0.574-0.054-0.601-0.238z" inkscape:connector-curvature="0"/>
      <path id="path362" style="fill-rule:evenodd;fill:#a5b37d" d="m9.879 20.974c-0.106 0.375-0.012 0.547 0.281 0.519 0.293-0.027 0.426-0.199 0.399-0.519-0.028-0.321-0.118-0.492-0.278-0.52-0.16-0.027-0.293 0.149-0.402 0.52z" inkscape:connector-curvature="0"/>
      <path id="path364" style="fill-rule:evenodd;fill:#738346" d="m10.039 21.493h0.121c0.293-0.027 0.426-0.199 0.399-0.519-0.028-0.321-0.118-0.492-0.278-0.52l-0.082 0.039c0.133 0.11 0.199 0.282 0.199 0.52 0 0.297-0.117 0.453-0.359 0.48z" inkscape:connector-curvature="0"/>
      <path id="path366" style="fill-rule:evenodd;fill:#a5b37d" d="m10.602 19.735c0.105-0.375 0.011-0.562-0.282-0.562-0.293 0.027-0.425 0.203-0.398 0.519 0.023 0.348 0.117 0.536 0.277 0.563s0.293-0.148 0.403-0.52z" inkscape:connector-curvature="0"/>
      <path id="path368" style="fill-rule:evenodd;fill:#738346" d="m10.441 19.216-0.121-0.043c-0.293 0.027-0.425 0.203-0.398 0.519 0.023 0.348 0.117 0.536 0.277 0.563l0.082-0.039c-0.136-0.109-0.203-0.281-0.203-0.524 0-0.292 0.121-0.453 0.363-0.476z" inkscape:connector-curvature="0"/>
      <path id="path370" style="fill-rule:evenodd;fill:#7b9828" d="m7.559 19.454c0.375-0.078 0.519-0.199 0.441-0.359-0.105-0.16-0.32-0.16-0.641 0-0.293 0.133-0.425 0.254-0.398 0.359 0.027 0.106 0.227 0.106 0.598 0z" inkscape:connector-curvature="0"/>
      <path id="path372" style="fill-rule:evenodd;fill:#738346" d="m8 19.173v-0.078c-0.105-0.16-0.32-0.16-0.641 0-0.293 0.133-0.425 0.254-0.398 0.359l0.078 0.039c0.055-0.105 0.199-0.211 0.441-0.32 0.266-0.106 0.442-0.106 0.52 0z" inkscape:connector-curvature="0"/>
      <path id="path374" style="fill-rule:evenodd;fill:#889956" d="m7.32 19.814c0.321 0.132 0.52 0.121 0.602-0.039 0.078-0.188-0.043-0.309-0.363-0.36-0.321-0.055-0.52-0.027-0.598 0.078-0.082 0.082 0.039 0.188 0.359 0.321z" inkscape:connector-curvature="0"/>
      <path id="path376" style="fill-rule:evenodd;fill:#738346" d="m7.879 19.814 0.043-0.039c0.078-0.188-0.043-0.309-0.363-0.36-0.321-0.055-0.52-0.027-0.598 0.078v0.043c0.16-0.054 0.359-0.054 0.598 0 0.269 0.051 0.375 0.145 0.32 0.278z" inkscape:connector-curvature="0"/>
      <path id="path378" style="fill-rule:evenodd;fill:#889956" d="m6.84 19.134c-0.215-0.215-0.387-0.254-0.52-0.121-0.132 0.109-0.082 0.226 0.16 0.363 0.215 0.16 0.375 0.211 0.481 0.16 0.105-0.054 0.066-0.187-0.121-0.402z" inkscape:connector-curvature="0"/>
      <path id="path380" style="fill-rule:evenodd;fill:#7b9828" d="m6.48 19.415c-0.292-0.027-0.441 0.027-0.441 0.16s0.149 0.184 0.441 0.16c0.266-0.027 0.415-0.082 0.442-0.16 0.023-0.082-0.121-0.133-0.442-0.16z" inkscape:connector-curvature="0"/>
      <path id="path382" style="fill-rule:evenodd;fill:#738346" d="m6.039 19.493v0.082c0 0.133 0.149 0.184 0.441 0.16 0.266-0.027 0.415-0.082 0.442-0.16l-0.043-0.039c-0.106 0.078-0.266 0.117-0.481 0.117-0.21 0.028-0.332-0.027-0.359-0.16z" inkscape:connector-curvature="0"/>
      <path id="path384" style="fill-rule:evenodd;fill:#a5b37d" d="m6.719 19.896c-0.078 0.238-0.024 0.343 0.16 0.32 0.187 0 0.266-0.109 0.242-0.32 0-0.215-0.055-0.336-0.16-0.36-0.106 0-0.188 0.117-0.242 0.36z" inkscape:connector-curvature="0"/>
      <path id="path386" style="fill-rule:evenodd;fill:#738346" d="m6.801 20.216h0.078c0.187 0 0.266-0.109 0.242-0.32 0-0.215-0.055-0.336-0.16-0.36l-0.039 0.039c0.078 0.078 0.117 0.2 0.117 0.36-0.027 0.16-0.105 0.254-0.238 0.281z" inkscape:connector-curvature="0"/>
      <path id="path388" style="fill-rule:evenodd;fill:#a5b37d" d="m7.16 19.095c0.078-0.242 0.028-0.348-0.16-0.32-0.188 0-0.266 0.105-0.238 0.32 0 0.215 0.05 0.332 0.16 0.359 0.105 0 0.183-0.121 0.238-0.359z" inkscape:connector-curvature="0"/>
      <path id="path390" style="fill-rule:evenodd;fill:#738346" d="m7.078 18.775h-0.078c-0.188 0-0.266 0.105-0.238 0.32 0 0.215 0.05 0.332 0.16 0.359l0.039-0.039c-0.082-0.082-0.121-0.199-0.121-0.359 0.027-0.16 0.105-0.254 0.238-0.281z" inkscape:connector-curvature="0"/>
      <path id="path392" style="fill-rule:evenodd;fill:#7b9828" d="m23.52 22.735c0.375-0.027 0.558-0.093 0.558-0.199 0-0.109-0.172-0.176-0.519-0.203-0.348-0.051-0.532 0.016-0.559 0.203-0.027 0.184 0.145 0.25 0.52 0.199z" inkscape:connector-curvature="0"/>
      <path id="path394" style="fill-rule:evenodd;fill:#738346" d="m23 22.614c0.055-0.132 0.227-0.187 0.52-0.16 0.265 0.028 0.441 0.082 0.519 0.16l0.039-0.078c0-0.109-0.172-0.176-0.519-0.203-0.348-0.051-0.532 0.016-0.559 0.203v0.078z" inkscape:connector-curvature="0"/>
      <path id="path396" style="fill-rule:evenodd;fill:#889956" d="m23.84 23.013c0.265-0.238 0.348-0.387 0.238-0.438-0.078-0.082-0.266-0.039-0.558 0.117-0.293 0.161-0.375 0.309-0.239 0.442 0.133 0.133 0.321 0.094 0.559-0.121z" inkscape:connector-curvature="0"/>
      <path id="path398" style="fill-rule:evenodd;fill:#889956" d="m24.121 22.173c-0.109 0.269-0.109 0.414 0 0.441 0.133 0.028 0.277-0.066 0.438-0.281 0.16-0.211 0.148-0.359-0.039-0.437-0.188-0.055-0.321 0.039-0.399 0.277z" inkscape:connector-curvature="0"/>
      <path id="path400" style="fill-rule:evenodd;fill:#738346" d="m24.441 21.896c0.133 0.078 0.133 0.199 0 0.359-0.109 0.16-0.226 0.266-0.363 0.32l0.043 0.039c0.133 0.028 0.277-0.066 0.438-0.281 0.16-0.211 0.148-0.359-0.039-0.437h-0.079z" inkscape:connector-curvature="0"/>
      <path id="path402" style="fill-rule:evenodd;fill:#7b9828" d="m24.52 22.333c-0.293 0.137-0.415 0.242-0.36 0.32 0.051 0.055 0.215 0.055 0.481 0 0.293-0.078 0.414-0.183 0.359-0.32-0.055-0.133-0.215-0.133-0.48 0z" inkscape:connector-curvature="0"/>
      <path id="path404" style="fill-rule:evenodd;fill:#a5b37d" d="m24.48 22.853c-0.132-0.184-0.253-0.25-0.359-0.2-0.109 0.055-0.121 0.176-0.043 0.36 0.055 0.187 0.16 0.254 0.32 0.203 0.188-0.027 0.215-0.149 0.082-0.363z" inkscape:connector-curvature="0"/>
      <path id="path406" style="fill-rule:evenodd;fill:#738346" d="m24.16 22.974c-0.055-0.133-0.055-0.239 0-0.321h-0.039c-0.109 0.055-0.121 0.176-0.043 0.36 0.055 0.187 0.16 0.254 0.32 0.203-0.093-0.016-0.175-0.094-0.238-0.242z" inkscape:connector-curvature="0"/>
      <path id="path408" style="fill-rule:evenodd;fill:#a5b37d" d="m23.762 22.255c0.133 0.215 0.25 0.293 0.359 0.238 0.106-0.027 0.117-0.144 0.039-0.359-0.055-0.215-0.16-0.293-0.32-0.238-0.188 0.05-0.215 0.171-0.078 0.359z" inkscape:connector-curvature="0"/>
      <g id="g410">
        <g id="g412">
          <g id="g418">
            <path id="path432" style="fill-rule:evenodd;fill:url(#linearGradient420)" d="m7.16 15.415c-0.105-1.066 0.028-2.613 0.399-4.64 0-0.239-0.133-0.254-0.399-0.04-0.215 0.852-0.305 2.067-0.281 3.641 0.027 0.984 0.109 1.719 0.242 2.199l0.199 0.399-0.16-1.559z" inkscape:connector-curvature="0"/>
          </g>
        </g>
      </g>
      <g id="g434">
        <g id="g436">
          <g id="g442">
            <path id="path456" style="fill-rule:evenodd;fill:url(#linearGradient444)" d="m5.32 19.493 1.84-9.32c-0.055-0.266-0.199-0.277-0.441-0.039l-1.399 9.359z" inkscape:connector-curvature="0"/>
          </g>
        </g>
      </g>
      <g id="g458">
        <g id="g460">
          <g id="g466">
            <path id="path480" style="fill-rule:evenodd;fill:url(#linearGradient468)" d="m5.398 16.376 1.563-6.203c-0.027-0.16-0.149-0.172-0.359-0.039l-1.204 6.242z" inkscape:connector-curvature="0"/>
          </g>
        </g>
      </g>
      <g id="g482">
        <g id="g484">
          <g id="g490">
            <path id="path504" style="fill-rule:evenodd;fill:url(#linearGradient492)" d="m5.32 14.415c0.426-1.336 0.746-2.668 0.961-4 0.024-0.187-0.027-0.32-0.16-0.402-0.133-0.078-0.215 0-0.242 0.242-0.266 1.465-0.531 2.758-0.801 3.879-0.183 0.695-0.492 1.613-0.918 2.762l-0.601 1.48 0.64-1.242c0.508-0.984 0.879-1.895 1.121-2.719z" inkscape:connector-curvature="0"/>
          </g>
        </g>
      </g>
      <g id="g506">
        <g id="g508">
          <g id="g514">
            <path id="path528" style="fill-rule:evenodd;fill:url(#linearGradient516)" d="m5.359 12.653c0.266-0.878 0.469-1.757 0.602-2.64 0.027-0.133 0-0.227-0.082-0.278-0.078-0.054-0.133 0-0.16 0.161-0.184 0.984-0.371 1.839-0.559 2.558l-0.961 2.84 0.442-0.84c0.32-0.64 0.558-1.238 0.718-1.801z" inkscape:connector-curvature="0"/>
          </g>
        </g>
      </g>
      <g id="g530">
        <g id="g532">
          <g id="g538">
            <path id="path552" style="fill-rule:evenodd;fill:url(#linearGradient540)" d="m3.078 11.853c-0.051-0.692 0.043-1.68 0.281-2.957-0.027-0.161-0.121-0.176-0.281-0.043-0.133 0.562-0.183 1.336-0.156 2.32 0 0.641 0.039 1.109 0.117 1.402l0.121 0.278-0.082-1z" inkscape:connector-curvature="0"/>
          </g>
        </g>
      </g>
      <g id="g554">
        <g id="g556">
          <g id="g562">
            <path id="path576" style="fill-rule:evenodd;fill:url(#linearGradient564)" d="m1.922 14.454 1.156-5.961c-0.023-0.16-0.117-0.16-0.277 0l-0.879 5.961z" inkscape:connector-curvature="0"/>
          </g>
        </g>
      </g>
      <g id="g578">
        <g id="g580">
          <g id="g586">
            <path id="path600" style="fill-rule:evenodd;fill:url(#linearGradient588)" d="m7.121 15.415 1-4c-0.027-0.105-0.094-0.121-0.199-0.039l-0.801 4.039z" inkscape:connector-curvature="0"/>
          </g>
        </g>
      </g>
      <g id="g602">
        <g id="g604">
          <g id="g610">
            <path id="path624" style="fill-rule:evenodd;fill:url(#linearGradient612)" d="m1.121 10.614c0.266-0.851 0.465-1.707 0.598-2.558 0-0.137-0.039-0.215-0.117-0.242-0.082-0.051-0.137-0.012-0.161 0.121l-0.48 2.519-0.961 2.68 0.398-0.801c0.321-0.613 0.563-1.183 0.723-1.719z" inkscape:connector-curvature="0"/>
          </g>
        </g>
      </g>
      <g id="g626">
        <g id="g628">
          <g id="g634">
            <path id="path648" style="fill-rule:evenodd;fill:url(#linearGradient636)" d="m5.879 12.013 0.402-1.719c0-0.078-0.027-0.133-0.082-0.16-0.054-0.027-0.094 0.016-0.121 0.121l-0.316 1.641-0.641 1.796 0.758-1.679z" inkscape:connector-curvature="0"/>
          </g>
        </g>
      </g>
      <g id="g650">
        <g id="g652">
          <g id="g658">
            <path id="path672" style="fill-rule:evenodd;fill:url(#linearGradient660)" d="m1 9.653 0.398-1.679c0-0.078-0.023-0.133-0.078-0.16-0.054-0.051-0.093-0.028-0.121 0.082l-0.32 1.64-0.641 1.797 0.282-0.519c0.214-0.399 0.375-0.786 0.48-1.161z" inkscape:connector-curvature="0"/>
          </g>
        </g>
      </g>
      <g id="g674">
        <g id="g676">
          <g id="g682">
            <path id="path696" style="fill-rule:evenodd;fill:url(#linearGradient684)" d="m32.84 19.575c-0.508-0.933-0.973-2.402-1.399-4.402-0.132-0.238-0.281-0.199-0.441 0.121 0.16 0.852 0.559 2 1.199 3.441 0.403 0.907 0.762 1.559 1.082 1.957l0.321 0.282-0.762-1.399z" inkscape:connector-curvature="0"/>
          </g>
        </g>
      </g>
      <g id="g698">
        <g id="g700">
          <g id="g706">
            <path id="path720" style="fill-rule:evenodd;fill:url(#linearGradient708)" d="m32.762 24.056-1.961-9.281c-0.16-0.215-0.293-0.172-0.403 0.121l2.364 9.16z" inkscape:connector-curvature="0"/>
          </g>
        </g>
      </g>
      <g id="g722">
        <g id="g724">
          <g id="g730">
            <path id="path744" style="fill-rule:evenodd;fill:url(#linearGradient732)" d="m31.602 21.173-0.961-6.32c-0.106-0.161-0.227-0.133-0.36 0.082l1.321 6.238z" inkscape:connector-curvature="0"/>
          </g>
        </g>
      </g>
      <g id="g746">
        <g id="g748">
          <g id="g754">
            <path id="path768" style="fill-rule:evenodd;fill:url(#linearGradient756)" d="m30.762 19.376c-0.137-1.387-0.364-2.734-0.684-4.043-0.051-0.183-0.144-0.293-0.277-0.32-0.133-0.024-0.188 0.082-0.16 0.32 0.347 1.469 0.613 2.762 0.8 3.883 0.106 0.719 0.184 1.691 0.239 2.918l0.043 1.601 0.117-1.402c0.055-1.117 0.027-2.105-0.078-2.957z" inkscape:connector-curvature="0"/>
          </g>
        </g>
      </g>
      <g id="g770">
        <g id="g772">
          <g id="g778">
            <path id="path792" style="fill-rule:evenodd;fill:url(#linearGradient780)" d="m30.121 17.775c-0.109-0.934-0.269-1.829-0.48-2.68-0.055-0.133-0.121-0.199-0.203-0.199-0.079-0.028-0.106 0.039-0.079 0.199 0.239 0.961 0.414 1.812 0.52 2.558l0.199 2.961 0.082-0.922c0.055-0.718 0.039-1.359-0.039-1.917z" inkscape:connector-curvature="0"/>
          </g>
        </g>
      </g>
      <g id="g794">
        <g id="g796">
          <g id="g802">
            <path id="path816" style="fill-rule:evenodd;fill:url(#linearGradient804)" d="m25.121 13.134c-0.402-0.531-0.84-1.426-1.32-2.68-0.082-0.133-0.16-0.094-0.242 0.121 0.16 0.532 0.507 1.227 1.043 2.078 0.343 0.563 0.636 0.95 0.878 1.161l0.239 0.16-0.598-0.84z" inkscape:connector-curvature="0"/>
          </g>
        </g>
      </g>
      <g id="g818">
        <g id="g820">
          <g id="g826">
            <path id="path840" style="fill-rule:evenodd;fill:url(#linearGradient828)" d="m25.441 15.974-2.082-5.719c-0.105-0.105-0.187-0.055-0.238 0.16l2.32 5.559z" inkscape:connector-curvature="0"/>
          </g>
        </g>
      </g>
      <g id="g842">
        <g id="g844">
          <g id="g850">
            <path id="path864" style="fill-rule:evenodd;fill:url(#linearGradient852)" d="m30.398 14.095-1.199-3.922c-0.078-0.106-0.144-0.078-0.199 0.082l1.398 3.84z" inkscape:connector-curvature="0"/>
          </g>
        </g>
      </g>
      <g id="g866">
        <g id="g868">
          <g id="g874">
            <path id="path888" style="fill-rule:evenodd;fill:url(#linearGradient876)" d="m22.801 13.095c-0.242-0.856-0.52-1.68-0.84-2.481-0.055-0.105-0.121-0.16-0.199-0.16-0.082-0.027-0.11 0.039-0.082 0.199l0.879 2.403c0.136 0.426 0.269 1.027 0.402 1.797l0.16 1-0.043-0.879c-0.051-0.692-0.144-1.321-0.277-1.879z" inkscape:connector-curvature="0"/>
          </g>
        </g>
      </g>
      <g id="g890">
        <g id="g892">
          <g id="g898">
            <path id="path912" style="fill-rule:evenodd;fill:url(#linearGradient900)" d="m27.559 11.814c-0.133-0.559-0.305-1.106-0.52-1.641-0.051-0.078-0.105-0.117-0.16-0.117-0.051 0-0.067 0.051-0.039 0.16 0.265 0.637 0.453 1.16 0.558 1.559l0.403 1.878-0.039-0.597c-0.028-0.453-0.094-0.867-0.203-1.242z" inkscape:connector-curvature="0"/>
          </g>
        </g>
      </g>
      <g id="g914">
        <g id="g916">
          <g id="g922">
            <path id="path936" style="fill-rule:evenodd;fill:url(#linearGradient924)" d="m22.199 12.376c-0.16-0.59-0.344-1.148-0.558-1.684-0.055-0.078-0.094-0.117-0.121-0.117-0.051 0-0.067 0.051-0.04 0.16l0.559 1.598 0.359 1.84-0.039-0.598c-0.027-0.453-0.078-0.855-0.16-1.199z" inkscape:connector-curvature="0"/>
          </g>
        </g>
      </g>
    </g>
  </g>
<metadata><rdf:RDF><cc:Work><dc:format>image/svg+xml</dc:format><dc:type rdf:resource="http://purl.org/dc/dcmitype/StillImage"/><cc:license rdf:resource="http://creativecommons.org/licenses/publicdomain/"/><dc:publisher><cc:Agent rdf:about="http://openclipart.org/"><dc:title>Openclipart</dc:title></cc:Agent></dc:publisher></cc:Work><cc:License rdf:about="http://creativecommons.org/licenses/publicdomain/"><cc:permits rdf:resource="http://creativecommons.org/ns#Reproduction"/><cc:permits rdf:resource="http://creativecommons.org/ns#Distribution"/><cc:permits rdf:resource="http://creativecommons.org/ns#DerivativeWorks"/></cc:License></rdf:RDF></metadata></svg>
